<svg xmlns="http://www.w3.org/2000/svg" xmlns:xlink="http://www.w3.org/1999/xlink" width="15" height="12" viewBox="0 0 15 12" fill="none"><path id="Arrow 1 (Stroke)" fill-rule="evenodd" style="fill:#152137" transform="translate(0 -0.002439260482788086)  rotate(0 7.24999988079071 5.52297103404999)" opacity="1" d="M0 5.52C0 5.11 0.34 4.77 0.75 4.77L11.94 4.77L8.45 1.28C8.15 0.99 8.15 0.51 8.45 0.22C8.74 -0.07 9.21 -0.07 9.51 0.22L14.28 4.99C14.57 5.29 14.57 5.76 14.28 6.05L9.51 10.83C9.21 11.12 8.74 11.12 8.45 10.83C8.15 10.53 8.15 10.06 8.45 9.77L11.94 6.27L0.75 6.27C0.34 6.27 0 5.94 0 5.52Z" /></svg>