<svg xmlns="http://www.w3.org/2000/svg" xmlns:xlink="http://www.w3.org/1999/xlink" width="28" height="28" viewBox="0 0 28 28" fill="none"><g opacity="1" transform="translate(0 0)  rotate(0 14 14)"><path id="Fill" fill-rule="evenodd" style="fill:#F9F9F9" transform="translate(0 0)  rotate(0 14 14)" opacity="1" d="M28 24.5C28 26.43 26.43 28 24.5 28L3.5 28C1.57 28 0 26.43 0 24.5L0 3.5C0 1.57 1.57 0 3.5 0L24.5 0C26.43 0 28 1.57 28 3.5L28 24.5Z" /><path id="Icon" fill-rule="evenodd" style="fill:#0EAD69" transform="translate(10.5 8)  rotate(0 3.5 6)" opacity="1" d="M0 4.62L1.87 4.62L1.87 2.77C1.87 2.03 2.16 1.33 2.69 0.81C3.21 0.29 3.92 0 4.67 0L6.53 0L6.53 2.31L5.6 2.31C5.55643 2.31 5.51364 2.30965 5.47179 2.30931C5.01417 2.30555 4.67 2.30273 4.67 2.77L4.67 4.62L7 4.62L6.07 6.92L4.67 6.92L4.67 12L1.87 12L1.87 6.92L0 6.92L0 4.62Z" /></g></svg>