<svg xmlns="http://www.w3.org/2000/svg" xmlns:xlink="http://www.w3.org/1999/xlink" width="28" height="28" viewBox="0 0 28 28" fill="none"><g opacity="1" transform="translate(0 0)  rotate(0 14 14)"><path id="Fill" fill-rule="evenodd" style="fill:#F9F9F9" transform="translate(0 0)  rotate(0 14 14)" opacity="1" d="M1.14 1.14C1.87 0.41 2.86 0 3.89 0L24.11 0C25.14 0 26.13 0.41 26.86 1.14C27.59 1.87 28 2.86 28 3.89L28 24.11C28 25.14 27.59 26.13 26.86 26.86C26.13 27.59 25.14 28 24.11 28L3.89 28C2.86 28 1.87 27.59 1.14 26.86C0.41 26.13 0 25.14 0 24.11L0 3.89C0 2.86 0.41 1.87 1.14 1.14Z" /><path id="Icon" fill-rule="evenodd" style="fill:#0EAD69" transform="translate(8.591064453125 9.5)  rotate(0 5.409090995788575 4.5)" opacity="1" d="M9.91 2.13C9.91 2.23 9.92 2.57 9.92 2.67C9.92 5.72 7.69 9 3.61 9C2.35 9 0.98 8.7 0 8.04C0.124643 8.05466 0.211655 8.0532 0.32016 8.05138C0.359644 8.05071 0.401975 8.05 0.45 8.05C1.49 8.05 2.85 7.72 3.61 7.11C2.63 7.09 1.22 6.6 0.93 5.68C1.8 5.68 2.03 5.49 2.21 5.44C1.2 5.23 0.45 4.46 0.45 3.34L0.45 3.32C0.75 3.49 1.44 3.78 1.8 3.79C1.21 3.37 0.45 2.5 0.45 1.64C0.45 1.23 0.56 0.83 0.75 0.47C1.85 1.87 3.61 3.32 5.41 3.32L5.41 2.37C5.41 1.09 6.26 0 7.49 0C8.13 0 8.7 0.2 9.11 0.65C9.61 0.55 10.39 0.26 10.82 0C10.65 0.54 9.92 1.13 9.47 1.42C9.92 1.36 10.42 1.19 10.82 1C10.52 1.47 10.34 1.81 9.91 2.13Z" /></g></svg>