<svg xmlns="http://www.w3.org/2000/svg" xmlns:xlink="http://www.w3.org/1999/xlink" width="28" height="28" viewBox="0 0 28 28" fill="none"><g opacity="1" transform="translate(0 0)  rotate(0 14 14)"><path id="Fill" fill-rule="evenodd" style="fill:#F9F9F9" transform="translate(0 0)  rotate(0 14 14)" opacity="1" d="M0 21.72L0 6.28C0 2.81 2.81 0 6.28 0L21.72 0C25.19 0 28 2.81 28 6.28L28 21.72C28 25.19 25.19 28 21.72 28L6.28 28C2.81 28 0 25.19 0 21.72Z" /><path id="Icon" fill-rule="evenodd" style="fill:#0EAD69" transform="translate(8.5 9)  rotate(0 5.5 5)" opacity="1" d="M0.159509 3.31507Z M2.43951 9.98507L2.43951 3.31507L0.159509 3.31507L0.159509 9.98507L2.43951 9.98507Z M1.32002 6.79014e-08Z M0.810018 0.0900001C0.650018 0.15 0.510018 0.24 0.380018 0.35C0.260018 0.47 0.160018 0.6 0.100018 0.75C0.0300177 0.89 1.77157e-05 1.05 1.77157e-05 1.21C1.77157e-05 1.44 0.0800177 1.67 0.230018 1.87C0.370018 2.07 0.580018 2.22 0.820018 2.31C1.06002 2.4 1.33002 2.42 1.58002 2.37C1.84002 2.33 2.07002 2.21 2.26002 2.04C2.44002 1.88 2.57002 1.66 2.62002 1.43C2.67002 1.2 2.64002 0.96 2.54002 0.74C2.44002 0.52 2.27002 0.33 2.05002 0.2C1.84002 0.0700001 1.58002 6.79014e-08 1.32002 6.79014e-08C1.15002 6.79014e-08 0.970018 0.0300001 0.810018 0.0900001Z M3.90227 3.31765Z M8.26227 3.14765C7.82227 3.13765 7.39227 3.22765 7.01227 3.41765C6.63227 3.60765 6.31227 3.88765 6.09227 4.22765L6.09227 3.31765L3.90227 3.31765L3.89227 9.99765L6.17227 9.99765L6.17227 6.69765C6.17227 5.82765 6.35227 4.98765 7.53227 4.98765C8.72227 4.98765 8.72227 5.98765 8.72227 6.75765L8.72227 9.98765L11.0023 9.98765L11.0023 6.32765C11.0023 4.52765 10.5323 3.14765 8.26227 3.14765Z " /></g></svg>