<svg xmlns="http://www.w3.org/2000/svg" xmlns:xlink="http://www.w3.org/1999/xlink" width="23" height="23" viewBox="0 0 23 23" fill="none"><g opacity="1" transform="translate(0 0)  rotate(0 11.5 11.5)"><path id="Path 3297" fill-rule="evenodd" style="fill:#FFFEFE" transform="translate(2.15624737776597 4.312494814634133)  rotate(0 9.343752531403055 4.671877592682934)" opacity="1" d="M0.19 0.23C0.46 -0.06 0.91 -0.08 1.2 0.19L9.34 7.65L17.48 0.19C17.78 -0.08 18.23 -0.06 18.5 0.23C18.77 0.53 18.75 0.98 18.45 1.25L9.83 9.15C9.69 9.28 9.52 9.34 9.34 9.34C9.17 9.34 9 9.28 8.86 9.15L0.23 1.25C-0.06 0.98 -0.08 0.53 0.19 0.23Z" /><path id="Path 3298" fill-rule="evenodd" style="fill:#FFFEFE" transform="translate(2.15625 4.3125)  rotate(0 9.34375 7.1875)" opacity="1" d="M0.72 0Z M0.72 0C0.32 0 0 0.32 0 0.72L0 12.94C0 13.73 0.64 14.38 1.44 14.38L17.25 14.38C18.04 14.38 18.69 13.73 18.69 12.94L18.69 0.72C18.69 0.32 18.37 0 17.97 0L0.72 0Z M17.2475 1.4375Z M1.4375 12.9375L17.2475 12.9375L17.2475 1.4375L1.4375 1.4375L1.4375 12.9375Z " /><path id="Line 1" fill-rule="evenodd" style="fill:#FFFEFE" transform="translate(2.3778703795028107 10.781258740018188)  rotate(0 4.136350105989442 3.8515662362225953)" opacity="1" d="M8.04 1.25L1.2 7.51C1.07 7.64 0.89 7.7 0.72 7.7C0.52 7.7 0.33 7.62 0.19 7.47C-0.08 7.18 -0.06 6.72 0.23 6.45L7.07 0.19C7.36 -0.08 7.82 -0.06 8.08 0.23C8.35 0.53 8.33 0.98 8.04 1.25Z" /><path id="Line 2" fill-rule="evenodd" style="fill:#FFFEFE" transform="translate(12.34939780127058 10.781210433316968)  rotate(0 4.136410145601468 3.851591581666101)" opacity="1" d="M8.04 6.45C8.33 6.72 8.35 7.18 8.08 7.47C7.94 7.62 7.75 7.7 7.55 7.7C7.38 7.7 7.21 7.64 7.07 7.51L0.23 1.25C-0.06 0.98 -0.08 0.53 0.19 0.23C0.46 -0.06 0.91 -0.08 1.2 0.19L8.04 6.45Z" /></g></svg>