<svg xmlns="http://www.w3.org/2000/svg" xmlns:xlink="http://www.w3.org/1999/xlink" width="144" height="48" viewBox="0 0 144 48" fill="none"><g opacity="1" transform="translate(-0.000003814697265625 -0.00006103515625)  rotate(0 71.59732246398926 23.999988555908203)"><path id="Path 3297" fill-rule="evenodd" style="fill:#FFFEFE" transform="translate(108.9083137512207 0)  rotate(0 17.1431655883789 23.999988555908224)" opacity="1" d="M20.61 18.97L25.52 11.57L33.54 11.57L24.96 24.02L34.29 37.62L26.15 37.62L20.61 29.55L8.2 48L0 48L16.49 24.35L0 0L8.13 0L20.61 18.97Z" /><path id="Path 3298" fill-rule="evenodd" style="fill:#FFFEFE" transform="translate(0 11.287805557250977)  rotate(0 57.26708793640137 13.16917276382446)" opacity="1" d="M22.88 26.34Z M22.88 26.34L30.63 26.34L18.96 0L11.63 0L0 26.34L7.6 26.34L9.67 21.22L20.81 21.22L22.88 26.34Z M11.8523 15.7295Z M18.6223 15.7295L15.2423 7.29948L11.8523 15.7295L18.6223 15.7295Z M50.4948 0Z M57.7948 0L50.4948 0L50.4948 14.03L38.8648 0L32.7348 0L32.7348 26.34L40.0348 26.34L40.0348 12.3L51.6648 26.34L57.7948 26.34L57.7948 0Z M80.8215 0Z M63.0615 26.34L70.3615 26.34L70.3615 12.3L81.9915 26.34L88.1215 26.34L88.1215 0L80.8215 0L80.8215 14.03L69.1915 0L63.0615 0L63.0615 26.34Z M100.758 20.58Z M100.758 15.77L112.468 15.77L112.468 10.2L100.758 10.2L100.758 5.76L114.048 5.76L114.048 0L93.3882 0L93.3882 26.34L114.538 26.34L114.538 20.58L100.758 20.58L100.758 15.77Z " /></g></svg>