<svg xmlns="http://www.w3.org/2000/svg" xmlns:xlink="http://www.w3.org/1999/xlink" width="28" height="28" viewBox="0 0 28 28" fill="none"><g opacity="1" transform="translate(0 0)  rotate(0 14 14)"><path id="Line 1" fill-rule="evenodd" style="fill:#0EAD69" transform="translate(3.5 13.125)  rotate(0 10.5 0.875)" opacity="1" d="M20.13 0C20.61 0 21 0.39 21 0.88C21 1.36 20.61 1.75 20.13 1.75L0.88 1.75C0.39 1.75 0 1.36 0 0.88C0 0.39 0.39 0 0.88 0L20.13 0Z" /><path id="Line 2" fill-rule="evenodd" style="fill:#0EAD69" transform="translate(3.5 6.125)  rotate(0 10.5 0.875)" opacity="1" d="M20.13 0C20.61 0 21 0.39 21 0.88C21 1.36 20.61 1.75 20.13 1.75L0.88 1.75C0.39 1.75 0 1.36 0 0.88C0 0.39 0.39 0 0.88 0L20.13 0Z" /><path id="Line 3" fill-rule="evenodd" style="fill:#0EAD69" transform="translate(3.5 20.125)  rotate(0 10.5 0.875)" opacity="1" d="M20.13 0C20.61 0 21 0.39 21 0.88C21 1.36 20.61 1.75 20.13 1.75L0.88 1.75C0.39 1.75 0 1.36 0 0.88C0 0.39 0.39 0 0.88 0L20.13 0Z" /></g></svg>