<svg xmlns="http://www.w3.org/2000/svg" xmlns:xlink="http://www.w3.org/1999/xlink" width="206" height="52" viewBox="0 0 206 52" fill="none"><g opacity="1" transform="translate(3.358695721544791e-8 -0.00006103515625)  rotate(0 102.7828063796909 25.9431082070206)"><g opacity="1" transform="translate(61.62121578672554 6.96563720703125)  rotate(0 71.97219848632812 22.353775024414062)"><path id="polygon10966" fill-rule="evenodd" style="fill:#37474D" transform="translate(47.54931640625 9.71881103515625)  rotate(0 13.100494384765625 11.58182907104492)" opacity="1" d="M13.75 15.71L19.08 0L26.2 0L17.14 23.16L9.54 23.16L0 0L7.76 0L13.59 15.71L13.75 15.71Z" /><path id="path10968" fill-rule="evenodd" style="fill:#37474D" transform="translate(0 2.91607666015625)  rotate(0 9.86581039428711 15.226463317871096)" opacity="1" d="M12.78 20.09C12.78 20.73 12.78 21.22 12.94 21.87C12.94 22.35 13.1 22.84 13.42 23.16C13.59 23.49 14.07 23.81 14.56 23.97C15.04 24.14 15.69 24.3 16.5 24.3C16.98 24.3 17.47 24.3 18.11 24.14C18.76 24.14 19.25 23.81 19.73 23.65L19.73 29.64C18.92 29.97 17.95 30.13 16.98 30.29C16.01 30.45 15.2 30.45 14.23 30.45C12.94 30.45 11.64 30.29 10.51 30.13C9.38 29.8 8.41 29.48 7.6 29C6.79 28.51 6.15 27.7 5.66 26.89C5.18 26.08 5.01 24.95 5.01 23.65L5.01 12.63L0 12.63L0 6.97L5.01 6.97L5.01 0L12.78 0L12.78 6.8L19.73 6.8L19.73 12.47L12.78 12.47L12.78 20.09Z" /><path id="path10970" fill-rule="evenodd" style="fill:#37474D" transform="translate(21.83416748046875 9.0711669921875)  rotate(0 8.086727142333984 11.743812561035154)" opacity="1" d="M0 0.65L7.12 0.65L7.12 4.37C7.92 2.92 8.73 1.94 9.87 1.13C10.84 0.49 12.29 0 13.75 0L15.04 0C15.53 0 15.85 0.16 16.17 0.16L16.17 6.64C15.69 6.48 15.2 6.32 14.72 6.32C14.23 6.32 13.75 6.16 13.1 6.16C11.81 6.16 10.67 6.32 9.87 6.8C9.06 7.13 8.41 7.78 8.09 8.42C7.6 9.07 7.44 9.88 7.28 10.85C7.12 11.82 7.12 12.8 7.12 13.93L7.12 23.49L0 23.49L0 0.65Z" /><path id="path10972" fill-rule="evenodd" style="fill:#37474D" transform="translate(39.4639892578125 0)  rotate(0 3.719886779785156 3.7256202697753906)" opacity="1" d="M1.13 6.32C0.32 5.67 0 4.7 0 3.73C0 2.75 0.32 1.94 1.13 1.13C1.78 0.32 2.75 0 3.72 0C4.69 0 5.5 0.32 6.31 1.13C7.12 1.78 7.44 2.75 7.44 3.73C7.44 4.7 7.12 5.51 6.31 6.32C5.66 7.13 4.69 7.45 3.72 7.45C2.59 7.45 1.78 6.97 1.13 6.32Z" /><path id="rect10974" fill-rule="evenodd" style="fill:#37474D" transform="translate(39.62469482421875 9.71881103515625)  rotate(0 3.558158874511719 11.50083923339844)" opacity="1" d="M7.12 23L0 23L0 0L7.12 0L7.12 23Z" /><path id="path10976" fill-rule="evenodd" style="fill:#37474D" transform="translate(71.97216796875 8.90869140625)  rotate(0 11.159690856933596 12.22976303100586)" opacity="1" d="M13.9046 13.7666Z M15.2046 17.0066C15.5246 16.5266 15.6846 15.8766 15.6846 15.0666L15.6846 13.6066L13.9046 13.6066L13.9046 13.7666L11.9646 13.7666C11.1646 13.7666 10.3546 13.9266 9.70459 14.0966C8.89459 14.2566 8.24459 14.5766 7.76459 15.0666C7.27459 15.5466 6.95459 16.1966 6.95459 16.8466C6.95459 17.6566 7.27459 18.3066 8.08459 18.7866C8.73459 19.2766 9.54459 19.4366 10.3546 19.4366C10.9946 19.4366 11.6446 19.2766 12.2946 19.1166C12.9346 18.9566 13.5846 18.6266 14.0746 18.3066C14.5546 17.9766 15.0446 17.4966 15.2046 17.0066Z M15.53 21.06Z M5.34 7.61C6.15 6.8 6.95 6.16 7.92 5.67C8.9 5.18 10.03 4.86 11.16 4.86C12.45 4.86 13.42 5.18 14.39 5.99C15.2 6.8 15.69 7.78 15.69 9.07L12.45 9.07C11.32 9.07 10.19 9.23 9.06 9.4C7.92 9.56 6.79 9.88 5.66 10.2C4.53 10.53 3.56 11.01 2.75 11.66C1.94 12.31 1.29 12.96 0.81 13.93C0.32 14.9 0 16.04 0 17.33C0 18.47 0.16 19.6 0.65 20.41C1.13 21.38 1.62 22.03 2.43 22.68C3.07 23.16 4.04 23.65 5.01 23.97C5.98 24.3 6.95 24.46 8.09 24.46C9.54 24.46 11 24.14 12.29 23.65C13.59 23.16 14.72 22.35 15.53 21.06L15.85 21.06L15.85 23.49L22.32 23.49L22.32 11.82C22.32 10.04 22.16 8.26 21.83 6.8C21.51 5.35 21.03 4.05 20.22 3.08C19.41 2.11 18.28 1.3 16.98 0.81C15.53 0.32 13.91 0 11.81 0C9.87 0 8.09 0.32 6.31 0.97C4.53 1.62 2.91 2.43 1.62 3.73L5.34 7.61Z " /><path id="path10978" fill-rule="evenodd" style="fill:#37474D" transform="translate(120.65460205078125 9.233154296875)  rotate(0 11.6448974609375 12.14878463745117)" opacity="1" d="M22.32 7.13Z M11.64 24.3C13.26 24.3 14.72 23.97 16.17 23.49C17.63 23 18.76 22.03 19.89 21.06C20.86 19.92 21.83 18.79 22.32 17.17C22.97 15.71 23.29 14.09 23.29 12.15C23.29 10.2 22.97 8.59 22.32 7.13C21.67 5.67 20.86 4.37 19.89 3.24C18.92 2.11 17.63 1.3 16.17 0.81C14.72 0.16 13.26 0 11.64 0C10.03 0 8.57 0.32 7.12 0.81C5.66 1.46 4.53 2.27 3.4 3.24C2.43 4.37 1.46 5.51 0.97 7.13C0.32 8.59 0 10.2 0 12.15C0 14.09 0.32 15.71 0.97 17.17C1.62 18.63 2.43 19.92 3.4 21.06C4.37 22.19 5.66 23 7.12 23.49C8.57 24.14 10.03 24.3 11.64 24.3Z M15.5229 16.1954Z M8.08286 7.77538C7.28286 8.90538 6.79286 10.2054 6.79286 11.9854C6.79286 13.7654 7.11286 15.0654 8.08286 16.1954C8.89286 17.3354 10.1929 17.8154 11.8029 17.8154C13.4229 17.8154 14.5529 17.3354 15.5229 16.1954C16.3329 15.2254 16.8229 13.7654 16.8229 11.9854C16.8229 10.2054 16.4929 8.90538 15.5229 7.77538C14.7229 6.64538 13.4229 6.15538 11.8029 6.15538C10.1929 6.15538 9.05286 6.64538 8.08286 7.77538Z " /><path id="path10980" fill-rule="evenodd" style="fill:#37474D" transform="translate(95.10015869140625 9.557098388671875)  rotate(0 12.210968017578125 17.575225830078125)" opacity="1" d="M17.95 0.32Z M10.19 0C8.57 0 7.12 0.32 5.82 0.97C4.53 1.62 3.4 2.43 2.59 3.73C1.78 4.86 1.29 5.99 0.97 7.61C0.65 9.07 0.49 10.53 0.49 12.15C0.49 13.93 0.81 15.55 1.13 17.01C1.62 18.47 2.1 19.6 2.91 20.73C3.88 21.87 5.18 22.68 6.47 23.16C7.92 23.81 9.38 23.97 11.16 23.97C12.29 23.97 13.42 23.65 14.56 23.33C15.85 22.84 16.98 22.03 17.31 20.9L17.31 23.16C17.31 24.78 16.98 26.08 16.01 27.21C15.04 28.35 13.59 28.83 11.32 28.83C9.87 28.83 8.9 28.83 7.44 28.51C6.15 28.19 4.53 27.54 3.4 26.73L0 31.75C1.78 33.04 3.56 33.85 5.5 34.5C7.44 34.99 9.54 35.15 11.48 35.15C16.01 35.15 19.25 34.02 21.35 31.75C23.61 29.48 24.42 26.24 24.42 21.87L24.42 0.32L17.95 0.32L17.95 3.4C17.95 3.4 17.47 2.59 16.98 2.27C16.5 1.78 16.01 1.46 15.2 1.13C14.56 0.81 13.75 0.49 12.94 0.32C12.13 0.16 11.16 0 10.19 0Z M16.3315 15.8714Z M8.89153 7.45141C8.09153 8.58141 7.60153 9.88141 7.60153 11.6614C7.60153 13.4414 7.92153 14.7414 8.89153 15.8714C9.70153 17.0114 11.0015 17.4914 12.6115 17.4914C14.2315 17.4914 15.3615 17.0114 16.3315 15.8714C17.1415 14.9014 17.6315 13.4414 17.6315 11.6614C17.6315 9.88141 17.3015 8.58141 16.3315 7.45141C15.5315 6.32141 14.2315 5.83141 12.6115 5.83141C11.0015 5.83141 9.86153 6.32141 8.89153 7.45141Z " /></g><g opacity="1" transform="translate(0 0)  rotate(0 25.593956112438946 25.9431082070206)"><path id="path10984" fill-rule="evenodd" style="fill:#C93F1F" transform="translate(0 6.96551513671875)  rotate(0 25.231355650320804 22.46035063866123)" opacity="1" d="M32.83 44.87C27.82 45.19 20.54 44.06 13.1 39.2C8.41 36.12 2.59 30.45 0.65 22.19C-1.45 13.93 2.1 7.29 3.56 4.86C4.85 3.08 6.15 1.46 7.6 0C2.27 8.26 -0.81 26.73 19.73 37.09C39.2849 46.8094 49.0005 32.5853 50.3512 30.6079C50.3971 30.5406 50.4334 30.4875 50.46 30.45C50.3 31.26 49.49 33.53 48.04 35.96C45.45 40.01 40.44 44.38 32.83 44.87Z" /><path id="path10986" fill-rule="evenodd" style="fill:#F39200" transform="translate(2.5552978551675096 0.323455810546875)  rotate(0 24.3163071848552 23.839822856913422)" opacity="1" d="M0.52 25.59C-1.26 17.49 1.97 11.18 3.59 8.75C4.08 8.1 4.56 7.29 5.05 6.64C8.44 3.4 12.16 1.46 14.75 0.65C15.88 0.32 16.85 0.16 17.66 0C13.3 1.94 -2.55 17.98 9.58 33.69C12 36.93 15.24 39.04 17.66 40.33C20.9 41.95 25.59 43.41 29.79 43.41C30.28 43.25 30.6 43.25 30.93 43.25C42.73 42.12 47.26 30.78 48.07 25.11C48.55 27.86 48.88 31.1 48.39 34.34C48.23 34.66 48.07 35.96 47.91 36.61C47.91 36.61 47.75 36.77 47.75 37.09C47.42 37.74 47.1 38.39 46.61 39.04C44.19 42.76 39.34 47.14 31.9 47.62C26.88 47.95 19.93 46.98 12.65 42.12C8.12 39.2 2.46 33.69 0.52 25.59Z" /><path id="path10988" fill-rule="evenodd" style="fill:#007DB0" transform="translate(33.31890865781929 9.827087379695627)  rotate(0 8.52456685437699 16.873291026949072)" opacity="1" d="M4.69 6.05C3.56 4.43 3.72 2.16 5.34 0.86C6.95 -0.43 9.22 -0.27 10.51 1.35C11 2 11.64 2.97 12.29 3.78C12.29 3.94 12.94 4.91 13.42 5.72C14.56 7.67 15.69 9.77 16.17 12.2C16.5 13.17 16.66 14.31 16.98 15.6C17.1393 16.735 16.9814 17.8602 16.8221 18.9951L16.82 19.01C16.82 19.33 16.66 20.3 16.5 20.95C16.5 20.95 15.85 23.54 14.23 26.13C12.13 29.54 7.76 33.26 1.29 33.75L0 33.75C0.32 33.75 0.65 33.58 0.81 33.58C4.85 32.77 6.95 30.02 7.76 28.73C10.35 24.84 10.03 19.98 9.7 17.55C9.22 14.79 8.41 12.53 7.92 11.55C6.95 9.29 6.15 7.83 4.69 6.05Z" /><path id="path10990" fill-rule="evenodd" style="fill:#007DB0" transform="translate(6.576904245948185 0)  rotate(0 12.014967081530159 17.008283615112305)" opacity="1" d="M3.94 30.94C4.42 32.07 5.07 33.04 5.72 34.02C3.45 31.42 1.51 28.19 0.54 24.14C-1.24 16.85 1.83 11.34 3.13 9.23C6.04 4.54 10.41 1.62 13.64 0.32C15.58 0 16.88 0 16.88 0C17.85 0 18.82 0 19.79 0.16C22.54 0.49 24.32 2.75 23.99 5.35C23.67 7.94 21.73 9.23 19.14 9.23C11.22 9.4 7.82 12.15 4.75 16.52C2 20.57 2.16 25.43 2.64 27.21C2.97 28.51 3.45 29.8 3.94 30.94Z" /></g></g></svg>