<svg xmlns="http://www.w3.org/2000/svg" xmlns:xlink="http://www.w3.org/1999/xlink" width="206" height="28" viewBox="0 0 206 28" fill="none"><g opacity="1" transform="translate(0 0)  rotate(0 102.78342414498735 13.935993194580078)"><path id="Vector" fill-rule="evenodd" style="fill:#2B303D" transform="translate(0 0)  rotate(0 89.1295623779297 13.93599319458008)" opacity="1" d="M18.72 19.4811Z M5.05 11.3411C5.05 7.1911 7.8 4.7911 11.39 4.7911C14.18 4.7911 16.44 6.4811 16.84 7.0111L18.36 2.9111C17.81 2.3311 15.44 0.511101 11.1 0.511101C4.92 0.511101 0 4.5911 0 11.4311C0 18.2411 4.87 22.3711 11.08 22.3711C15.42 22.3711 17.66 20.5911 18.72 19.4811L17.08 15.6011C15.93 16.8011 14.02 17.8411 11.39 17.8411C7.93 17.8411 5.05 15.4911 5.05 11.3411Z M35.6432 21.9907Z M25.6732 9.06066C25.6732 9.06066 25.7032 7.39066 25.7032 5.86066L25.7032 0.820657L20.8032 0.820657L20.8032 21.9907L25.7032 21.9907L25.7032 14.5607C25.7032 12.3207 26.3432 10.6107 28.4032 10.6107C30.4632 10.6107 30.7132 12.2107 30.7132 14.0507L30.7132 21.9907L35.6432 21.9907L35.6432 13.0707C35.6432 9.39066 34.5132 6.59066 30.1332 6.59066C27.8932 6.59066 26.4532 7.70066 25.6732 9.06066Z M53.503 15.6046Z M46.613 18.7746C44.623 18.7746 42.983 17.7746 42.763 15.6046L53.503 15.6046C53.503 15.6046 53.573 14.7146 53.573 13.9846C53.573 9.56457 50.463 6.59457 45.993 6.59457C41.513 6.59457 37.843 9.43457 37.843 14.4446C37.843 19.4646 41.253 22.3446 45.903 22.3446C50.603 22.3446 52.593 20.2646 53.083 19.8846L51.153 17.3346C50.293 17.9046 48.593 18.7746 46.613 18.7746Z M49.0089 12.8286Z M42.7789 12.8286L49.0089 12.8286C48.9889 11.4486 47.9689 9.78862 45.9089 9.78862C43.8889 9.78862 42.8489 11.3886 42.7789 12.8286Z M69.3898 21.9946Z M69.4098 13.4646C69.4098 10.9146 68.7698 9.45464 67.5998 8.34464C66.3998 7.23464 64.7598 6.59464 61.9398 6.59464C59.1298 6.59464 56.7598 7.47464 55.4798 8.12464L56.7598 11.3146C57.5398 10.8346 59.4698 9.96464 61.3898 9.96464C63.3598 9.96464 64.4898 10.7846 64.4898 12.3846L64.4898 12.7146L60.6798 12.8746C57.8898 13.0046 54.7898 14.1346 54.7898 17.5046C54.7898 20.8846 57.6298 22.3246 60.2898 22.3246C62.7398 22.3246 63.9598 21.0346 64.5998 20.3946L64.6898 21.9946L69.3898 21.9946L69.4098 21.9946L69.4098 13.4646Z M64.5159 15.3364Z M59.7059 17.3364C59.7059 18.5064 60.6659 19.1964 62.0159 19.1964C63.3459 19.1964 64.2259 18.3264 64.5159 17.8164L64.5159 15.3364L62.0959 15.4864C60.5959 15.5564 59.7059 16.1964 59.7059 17.3364Z M81.6176 22.35Z M81.6576 6.56996C79.3576 6.56996 77.7376 7.45996 76.6276 8.78996L76.5676 8.78996L76.5876 6.85996L71.9376 6.85996L71.9376 27.56L76.8376 27.56L76.8376 20.1C77.7876 21.52 79.3776 22.35 81.6176 22.35C86.0076 22.35 88.7476 18.91 88.7776 14.43C88.7776 9.98996 85.9976 6.56996 81.6576 6.56996Z M81.6176 22.35L81.6176 22.35C81.6176 22.35 81.6176 22.35 81.6176 22.35C81.6176 22.35 81.6176 22.35 81.6176 22.35Z M80.1972 10.452Z M80.1972 18.312C82.3072 18.312 83.7672 16.712 83.7672 14.382C83.7672 12.052 82.3272 10.452 80.1972 10.452C78.1172 10.452 76.6772 12.052 76.6772 14.382C76.6772 16.712 78.1172 18.312 80.1972 18.312Z M100.256 4.21267Z M98.4965 3.95267C99.4365 3.95267 100.256 4.21267 100.256 4.21267L100.476 0.822666C100.476 0.822666 99.0765 0.422666 97.2565 0.422666C95.3165 0.422666 93.8665 1.02267 92.9464 2.04267C92.0564 3.04267 91.7465 4.48267 91.7465 6.01267L91.7465 6.90267L89.8165 6.90267L89.8165 10.6127L91.7465 10.6127L91.7465 21.9927L96.6865 21.9927L96.6865 10.6127L99.9464 10.6127L99.9464 6.90267L96.6865 6.90267L96.6865 5.92267C96.6865 4.77267 97.0665 3.95267 98.4965 3.95267Z M102.735 0.820657Z M102.735 22.0107L107.625 22.0107L107.625 0.820657L102.735 0.820657L102.735 22.0107Z M112.943 5.11Z M115.733 2.56C115.733 1.05 114.603 0 112.943 0C111.283 0 110.153 1.05 110.153 2.56C110.153 4.08 111.283 5.11 112.943 5.11C114.603 5.11 115.733 4.11 115.733 2.56Z M110.507 6.85991Z M110.507 21.9899L115.407 21.9899L115.407 6.85991L110.507 6.85991L110.507 21.9899Z M134.372 18.9245Z M124.682 21.5045C127.032 21.5045 128.502 20.5545 129.432 19.3545L129.492 19.3545L129.492 19.8345C129.492 21.1945 129.092 22.2845 128.562 22.8545C128.032 23.4145 127.012 24.0545 125.002 24.0545C122.982 24.0545 120.682 23.0145 119.792 22.3445L117.782 25.6345C118.822 26.4045 121.612 27.8745 125.112 27.8745C128.562 27.8745 130.582 26.8745 132.062 25.4745C133.552 24.0745 134.372 22.1945 134.372 18.9245L134.372 6.88453L129.472 6.88453L129.542 8.81453L129.472 8.81453C128.672 7.76453 127.242 6.59453 124.682 6.59453C120.982 6.59453 117.552 9.16453 117.552 14.0445C117.552 18.9245 120.982 21.5045 124.682 21.5045Z M126.107 10.4323Z M126.107 17.7723C128.277 17.7723 129.627 16.1723 129.627 14.0923C129.627 12.0323 128.277 10.4323 126.107 10.4323C123.937 10.4323 122.537 12.0323 122.537 14.0923C122.537 16.1723 123.907 17.7723 126.107 17.7723Z M152.077 21.9907Z M142.127 14.5607C142.127 12.3207 142.767 10.6107 144.827 10.6107C146.887 10.6107 147.137 12.2107 147.137 14.0507L147.137 21.9907L152.077 21.9907L152.077 13.0707C152.077 9.39066 150.947 6.59066 146.557 6.59066C144.317 6.59066 142.877 7.70066 142.107 9.06066C142.107 9.06066 142.127 7.39066 142.127 5.86066L142.127 0.820657L137.227 0.820657L137.227 21.9907L142.127 21.9907L142.127 14.5607Z M164.197 10.6065Z M164.197 6.87648L160.847 6.87648L160.847 2.77648L155.907 2.77648L155.907 6.90648L153.757 6.90648L153.757 10.6065L155.907 10.6065L155.907 16.4665C155.907 18.7765 156.197 20.0365 156.967 20.9265C157.747 21.8165 158.897 22.3465 160.647 22.3465C162.437 22.3465 163.767 21.9465 164.147 21.8565L163.907 18.0165C163.907 18.0165 163.217 18.2865 162.437 18.2865C161.797 18.2865 161.487 18.1565 161.267 17.9065C161.027 17.6365 160.847 17.3365 160.847 16.0465L160.847 10.6065L164.197 10.6065L164.197 6.87648Z M176.463 21.02Z M176.333 11.32L177.923 8.42996C177.063 7.73996 175.293 6.56996 172.123 6.56996C168.953 6.56996 166.383 8.36996 166.383 11.32C166.383 14.02 168.223 14.98 168.933 15.29C169.643 15.6 170.503 15.85 171.083 16C171.633 16.2 173.843 16.69 173.843 17.67C173.843 18.64 172.983 18.95 171.763 18.95C170.553 18.95 168.513 18.15 167.293 17.11L165.453 20.01C167.183 21.64 169.573 22.35 171.833 22.35C173.843 22.35 175.353 21.88 176.463 21.02C177.573 20.13 178.233 18.91 178.263 17.33C178.263 15.73 177.523 14.76 177.043 14.27C176.503 13.78 175.733 13.38 175.073 13.14C174.423 12.89 173.963 12.74 172.923 12.43C171.883 12.14 170.703 11.76 170.703 10.96C170.703 10.17 171.343 9.84996 172.523 9.84996C173.763 9.84996 175.463 10.65 176.333 11.32Z " /><path id="Vector" fill-rule="evenodd" style="fill:#FFD400" transform="translate(183.3120117190632 1.04248046875)  rotate(0 11.127418285455729 10.44944763183594)" opacity="1" d="M5.69 20.24L8.55 12.42L3.76 12.11L2.21 14.33C2.01 14.6 1.7 14.78 1.37 14.78L0.46 14.78C0.18 14.78 -0.02 14.47 0.07 14.18L1.17 10.43L0.02 6.7C-0.07 6.41 0.13 6.1 0.42 6.1L1.31 6.1C1.64 6.1 1.95 6.26 2.15 6.55L3.74 8.74L8.53 8.45L5.54 0.66C5.4 0.35 5.65 0 5.98 0L7.18 0C7.42 0 7.62 0.11 7.77 0.28L14.38 8.39L17.61 8.36C18.9 8.34 20.16 8.56 21.36 9.01C21.95 9.25 22.33 9.83 22.24 10.54C22.18 11.07 21.8 11.51 21.31 11.69C20.14 12.14 18.9 12.38 17.63 12.38L14.4 12.4L7.93 20.61C7.77 20.79 7.58 20.9 7.33 20.9L6.16 20.9C5.81 20.9 5.58 20.55 5.69 20.24Z" /></g></svg>