<svg xmlns="http://www.w3.org/2000/svg" xmlns:xlink="http://www.w3.org/1999/xlink" width="206" height="35" viewBox="0 0 206 35" fill="none"><g opacity="1" transform="translate(0 0.00000762939453125)  rotate(0 102.78288269042969 17.12655258178711)"><g opacity="1" transform="translate(19.529815673828125 0)  rotate(0 58.321258544921875 13.60738754272461)"><g opacity="1" transform="translate(0 0)  rotate(0 58.321258544921875 13.60738754272461)"><path id="Vector" fill-rule="evenodd" style="fill:#273B7D" transform="translate(61.1011962890625 0)  rotate(0 3.1240196228027344 3.136852264404297)" opacity="1" d="M6.25 3.14C6.25 4.87 4.84 6.27 3.12 6.27C1.4 6.27 0 4.87 0 3.14C0 1.4 1.4 0 3.12 0C4.84 0 6.25 1.4 6.25 3.14Z" /><path id="Vector" fill-rule="evenodd" style="fill:#499FDD" transform="translate(110.39617919921875 20.864898681640625)  rotate(0 3.1231689453125 3.138042449951172)" opacity="1" d="M6.25 3.14C6.25 4.87 4.84 6.28 3.12 6.28C1.4 6.28 0 4.87 0 3.14C0 1.4 1.4 0 3.12 0C4.84 0 6.25 1.4 6.25 3.14Z" /><path id="Vector" fill-rule="evenodd" style="fill:#273B7D" transform="translate(0 0.8175277709960938)  rotate(0 44.00322341918945 13.19862365722656)" opacity="1" d="M9.82334 21.836Z M9.82334 21.836C12.5733 21.836 14.4233 19.736 14.4233 16.636C14.4233 13.576 12.5333 11.436 9.82334 11.436C7.13334 11.436 5.26334 13.576 5.26334 16.636C5.26334 19.686 7.13334 21.836 9.82334 21.836L9.82334 21.836Z M9.82 6.86707Z M9.82 26.3971C15.54 26.3971 19.69 22.2871 19.69 16.6371C19.69 10.9771 15.54 6.86707 9.82 6.86707C4.13 6.86707 0 10.9771 0 16.6371C0 22.2871 4.13 26.3971 9.82 26.3971Z M55.0506 17.12Z M48.1006 18.28L48.6006 18.28C49.2206 18.28 49.6406 18.35 49.8306 18.68L52.8106 24.32C53.6506 25.85 54.4806 26.11 56.0406 26.11L60.1806 26.11L57.0906 21L55.0506 17.12C54.8306 16.7 54.5706 16.35 54.3006 16.07L54.1306 15.89L54.3106 15.71C54.5706 15.44 54.8406 15.11 55.1006 14.73L60.1206 7.25L54.0206 7.25L50.2506 13.1C50.0406 13.42 49.6006 13.57 48.9606 13.57L48.1006 13.57L48.1006 2.51C48.1006 0.3 46.7206 0 45.2406 0L42.6906 0L42.6906 26.11L48.1006 26.11L48.1006 18.28Z M81.2855 6.82523Z M82.5955 15.0252L82.5955 23.2352C82.5955 25.1852 83.5055 26.1052 85.4555 26.1052L88.0054 26.1052L87.9955 14.1052C87.9955 9.34523 85.6755 6.82523 81.2855 6.82523L81.2855 6.82523C78.5355 6.82523 76.7755 8.04523 75.7955 9.08523L75.4655 9.41523L75.3555 8.96523C75.0655 7.85523 74.0955 7.24523 72.6255 7.24523L70.2055 7.24523L70.2254 26.1052L75.5854 26.1052L75.5854 17.4152C75.5854 16.5652 75.6954 15.8252 75.9255 15.1552C76.5154 13.1152 78.1855 11.8452 80.2654 11.8452C81.9454 11.8452 82.5955 12.7352 82.5955 15.0252Z M64.2862 7.25365Z M67.1062 26.1036L67.1162 10.1136C67.1162 8.18365 66.1962 7.25365 64.2962 7.25365L64.2862 7.25365L61.7462 7.25365L61.7662 21.8336L61.7662 21.8336L61.7662 26.1036L64.4762 26.1036C64.5162 26.1036 64.5362 26.1136 64.5762 26.1136L65.8362 26.1036L67.0962 26.1036L67.0962 26.1036L67.1062 26.1036Z M30.9011 21.836Z M30.9011 21.836C33.6511 21.836 35.5011 19.736 35.5011 16.636C35.5011 13.576 33.6011 11.436 30.9011 11.436C28.2111 11.436 26.3411 13.576 26.3411 16.636C26.3411 19.686 28.2111 21.836 30.9011 21.836L30.9011 21.836Z M30.9047 6.86707Z M30.9047 26.3971C36.6147 26.3971 40.7647 22.2871 40.7647 16.6371C40.7647 10.9771 36.6147 6.86707 30.9047 6.86707C25.2047 6.86707 21.0747 10.9771 21.0747 16.6371C21.0747 22.2871 25.2047 26.3971 30.9047 26.3971Z " /></g></g><g opacity="1" transform="translate(109.39260864257812 7.600677490234375)  rotate(0 32.974395751953125 13.326213836669922)"><g opacity="1" transform="translate(0 0)  rotate(0 32.974395751953125 13.326213836669922)"><g opacity="1" transform="translate(0 0)  rotate(0 32.974395751953125 13.326213836669922)"><path id="Vector" fill-rule="evenodd" style="fill:#499FDD" transform="translate(46.2562255859375 0.084136962890625)  rotate(0 9.846282958984375 9.765087127685545)" opacity="1" d="M9.82493 14.969Z M9.82493 14.969C12.5749 14.969 14.4249 12.869 14.4249 9.76897C14.4249 6.70897 12.5349 4.56897 9.82493 4.56897C7.13493 4.56897 5.26493 6.70897 5.26493 9.76897C5.26493 12.819 7.13493 14.969 9.82493 14.969L9.82493 14.969Z M9.83 0Z M9.83 19.53C15.54 19.53 19.69 15.42 19.69 9.77C19.69 4.11 15.54 0 9.83 0C4.13 0 0 4.11 0 9.77C0 15.42 4.13 19.53 9.83 19.53Z " /><path id="Vector" fill-rule="evenodd" style="fill:#273B7D" transform="translate(0 0)  rotate(0 9.21284484863281 13.32621383666992)" opacity="1" d="M9.45263 14.2231Z M13.1426 9.43308C13.1426 5.23308 10.8726 4.74308 9.17264 4.74308C5.74264 4.74308 5.47264 8.19308 5.47264 9.25308C5.47264 11.6531 6.51264 14.2231 9.45263 14.2231C11.1326 14.2231 13.1426 13.3931 13.1426 9.43308Z M13.74 1.57L13.59 1.86L13.34 1.64C12.47 0.89 10.92 0 8.4 0C3.38 0 0 3.78 0 9.39C0 15 3.5 18.93 8.5 18.93C10.21 18.93 11.56 18.53 12.63 17.71L13.04 17.4L13.04 17.93C13.04 20.45 11.42 21.84 8.47 21.84C7.03 21.84 5.73 21.49 4.86 21.17C3.72 20.83 3.05 21.11 2.59 22.25L2.16 23.31L1.56 24.85L1.94 25.05C3.82 26.05 6.28 26.65 8.5 26.65C13.07 26.65 18.41 24.31 18.41 17.71L18.43 0.42L15.93 0.42L15.93 0.42C14.91 0.42 14.13 0.83 13.74 1.57Z " /></g></g></g><g opacity="1" transform="translate(0 0.8280258178710938)  rotate(0 102.78288269042969 13.257705688476562)"><g opacity="1" transform="translate(0 0)  rotate(0 102.78288269042969 13.257705688476562)"><path id="Vector" fill-rule="evenodd" style="fill:#273B7D" transform="translate(0 0)  rotate(0 9.00168991088867 13.00315856933594)" opacity="1" d="M9.36774 21.6063Z M12.8677 18.0563C12.8677 15.8763 11.4977 14.5363 9.36774 14.5363L6.38774 14.5363C5.42774 14.6663 4.99774 15.2563 4.99774 16.3663L4.99774 21.5963L9.36774 21.6063C11.5277 21.6063 12.8677 20.2863 12.8677 18.0563Z M4.99774 7.49433Z M4.99774 10.5143L8.92774 10.5143C11.1377 10.5143 11.9277 8.80433 11.9277 7.33433C11.9277 5.41433 10.7777 4.26433 8.85774 4.26433L6.62774 4.26433C5.50774 4.33433 4.99774 4.91433 4.99774 6.11433L4.99774 7.49433L4.99774 10.5143Z M2.64 0C1.18 0.05 0.02 1.24 0 2.71L0 26.01L2.58 26.01C2.58 26.01 2.59 26.01 2.59 26.01L9.01 26.01C14.47 26.01 18 23.02 18 18.41C18 15.92 16.86 13.79 14.95 12.71L14.95 12.71L14.16 12.27L14.85 11.68C15.65 10.99 16.99 9.44 16.99 6.75C16.99 2.65 13.81 0 8.89 0L3.28 0L3.28 0L2.64 0Z " /><path id="Vector" fill-rule="evenodd" style="fill:#499FDD" transform="translate(137.05068969726562 6.876274108886719)  rotate(0 34.257537841796875 9.819568634033205)" opacity="1" d="M51.7509 8.08L51.7509 19.21L56.9109 19.21L56.9109 10.92C56.9109 10.01 56.9909 9.33 57.2009 8.65C57.6109 6.74 59.0209 4.78 61.2009 4.78C62.7709 4.78 63.3609 5.67 63.3609 8.08L63.3609 16.47C63.3609 18.37 64.2009 19.21 66.1009 19.21L68.5109 19.21L68.5109 7.22C68.5109 2.43 66.4109 0 62.2609 0C60.0409 0 57.8909 1.04 56.5009 2.8L56.1109 3.29L55.8109 2.74C54.8209 0.92 53.1009 0 50.7309 0C48.2309 0 46.5609 1.39 45.7809 2.22L45.2709 2.77L45.0809 2.05C44.7909 1 43.8609 0.43 42.4609 0.43L40.2009 0.43L40.1809 19.21L45.3109 19.21L45.3109 10.92C45.3109 10.2 45.4009 9.48 45.5809 8.72C46.0709 6.72 47.4109 4.57 49.6709 4.78C51.0709 4.92 51.7509 5.99 51.7509 8.08Z M62.2709 0Z M62.2709 0L62.2609 0C62.2609 0 62.2609 0 62.2609 0C62.2709 0 62.2709 0 62.2709 0Z M18 16.2602L18.15 16.0702L15.92 12.3802L15.63 12.6902L15.63 12.6902C15.62 12.7102 13.41 15.0402 10.51 15.0402C7.86 15.0402 5.19 13.4102 5.19 9.78022C5.19 6.65022 7.26 4.46022 10.23 4.46022C11.19 4.46022 12.29 4.81022 12.46 5.39022L12.48 5.49022C12.88 6.80022 14.07 6.87022 14.31 6.87022L17.12 6.88022L17.12 4.42022C17.12 1.18022 13 0.000219345 10.23 0.000219345C4.3 0.000219345 0 4.13022 0 9.82022C0 15.5102 4.25 19.6402 10.12 19.6402C15.21 19.6402 17.97 16.2902 18 16.2602Z " /></g></g></g></svg>