<svg xmlns="http://www.w3.org/2000/svg" xmlns:xlink="http://www.w3.org/1999/xlink" width="206" height="32" viewBox="0 0 206 32" fill="none"><defs><linearGradient id="linear_0" x1="50%" y1="2.220446049250313e-14%" x2="51%" y2="100%" gradientUnits="objectBoundingBox"><stop offset="0" stop-color="#FFBA00" stop-opacity="1" /><stop offset="1" stop-color="#FF2E00" stop-opacity="1" /></linearGradient><linearGradient id="linear_1" x1="50.00052452087402%" y1="0%" x2="51.00052452087402%" y2="100%" gradientUnits="objectBoundingBox"><stop offset="0" stop-color="#FFBA00" stop-opacity="1" /><stop offset="1" stop-color="#FF2E00" stop-opacity="1" /></linearGradient><linearGradient id="linear_2" x1="50.000303983688354%" y1="0%" x2="51.000303983688354%" y2="100%" gradientUnits="objectBoundingBox"><stop offset="0" stop-color="#FF30AE" stop-opacity="1" /><stop offset="1" stop-color="#D1003A" stop-opacity="1" /></linearGradient><linearGradient id="linear_3" x1="50.00052452087402%" y1="2.220446049250313e-14%" x2="51.00052452087402%" y2="100%" gradientUnits="objectBoundingBox"><stop offset="0" stop-color="#FF30AE" stop-opacity="1" /><stop offset="1" stop-color="#D1003A" stop-opacity="1" /></linearGradient><linearGradient id="linear_4" x1="50.00052452087402%" y1="0%" x2="51.00052452087402%" y2="100%" gradientUnits="objectBoundingBox"><stop offset="0" stop-color="#FF30AE" stop-opacity="1" /><stop offset="1" stop-color="#D1003A" stop-opacity="1" /></linearGradient><linearGradient id="linear_5" x1="49.999698996543884%" y1="0%" x2="50.999698996543884%" y2="100%" gradientUnits="objectBoundingBox"><stop offset="0" stop-color="#00D7E5" stop-opacity="1" /><stop offset="1" stop-color="#0066AE" stop-opacity="1" /></linearGradient><linearGradient id="linear_6" x1="50.00052452087402%" y1="2.220446049250313e-14%" x2="51.00052452087402%" y2="100%" gradientUnits="objectBoundingBox"><stop offset="0" stop-color="#00D7E5" stop-opacity="1" /><stop offset="1" stop-color="#0066AE" stop-opacity="1" /></linearGradient></defs><g opacity="1" transform="translate(0 0)  rotate(0 102.78250122070312 15.940776824951172)"><path id="Vector" fill-rule="evenodd" fill="url(#linear_0)" transform="translate(183.07763671875 9.359375)  rotate(0 11.243682861328125 11.260986328125)" opacity="1" d="M22.49 11.28Z M11.22 0C3.7 0 0 5.04 0 11.28C0 17.48 3.94 22.52 11.22 22.52C18.85 22.52 22.49 17.48 22.49 11.28C22.49 5.04 18.85 0 11.22 0Z M16.6453 11.282Z M5.8453 11.282C5.8453 15.172 8.4953 16.242 11.2253 16.242C13.9953 16.242 16.6453 15.172 16.6453 11.282C16.6453 7.392 13.9953 6.282 11.2253 6.282C8.4953 6.282 5.8453 7.392 5.8453 11.282Z " /><path id="Vector" fill-rule="evenodd" fill="url(#linear_1)" transform="translate(158.13525390625 0)  rotate(0 11.24378204345703 15.94077682495117)" opacity="1" d="M0 20.64Z M17.07 0C16.81 0 16.64 0.17 16.64 0.43L16.64 10.73C15.02 9.87 13.18 9.36 11.22 9.36C5.04 9.36 0 14.4 0 20.64C0 26.84 5.04 31.88 11.22 31.88C17.45 31.88 22.49 26.84 22.49 20.64L22.49 0.43C22.49 0.17 22.27 0 22.06 0L17.07 0Z M11.2258 25.6016Z M11.2258 15.6416C8.49576 15.6416 5.84576 16.7516 5.84576 20.6416C5.84576 24.5316 8.48576 25.6016 11.2258 25.6016C13.9958 25.6016 16.6458 24.5316 16.6458 20.6416C16.6458 16.7516 13.9958 15.6416 11.2258 15.6416Z " /><path id="Vector" fill-rule="evenodd" fill="url(#linear_2)" transform="translate(66.59619140625 9.359375)  rotate(0 19.564453125 11.260986328125)" opacity="1" d="M33.28 11.28C33.28 7.39 30.64 6.28 27.86 6.28C25.13 6.28 22.49 7.39 22.49 11.28L22.49 22.09C22.49 22.35 22.27 22.52 22.06 22.52L17.07 22.52C16.81 22.52 16.64 22.35 16.64 22.09L16.64 11.28C16.64 7.39 14 6.28 11.22 6.28C8.49 6.28 5.85 7.39 5.85 11.28L5.85 22.09C5.85 22.35 5.63 22.52 5.42 22.52L0.43 22.52C0.17 22.52 0 22.35 0 22.09L0 11.28C0 5.04 3.93 0 11.22 0C14.55 0 17.49 1.41 19.54 3.67C21.63 1.41 24.58 0 27.86 0C35.17 0 39.13 5.04 39.13 11.28L39.13 22.09C39.13 22.35 38.92 22.52 38.7 22.52L33.71 22.52C33.45 22.52 33.28 22.35 33.28 22.09L33.28 11.28Z" /><path id="Vector" fill-rule="evenodd" fill="url(#linear_3)" transform="translate(108.24755859375 9.359375)  rotate(0 11.243797302246096 11.260986328125)" opacity="1" d="M22.49 11.28Z M11.22 0C3.7 0 0 5.04 0 11.28C0 17.48 3.94 22.52 11.22 22.52C18.85 22.52 22.49 17.48 22.49 11.28C22.49 5.04 18.85 0 11.22 0Z M16.6455 11.282Z M5.84554 11.282C5.84554 15.172 8.49554 16.242 11.2255 16.242C13.9955 16.242 16.6455 15.172 16.6455 11.282C16.6455 7.392 13.9955 6.282 11.2255 6.282C8.49554 6.282 5.84554 7.392 5.84554 11.282Z " /><path id="Vector" fill-rule="evenodd" fill="url(#linear_4)" transform="translate(133.19140625 9.359375)  rotate(0 11.24378204345703 11.260986328125)" opacity="1" d="M22.06 22.52L17.07 22.52C16.81 22.52 16.64 22.35 16.64 22.09L16.64 11.28C16.64 7.39 14 6.28 11.22 6.28C8.49 6.28 5.85 7.39 5.85 11.28L5.85 22.09C5.85 22.35 5.63 22.52 5.42 22.52L0.43 22.52C0.17 22.52 0 22.35 0 22.09L0 11.28C0 5.04 3.77 0 11.22 0C18.69 0 22.49 5.04 22.49 11.28L22.49 22.09C22.49 22.35 22.27 22.52 22.06 22.52Z" /><path id="Vector" fill-rule="evenodd" fill="url(#linear_5)" transform="translate(0 9.359375)  rotate(0 19.564449310302734 11.260986328125)" opacity="1" d="M11.22 0C14.55 0 17.49 1.41 19.54 3.67C21.63 1.41 24.58 0 27.86 0C35.17 0 39.13 5.04 39.13 11.28L39.13 22.09C39.13 22.35 38.92 22.52 38.7 22.52L33.71 22.52C33.45 22.52 33.28 22.35 33.28 22.09L33.28 11.28C33.28 7.39 30.64 6.28 27.86 6.28C25.13 6.28 22.49 7.39 22.49 11.28L22.49 22.09C22.49 22.35 22.27 22.52 22.06 22.52L17.07 22.52C16.81 22.52 16.64 22.35 16.64 22.09L16.64 11.28C16.64 7.39 14 6.28 11.22 6.28C8.49 6.28 5.85 7.39 5.85 11.28L5.85 22.09C5.85 22.35 5.63 22.52 5.42 22.52L0.43 22.52C0.17 22.52 0 22.35 0 22.09L0 11.28C0 5.04 3.93 0 11.22 0Z" /><path id="Vector" fill-rule="evenodd" fill="url(#linear_6)" transform="translate(41.65185546875 9.359375)  rotate(0 11.24379348754883 11.260986328125)" opacity="1" d="M22.49 11.28Z M11.22 0C3.7 0 0 5.04 0 11.28C0 17.48 3.94 22.52 11.22 22.52C18.85 22.52 22.49 17.48 22.49 11.28C22.49 5.04 18.85 0 11.22 0Z M16.6455 11.282Z M5.84554 11.282C5.84554 15.172 8.49554 16.242 11.2255 16.242C13.9955 16.242 16.6455 15.172 16.6455 11.282C16.6455 7.392 13.9955 6.282 11.2255 6.282C8.49554 6.282 5.84554 7.392 5.84554 11.282Z " /></g></svg>