<svg xmlns="http://www.w3.org/2000/svg" xmlns:xlink="http://www.w3.org/1999/xlink" width="206" height="45" viewBox="0 0 206 45" fill="none"><g opacity="1" transform="translate(0 0)  rotate(0 102.78306579589844 22.253807067871094)"><path id="Vector" fill-rule="evenodd" style="fill:#48D5B5" transform="translate(0 0)  rotate(0 102.78306579589845 22.253807067871094)" opacity="1" d="M197.884 25.7544Z M184.744 25.7544L197.884 25.7544C197.744 22.8144 195.924 20.0144 191.314 20.0144C187.264 20.0144 185.024 23.0944 184.744 25.7544Z M205.288 35.2662Z M191.868 37.6462C188.098 37.6462 184.748 34.9862 184.608 31.0762L205.428 31.0762C205.428 31.0762 205.568 29.8162 205.568 28.6962C205.568 19.3162 200.118 13.5762 191.168 13.5762C183.768 13.5762 176.918 19.7362 176.918 28.9762C176.918 38.7662 184.048 44.5062 192.008 44.5062C199.138 44.5062 203.748 40.3062 205.288 35.2662L198.438 33.1662C197.598 35.8262 195.508 37.6462 191.868 37.6462Z M154.563 26.8762Z M154.563 43.3862L154.563 26.8762C154.563 23.5162 156.513 20.8562 160.013 20.8562C163.783 20.8562 165.463 23.3762 165.463 26.5962L165.463 43.5262L173.283 43.5262L173.283 25.1962C173.283 18.7562 169.933 13.5762 162.803 13.5762C159.733 13.5762 156.233 14.9762 154.423 17.9162L154.423 14.2762L146.733 14.2762L146.733 43.3862L154.563 43.3862Z M134.016 14.416Z M134.016 43.526L141.846 43.526L141.846 14.416L134.016 14.416L134.016 43.526Z M137.928 -6.21552e-16Z M133.038 4.9C133.038 7.42 135.278 9.66 137.928 9.66C140.728 9.66 142.818 7.56 142.818 4.9C142.818 2.24 140.588 -6.21552e-16 137.928 -6.21552e-16C135.278 -6.21552e-16 133.038 2.24 133.038 4.9Z M94.1929 26.8762Z M94.1929 43.3862L94.1929 26.8762C94.1929 23.5162 96.1429 20.8562 99.6429 20.8562C103.413 20.8562 105.093 23.3762 105.093 26.5962L105.093 43.5262L112.913 43.5262L112.913 25.1962C112.913 18.7562 109.563 13.5762 102.433 13.5762C99.3629 13.5762 95.8629 14.9762 94.0529 17.9162L94.0529 14.2762L86.3629 14.2762L86.3629 43.3862L94.1929 43.3862Z M73.3666 14.416Z M73.3666 43.526L81.1966 43.526L81.1966 14.416L73.3666 14.416L73.3666 43.526Z M77.1386 -6.21552e-16Z M72.2486 4.9C72.2486 7.42 74.4886 9.66 77.1386 9.66C79.9386 9.66 82.0286 7.56 82.0286 4.9C82.0286 2.24 79.7986 -6.21552e-16 77.1386 -6.21552e-16C74.4886 -6.21552e-16 72.3886 2.24 72.2486 4.9Z M54.7772 38.6315Z M61.2072 31.9115L61.2072 30.6515L54.6372 31.6315C52.5472 31.9115 51.0072 33.0315 51.0072 35.2715C51.0072 36.9515 52.2672 38.6315 54.7772 38.6315C58.1372 38.6315 61.2072 36.9515 61.2072 31.9115Z M43.1815 35.6862Z M61.2115 23.7962C61.2115 24.7762 60.6515 25.6162 58.9715 25.8962L51.8415 27.0162C46.9515 27.5762 43.1815 30.5162 43.1815 35.6862C43.1815 40.3062 46.9515 44.5062 53.2415 44.5062C57.5715 44.5062 60.3715 42.5462 61.7715 40.1662C61.7715 41.2862 61.9115 42.8262 62.0515 43.6662L69.3115 43.6662C69.1715 42.6862 68.8915 40.5862 68.8915 39.0462L68.8915 24.6362C68.8915 18.7562 65.4015 13.5762 56.1815 13.5762C48.3515 13.5762 44.1615 18.6162 43.7415 23.2362L50.7315 24.7762C51.0115 22.2562 52.8215 20.0162 56.3215 20.0162C59.6715 20.0162 61.2115 21.6962 61.2115 23.7962Z M40.8081 22.2561Z M23.0581 14.4161L23.0581 43.5261L30.8881 43.5261L30.8881 30.2361C30.8881 23.9361 34.3781 21.9761 38.4281 21.9761C39.1281 21.9761 39.9681 22.1161 40.8081 22.2561L40.8081 14.2761C40.2481 14.1361 39.6881 14.1361 38.9881 14.1361C36.4781 14.1361 32.5581 14.8361 30.7481 18.7561L30.7481 14.4161L23.0581 14.4161Z M18.7225 14.8359Z M14.9525 14.8359C14.2525 16.9359 13.2725 18.6159 11.8825 20.0159C11.1825 20.5759 10.4825 21.2759 9.64246 21.6959L18.7225 21.6959L18.7225 14.8359L14.9525 14.8359Z M2.24 21.6959Z M8.8 19.8759C10.62 18.6159 11.88 16.9359 12.72 14.8359L0 14.8359L0 21.6959L2.24 21.6959C4.89 21.5559 7.13 20.9959 8.8 19.8759Z M16.3503 37.0935Z M18.7303 43.3835L18.7303 36.8135C18.3103 36.9535 17.3303 37.0935 16.3503 37.0935C14.1103 37.0935 13.0003 36.2535 13.0003 33.8735L13.0003 23.5135L5.31034 23.5135L5.31034 35.1335C5.31034 40.7335 8.80034 44.0835 14.3903 44.0835C16.6303 44.0835 18.0303 43.6635 18.7303 43.3835Z M13.0006 13.0183Z M6.0106 6.15829L6.0106 10.2183C6.0106 11.3383 5.7306 12.3183 5.1706 13.0183L13.0006 13.0183L13.0006 6.15829L6.0106 6.15829Z M129.687 37.0897Z M128.287 37.0897C126.047 37.0897 124.937 36.2497 124.937 33.7297L124.937 1.25965L117.247 1.25965L117.247 35.1297C117.247 40.7297 120.737 44.0897 126.327 44.0897C127.727 44.0897 128.847 43.9496 129.687 43.6697L129.687 37.0897L128.287 37.0897Z " /></g></svg>