<svg xmlns="http://www.w3.org/2000/svg" xmlns:xlink="http://www.w3.org/1999/xlink" width="206" height="28" viewBox="0 0 206 28" fill="none"><g opacity="1" transform="translate(0 0.0001983642578125)  rotate(0 102.79032897949219 13.690818786621094)"><path id="Vector" fill-rule="evenodd" style="fill:#1B69BC" transform="translate(0 0)  rotate(0 102.7903289794922 13.690818786621096)" opacity="1" d="M129.254 26.13Z M135.104 22.25L135.104 15.78L146.754 15.78L146.754 11.22L135.104 11.22L135.104 5.06C135.104 5.06 137.384 4.64 140.794 4.64C144.634 4.64 148.084 5.25 148.084 5.25L148.084 0.65C148.084 0.65 145.054 0 140.114 0C133.544 0 129.254 1.18 129.254 1.18L129.254 26.13C129.254 26.13 133.774 27.38 139.544 27.38C145.694 27.38 148.544 26.7 148.544 26.7L148.544 22.13C148.544 22.13 145.464 22.74 141.174 22.74C137.414 22.74 135.104 22.25 135.104 22.25Z M45.9479 15.74Z M35.1279 0C34.2479 0 32.4679 0.11 32.4679 0.11L29.8079 27L35.6979 27L36.9879 8.98L42.5679 22.63C42.9879 23.69 43.8179 24.11 45.4879 24.11C47.1579 24.11 47.9979 23.69 48.4179 22.63L53.9979 8.98L55.2879 27L61.1679 27L58.5179 0.11C58.5179 0.11 56.7279 0 55.8579 0C53.3479 0 51.9879 0.27 51.1079 2.47L45.9479 15.74C45.7979 16.12 45.6079 16.85 45.4879 17.27C45.3779 16.85 45.1879 16.12 45.0379 15.74L39.8679 2.47C38.9979 0.27 37.6279 0 35.1279 0Z M16.4763 21.2604Z M16.4763 15.2504L10.2863 15.4804C6.94634 15.5904 5.69634 16.9204 5.69634 19.2404C5.69634 21.9104 7.51634 22.7404 9.94634 22.7404C12.1863 22.7404 15.2263 21.7504 16.4763 21.2604L16.4763 15.2504Z M12.99 0Z M16.67 25.37C16.94 25.37 17.92 26.43 22.33 26.43L22.33 7.8C22.33 2.21 18.87 0 12.99 0C7.75 0 3.65 1.29 2.05 2.09L3.3 6.5C3.3 6.5 7.33 5.06 11.28 5.06C14.66 5.06 16.4 6.01 16.4 9.36L16.4 11.26L11.28 11.26C2.58 11.26 0 15.25 0 19.66C0 25.52 4.56 27.38 8.7 27.38C13.52 27.38 16.33 25.37 16.67 25.37Z M83.457 21.2604Z M83.457 15.2504L77.267 15.4804C73.927 15.5904 72.677 16.9204 72.677 19.2404C72.677 21.9104 74.497 22.7404 76.927 22.7404C79.167 22.7404 82.207 21.7504 83.457 21.2604L83.457 15.2504Z M79.971 0Z M79.971 0C74.731 0 70.6311 1.29 69.0311 2.09L70.2811 6.5C70.2811 6.5 74.3111 5.06 78.261 5.06C81.6411 5.06 83.3811 6.01 83.3811 9.36L83.3811 11.26L78.261 11.26C69.5611 11.26 66.981 15.25 66.981 19.66C66.981 25.52 71.541 27.38 75.681 27.38C80.5011 27.38 83.3111 25.37 83.651 25.37C83.9211 25.37 84.901 26.43 89.3111 26.43L89.3111 7.8C89.3111 2.21 85.8511 0 79.971 0Z M173.112 20.3082Z M161.192 16.1282L161.192 0.228239L160.312 0.228239C158.982 0.228239 156.022 0.458239 155.302 0.608239L155.302 16.8882C155.302 23.9982 157.052 27.3782 164.262 27.3782C169.772 27.3782 172.992 25.2482 173.222 25.2482C173.302 25.2482 175.202 26.4282 179.002 26.4282L179.002 0.608239C178.582 0.528239 175.732 0.228239 174.282 0.228239L173.112 0.228239L173.112 20.3082C171.702 20.9882 168.672 22.1382 165.892 22.1382C161.872 22.1382 161.192 20.3082 161.192 16.1282Z M185.95 26.43Z M203.08 6.24L204.56 1.86C203.57 1.37 200.34 0 195.86 0C191 0 186.25 2.59 186.25 7.8C186.25 13.16 191.11 14.79 194.91 16.05C197.49 16.92 199.66 17.84 199.66 19.55C199.66 21.22 198.75 22.67 194.38 22.67C190.81 22.67 187.01 21.87 187.01 21.87L185.95 26.43C185.95 26.43 189.6 27.38 194.68 27.38C199.51 27.38 205.58 25.75 205.58 19.21C205.58 14.95 202.43 13.12 197.3 11.26C194.53 10.23 192.18 9.32 192.18 7.42C192.18 6.5 192.86 4.72 196.39 4.72C199.7 4.72 203.08 6.24 203.08 6.24Z M103.737 5.09987Z M103.737 22.4399C103.737 22.4399 105.787 22.7399 107.877 22.7399C114.367 22.7399 116.007 19.7799 116.007 13.4999C116.007 7.03987 112.657 4.63987 108.407 4.63987C106.547 4.63987 104.687 4.90987 103.737 5.09987L103.737 22.4399Z M108.672 0Z M97.8518 26.58C100.202 27.08 104.612 27.38 107.692 27.38C118.162 27.38 122.232 23.27 122.232 13.5C122.232 5.06 117.062 0 108.672 0C105.332 0 100.702 0.57 97.8518 1.6L97.8518 26.58Z " /></g></svg>