<svg xmlns="http://www.w3.org/2000/svg" xmlns:xlink="http://www.w3.org/1999/xlink" width="600" height="428" viewBox="0 0 600 428" fill="none"><g opacity="1" transform="translate(-0.00002288818359375 0.000014936219031369546)  rotate(0 300.0000287742931 213.9831010523983)"><path id="Path 1" fill-rule="evenodd" style="fill:#FFFFFF" transform="translate(32.859020233154325 5.851609075774348)  rotate(0 71.34418487548827 97.22613525390625)" opacity="1" d="M142.69 141.56L58.29 194.45L0 68.42L66.39 0L142.69 141.56Z" /><path id="Path 2" fill-rule="evenodd" style="fill:#0EAD69" transform="translate(34.370916556882094 156.59310945342938)  rotate(0 23.21322145483532 30.182647705078125)" opacity="1" d="M14.43 59.47L46.43 59.47L46.43 60.37L14.42 60.37C10.76 60.31 7.88 59.63 5.68 58.41C3.46 57.19 1.96 55.45 1.06 53.31C-0.72 49.07 -0.12 43.32 1.82 37.09C5.71 24.59 15.09 9.75 22.57 0L23.28 0.55C15.83 10.26 6.53 25.01 2.68 37.35C0.76 43.54 0.24 49.02 1.89 52.96C2.72 54.92 4.08 56.51 6.11 57.62C8.15 58.75 10.87 59.41 14.43 59.47Z" /><path id="Path 3" fill-rule="evenodd" style="fill:#0EAD69" transform="translate(93.6251370698048 204.58009003841104)  rotate(0 19.46134198755854 6.275117800770886)" opacity="1" d="M5.61 0.97C3.7 1.21 2.53 2.05 1.83 3.18C1.11 4.33 0.85 5.83 0.91 7.42C0.96 9 1.32 10.63 1.78 12.01L0.93 12.3C0.44 10.86 0.06 9.14 0.01 7.45C-0.05 5.76 0.22 4.06 1.06 2.7C1.92 1.33 3.35 0.35 5.49 0.08C7.62 -0.19 10.44 0.23 14.16 1.59C28.87 7 36.79 10.61 38.92 11.76L38.5 12.55C36.42 11.44 28.55 7.84 13.85 2.44C10.2 1.1 7.53 0.73 5.61 0.97Z" /><path id="Path 4" fill-rule="evenodd" style="fill:#3BCEAC" transform="translate(30.15829849243167 71.34441432853279)  rotate(0 31.2833720954376 65.0424354140369)" opacity="1" d="M62.34 126.46C63.49 129.93 60.03 131.66 56.57 128.19C54.19 125.81 8.08 73.79 0 5.49C0 5.49 2.31 -2.61 4.62 0.86C21.36 30.38 62.34 126.46 62.34 126.46Z" /><path id="Path 5" fill-rule="evenodd" style="fill:#AA5D38" transform="translate(30.15829849243167 214.48274263214032)  rotate(0 4.726272583007798 106.45361328125)" opacity="1" d="M9.45 212.91L0 212.91L0 0L9.45 0L9.45 212.91Z" /><path id="Path 6" fill-rule="evenodd" style="fill:#8A5034" transform="translate(28.807933807373075 223.03504976104657)  rotate(0 4.726272583007798 22.055938720703125)" opacity="1" d="M9.45 44.11L0 44.11L0 0L9.45 0L9.45 44.11Z" /><path id="Path 7" fill-rule="evenodd" style="fill:#AA5D38" transform="translate(162.49390411376953 218.08369478057782)  rotate(0 5.1763916015625 104.65316772460938)" opacity="1" d="M10.35 209.31L0 209.31L0 0L10.35 0L10.35 209.31Z" /><path id="Path 8" fill-rule="evenodd" style="fill:#8A5034" transform="translate(163.39412689208984 223.03504976104657)  rotate(0 4.7262725830078125 22.055938720703125)" opacity="1" d="M9.45 44.11L0 44.11L0 0L9.45 0L9.45 44.11Z" /><path id="Path 9" fill-rule="evenodd" style="fill:#C17754" transform="translate(22.956357955932646 216.73335298370282)  rotate(0 92.27481842041014 8.1021728515625)" opacity="1" d="M184.55 16.2L0 16.2L0 0L184.55 0L184.55 16.2Z" /><path id="Path 10" fill-rule="evenodd" style="fill:#C17754" transform="translate(323.86229705810547 278.6749728567497)  rotate(0 55.5897216796875 13.953765869140625)" opacity="1" d="M0 13.95C0 6.25 24.89 0 55.59 0C86.29 0 111.18 6.25 111.18 13.95C111.18 21.66 86.29 27.91 55.59 27.91C24.89 27.91 0 21.66 0 13.95Z" /><path id="Path 11" fill-rule="evenodd" style="fill:#8A5034" transform="translate(323.86229705810547 278.6749728567497)  rotate(0 42.1988525390625 13.701934814453125)" opacity="1" d="M43.21 17.55C35.83 17.73 38.49 24.2 40.74 27.4C17.25 25.77 0 20.37 0 13.95C0 6.25 24.89 0 55.59 0C66.14 0 76 0.74 84.4 2.02C83.72 15.29 52.44 17.33 43.21 17.55Z" /><path id="Path 12" fill-rule="evenodd" style="fill:#C17754" transform="translate(366.39876556396484 305.08222993682784)  rotate(0 13.053497314453125 50.63909912109375)" opacity="1" d="M2.7 101.28C1.21 101.28 0 100.07 0 98.58L0 0L26.11 0L26.11 98.58C26.11 100.07 24.9 101.28 23.41 101.28L2.7 101.28Z" /><path id="Path 13" fill-rule="evenodd" style="fill:#8A5034" transform="translate(366.35823822021484 305.2321017629997)  rotate(0 13.068817138671875 30.4957275390625)" opacity="1" d="M26.14 17.78C17.44 18.31 0 27.68 0 60.99L0 0L26.14 0L26.14 17.78Z" /><path id="Path 14" fill-rule="evenodd" style="fill:#8A5034" transform="translate(366.40193939208984 387.4543918020622)  rotate(0 13.16448974609375 13.053985595703125)" opacity="1" d="M0 12.6C7.8 12.9 24.17 10.8 26.33 0L26.33 26.11L0 26.11L0 12.6Z" /><path id="Path 15" fill-rule="evenodd" style="fill:#8A5034" transform="translate(355.14571380615234 412.9861300833122)  rotate(0 24.08148193359375 3.3758544921875)" opacity="1" d="M48.16 6.75L0 6.75L0 0L48.16 0L48.16 6.75Z" /><path id="Path 16" fill-rule="evenodd" style="fill:#8A5034" transform="translate(347.49364471435547 419.73799165557784)  rotate(0 31.733551025390625 3.3758544921875)" opacity="1" d="M63.47 6.75L0 6.75L0 0L63.47 0L63.47 6.75Z" /><path id="Path 17" fill-rule="evenodd" style="fill:#FB8F6A" transform="translate(247.34172821044922 379.72715791534347)  rotate(0 16.42938232421875 14.741241455078125)" opacity="1" d="M32.86 29.03L13.73 29.48L0 6.08C6.98 4.8 20.03 1.13 27.46 0C28.36 2.88 31.43 20.56 32.86 29.03Z" /><path id="Path 18" fill-rule="evenodd" style="fill:#E1512B" transform="translate(266.3786849975586 379.72715791534347)  rotate(0 6.2366943359375 10.57763671875)" opacity="1" d="M8.42 0C9.09 2.14 10.96 12.46 12.46 21.1C11.35 14.8 3.59 5.56 0 1.91C3.38 1.13 6.64 0.74 8.42 0Z" /><path id="Path 19" fill-rule="evenodd" style="fill:#0EAD69" transform="translate(215.24764251708984 411.6942904837024)  rotate(0 8.845367431640625 4.71728515625)" opacity="1" d="M17.69 0C17.06 3.46 13.5 8.12 13.37 9.43L0 7.47C0 5.9 6.37 1.26 17.69 0Z" /><path id="Path 20" fill-rule="evenodd" style="fill:#0EAD69" transform="translate(225.4519056802634 399.03149075619785)  rotate(0 29.33174769659996 11.126476581732732)" opacity="1" d="M55.04 7.2C57.05 6.3 59.09 12.83 58.59 21.7C53.24 22.33 16.92 22.36 0.02 22.1C-0.11 20.26 0.41 15.8 5.91 13.05C11.58 10.22 25.17 0.87 25.96 0.47C25.987 0.456659 26.0154 0.442394 26.0452 0.427441C26.8855 0.00525093 28.8178 -0.965567 31.86 2.83C35 6.77 41.98 13.05 55.04 7.2Z" /><path id="Path 21" fill-rule="evenodd" style="fill:#0EAD69" transform="translate(271.83968404724624 408.93956025909347)  rotate(0 6.198974226749556 6.105895996093523)" opacity="1" d="M0.02 12.21C-0.2 8.66 1.72 1.26 11.1 0C12.06 3.48 12.76 7.89 12.2 11.79C10.56 11.99 6.02 12.12 0.02 12.21Z" /><path id="Path 22" fill-rule="evenodd" style="fill:#FFFFFF" transform="translate(231.13961029052734 400.4952853567497)  rotate(0 12.553436279296875 10.5125732421875)" opacity="1" d="M0 21.03C0 20.03 0.1 18.54 0.35 17.2C0.47 16.53 0.63 15.89 0.84 15.36C1.05 14.84 1.32 14.39 1.67 14.16C3.56 12.89 17.93 4.19 24.87 0L25.11 0.38C18.16 4.58 3.8 13.27 1.92 14.53C1.69 14.69 1.46 15.03 1.26 15.52C1.07 16.02 0.91 16.63 0.79 17.28C0.55 18.59 0.45 20.05 0.45 21.03L0 21.03Z" /><path id="Path 23" fill-rule="evenodd" style="fill:#E7E6E6" transform="translate(213.88654726748086 417.90432545544036)  rotate(0 35.302757135370825 4.3037451550678725)" opacity="1" d="M70.55 3.22L70.55 7.15C55.61 8.33 23.06 9.9 1.36 6.76C-1 5.97 0.18 2.44 1.36 0.47C3.72 1.26 4.19 1.73 20.23 2.05C40.28 2.44 68.58 1.26 70.15 0.08C70.672 -0.311507 70.6283 0.823283 70.5798 2.08197C70.5651 2.46293 70.55 2.85523 70.55 3.22Z" /><path id="Path 24" fill-rule="evenodd" style="fill:#4CA0AB" transform="translate(233.71746063232422 420.14759858917205)  rotate(0 25.4140625 1.1242787468086135)" opacity="1" d="M50.6 0L50.83 0.39C50.32 0.68 49.37 0.93 48.12 1.13C46.85 1.34 45.24 1.51 43.37 1.65C39.63 1.93 34.84 2.09 29.7 2.18C19.4 2.34 7.67 2.19 0 1.99L0.01 1.54C7.67 1.74 19.41 1.89 29.69 1.73C34.83 1.64 39.61 1.48 43.34 1.2C45.2 1.06 46.8 0.89 48.05 0.69C49.3 0.48 50.17 0.25 50.6 0Z" /><path id="Path 25" fill-rule="evenodd" style="fill:#0EAD69" transform="translate(213.87084940169814 419.9494784719841)  rotate(0 9.926250561602103 3.1441040039064774)" opacity="1" d="M19.85 1.57L19.85 6.29C14.74 6.29 7.27 6.29 1.38 4.72C-0.59 4.19 -0.06 1.57 0.59 0C6.88 1.57 12.38 1.57 19.85 1.57Z" /><path id="Path 26" fill-rule="evenodd" style="fill:#FFFFFF" transform="translate(251.25102996826172 403.2815402395622)  rotate(0 15.661285400390625 3.9786040877201003)" opacity="1" d="M31.11 3.89L31.32 4.29C23.61 8.44 16.86 8.58 11.5 7.1C6.15 5.64 2.18 2.56 0 0.32L0.32 0C2.46 2.21 6.36 5.23 11.62 6.67C16.87 8.12 23.5 7.99 31.11 3.89Z" /><path id="Path 27" fill-rule="evenodd" style="fill:#D33041" transform="translate(231.73753231062778 410.86703349161735)  rotate(0 0.7970932407978353 1.1990594042460998)" opacity="1" d="M0.41 2.4C0.41 2.4 -0.11 0.56 0.02 0.43C0.15 0.3 1.2 -0.13 1.2 0.04C1.2 0.83 1.59 1.22 1.59 2.01L0.41 2.4Z" /><path id="Path 28" fill-rule="evenodd" style="fill:#D33041" transform="translate(235.68841619767363 408.5549918020338)  rotate(0 0.868742484837469 1.3715750000144453)" opacity="1" d="M0.39 2.74C0.39 2.74 -0.11 0.56 0.02 0.43C0.15 0.29 1.12 -0.12 1.2 0.03C1.20685 0.04389 1.21372 0.0577903 1.22058 0.0717007C1.58454 0.808895 1.96259 1.57463 1.57 2.35L0.39 2.74Z" /><path id="Path 29" fill-rule="evenodd" style="fill:#D33041" transform="translate(238.6804260796199 406.1902756791176)  rotate(0 1.0600517001802814 1.3746575487767814)" opacity="1" d="M0.02 0.43C0.15 0.3 1.16 -0.13 1.2 0.04C1.33 0.79 1.73 1.57 2.12 2.36L0.55 2.75C0.55 2.75 -0.11 0.56 0.02 0.43Z" /><path id="Path 30" fill-rule="evenodd" style="fill:#D33041" transform="translate(242.61182279927596 403.8316998820368)  rotate(0 0.9173837371170066 1.3746088994660681)" opacity="1" d="M0.55 2.75C0.55 2.75 -0.11 0.56 0.02 0.43C0.15 0.3 1.16 -0.13 1.2 0.04C1.24586 0.30456 1.37384 0.572854 1.50318 0.844002C1.74051 1.34153 1.98243 1.84867 1.73 2.36L0.55 2.75Z" /><path id="Path 31" fill-rule="evenodd" style="fill:#D33041" transform="translate(245.91569970373484 401.0487929189218)  rotate(0 1.3735824906618745 1.5867563507501359)" opacity="1" d="M1.17 3.17C1.17 3.17 -0.12 0.72 0.01 0.54C0.14 0.37 1.01 -0.13 1.17 0.03C1.57 0.42 2.35 1.72 2.75 2.78L1.17 3.17Z" /><path id="Path 32" fill-rule="evenodd" style="fill:#D33041" transform="translate(249.8399316463274 399.0693781708535)  rotate(0 0.9835185213187287 1.412920023612287)" opacity="1" d="M1.19 2.83C1.19 2.83 -0.12 0.76 0.01 0.59C0.14 0.42 1.08 -0.16 1.18 0.04C1.42 0.56 1.97 1.61 1.97 2.01L1.19 2.83Z" /><path id="Path 33" fill-rule="evenodd" style="fill:#FFFFFF" transform="translate(231.4835787320461 411.86985811065597)  rotate(0 1.2471451643661453 0.9183023310858971)" opacity="1" d="M0 1.05C-0.01 0.88 0.02 0.7 0.06 0.55L0.49 0.66C0.46 0.78 0.45 0.91 0.45 1.03C0.46 1.16 0.48 1.25 0.52 1.3C0.56 1.35 0.61 1.38 0.72 1.39C0.85 1.39 1.05 1.34 1.35 1.19C1.66 1.04 1.84 0.91 1.94 0.81C2.04 0.7 2.04 0.64 2.04 0.63C2.04 0.61 2.03 0.58 1.98 0.54C1.93 0.5 1.86 0.45 1.78 0.43L1.92 0C2.03 0.04 2.17 0.1 2.27 0.19C2.38 0.29 2.48 0.42 2.49 0.61C2.5 0.79 2.41 0.96 2.26 1.12C2.11 1.27 1.88 1.43 1.55 1.6C1.22 1.76 0.95 1.84 0.72 1.84C0.47 1.83 0.28 1.73 0.16 1.57C0.05 1.41 0.01 1.22 0 1.05Z" /><path id="Path 34" fill-rule="evenodd" style="fill:#FFFFFF" transform="translate(235.46358750717684 409.9073336965939)  rotate(0 1.2470657911262606 0.9161099068301155)" opacity="1" d="M2.49 0.6C2.5 0.79 2.41 0.96 2.26 1.12C2.11 1.27 1.88 1.43 1.55 1.59C1.22 1.76 0.95 1.84 0.72 1.83C0.47 1.83 0.28 1.73 0.16 1.57C0.05 1.41 0.01 1.22 0 1.05C-0.01 0.87 0.02 0.7 0.06 0.55L0.49 0.66C0.46 0.77 0.45 0.91 0.45 1.03C0.46 1.15 0.48 1.24 0.52 1.3C0.56 1.34 0.61 1.38 0.72 1.38C0.85 1.39 1.05 1.34 1.35 1.19C1.66 1.04 1.84 0.91 1.94 0.81C2.04 0.7 2.04 0.64 2.04 0.63C2.04 0.61 2.03 0.58 1.98 0.54C1.93 0.49 1.86 0.45 1.78 0.43L1.92 0C2.03 0.04 2.17 0.1 2.27 0.19C2.38 0.28 2.48 0.42 2.49 0.6Z" /><path id="Path 35" fill-rule="evenodd" style="fill:#FFFFFF" transform="translate(238.6080927518434 407.548691118468)  rotate(0 1.247332991256485 0.9160441133878976)" opacity="1" d="M2.26 1.12C2.11 1.27 1.88 1.43 1.55 1.59C1.22 1.76 0.95 1.84 0.72 1.83C0.47 1.83 0.28 1.73 0.16 1.57C0.05 1.41 0.01 1.22 0 1.05C-0.01 0.87 0.02 0.7 0.06 0.55L0.49 0.66C0.46 0.77 0.45 0.91 0.45 1.03C0.46 1.15 0.48 1.24 0.52 1.3C0.56 1.34 0.61 1.38 0.72 1.38C0.85 1.39 1.05 1.34 1.35 1.19C1.66 1.04 1.84 0.91 1.94 0.81C2.04 0.7 2.04 0.64 2.04 0.63C2.04 0.61 2.03 0.58 1.98 0.54C1.93 0.49 1.86 0.45 1.78 0.43L1.92 0C2.03 0.04 2.17 0.1 2.27 0.19C2.38 0.28 2.49 0.42 2.49 0.6C2.5 0.79 2.41 0.96 2.26 1.12Z" /><path id="Path 36" fill-rule="evenodd" style="fill:#FFFFFF" transform="translate(242.53947395111447 405.19007905792205)  rotate(0 1.247325396071119 0.9160488729876306)" opacity="1" d="M1.94 0.81C2.04 0.7 2.05 0.64 2.04 0.63C2.04 0.61 2.03 0.58 1.98 0.54C1.93 0.49 1.86 0.45 1.78 0.43L1.92 0C2.03 0.04 2.17 0.1 2.27 0.19C2.38 0.28 2.48 0.42 2.49 0.6C2.5 0.79 2.41 0.96 2.26 1.12C2.11 1.27 1.88 1.43 1.55 1.59C1.22 1.76 0.95 1.84 0.72 1.83C0.47 1.83 0.28 1.73 0.16 1.57C0.05 1.41 0.01 1.22 0 1.05C-0.01 0.87 0.02 0.7 0.06 0.55L0.49 0.66C0.46 0.77 0.45 0.91 0.45 1.03C0.46 1.15 0.48 1.24 0.52 1.3C0.56 1.34 0.61 1.38 0.72 1.38C0.85 1.39 1.05 1.34 1.35 1.19C1.66 1.04 1.84 0.91 1.94 0.81Z" /><path id="Path 37" fill-rule="evenodd" style="fill:#FFFFFF" transform="translate(246.4703624095206 402.83140596221824)  rotate(0 1.2471199394564678 0.9161099074871117)" opacity="1" d="M0.49 0.66C0.46 0.77 0.45 0.91 0.45 1.03C0.46 1.15 0.48 1.24 0.52 1.3C0.56 1.34 0.61 1.38 0.72 1.38C0.85 1.39 1.05 1.34 1.35 1.19C1.66 1.04 1.84 0.91 1.94 0.81C2.04 0.7 2.04 0.64 2.04 0.63C2.04 0.61 2.03 0.58 1.98 0.54C1.93 0.49 1.86 0.45 1.78 0.43L1.92 0C2.03 0.04 2.17 0.1 2.27 0.19C2.38 0.28 2.48 0.42 2.49 0.6C2.5 0.79 2.41 0.96 2.26 1.12C2.11 1.27 1.88 1.43 1.55 1.59C1.22 1.76 0.95 1.84 0.72 1.83C0.47 1.83 0.28 1.73 0.16 1.57C0.05 1.41 0.01 1.22 0 1.05C-0.01 0.87 0.02 0.7 0.06 0.55L0.49 0.66Z" /><path id="Path 38" fill-rule="evenodd" style="fill:#FFFFFF" transform="translate(250.28139822689286 400.4727939016716)  rotate(0 1.0864729252676852 0.9500077333356103)" opacity="1" d="M1.24 1.59Z M1.94 1.12C2.09 0.96 2.18 0.79 2.17 0.6C2.16 0.42 2.06 0.28 1.95 0.19C1.84 0.1 1.71 0.04 1.6 0L1.45 0.43C1.53 0.45 1.61 0.49 1.66 0.54C1.71 0.58 1.72 0.61 1.72 0.63C1.72 0.64 1.72 0.7 1.62 0.81C1.52 0.91 1.33 1.04 1.03 1.19L1.02 1.2L1.01 1.21C0.72 1.4 0.56 1.45 0.49 1.45C0.48 1.45 0.47 1.45 0.47 1.45C0.47 1.44 0.47 1.44 0.46 1.43C0.44 1.36 0.45 1.25 0.47 1.09C0.49 0.95 0.53 0.79 0.56 0.66L0.13 0.55L0.13 0.55C0.09 0.68 0.05 0.86 0.02 1.03C0 1.19 -0.02 1.39 0.03 1.55C0.05 1.64 0.1 1.73 0.19 1.8C0.28 1.88 0.39 1.9 0.5 1.9C0.7 1.9 0.95 1.78 1.24 1.59C1.56 1.43 1.79 1.27 1.94 1.12Z M0.464399 1.44946Z M0.464399 1.44946C0.464399 1.44946 0.464399 1.44946 0.464399 1.44946 M0.464399 1.44946C0.464399 1.44946 0.464399 1.44946 0.464399 1.44946 " /><path id="Path 39" fill-rule="evenodd" style="fill:#D33041" transform="translate(179.8102507682325 194.72738679717938)  rotate(0 69.32511066935055 95.65072631835938)" opacity="1" d="M138.65 23.41L71.81 36.01L94.99 185.22L67.53 191.3C45.7 158.44 -0.89 49.96 0.01 28.36C0.73 11.07 39.02 2.25 58.08 0L138.65 23.41Z" /><path id="Path 40" fill-rule="evenodd" style="fill:#B52D3E" transform="translate(193.33495439450564 194.72738679717938)  rotate(0 62.562507086194444 95.17764282226562)" opacity="1" d="M44.55 0L125.13 23.41L58.28 36.01L81.46 185.22L58.28 190.36C45.38 156.84 16.24 82.78 2.92 54.69C-10.41 26.6 25.12 6.53 44.55 0Z" /><path id="Path 41" fill-rule="evenodd" style="fill:#FB8F6A" transform="translate(46.362655639648466 363.74787935089034)  rotate(0 26.782203674316406 27.11956787109375)" opacity="1" d="M0 40.51L27.46 0L53.56 27.68L11.7 54.24L0 40.51Z" /><path id="Path 42" fill-rule="evenodd" style="fill:#0EAD69" transform="translate(10.44253730773923 412.14442476104614)  rotate(0 8.845329284668004 4.717224121093977)" opacity="1" d="M17.69 0C17.06 3.46 13.5 8.12 13.36 9.43L0 7.47C0 5.9 6.37 1.26 17.69 0Z" /><path id="Path 43" fill-rule="evenodd" style="fill:#0EAD69" transform="translate(20.646801879575975 399.48164135397224)  rotate(0 29.331763359133433 11.126425467104923)" opacity="1" d="M55.04 7.2C57.05 6.3 59.09 12.83 58.59 21.7C53.24 22.33 16.92 22.36 0.02 22.1C-0.11 20.26 0.41 15.8 5.91 13.05C11.58 10.22 25.17 0.87 25.96 0.47C25.987 0.456659 26.0154 0.442394 26.0452 0.427441C26.8855 0.00525093 28.8178 -0.965567 31.86 2.83C35 6.77 41.98 13.05 55.04 7.2Z" /><path id="Path 44" fill-rule="evenodd" style="fill:#0EAD69" transform="translate(67.0345432605979 409.3896945364372)  rotate(0 6.19898542884998 6.1058349609375)" opacity="1" d="M0.02 12.21C-0.2 8.66 1.72 1.26 11.1 0C12.06 3.48 12.76 7.89 12.2 11.79C10.56 11.99 6.02 12.12 0.02 12.21Z" /><path id="Path 45" fill-rule="evenodd" style="fill:#FFFFFF" transform="translate(26.334510803222656 400.94541963409347)  rotate(0 12.553421020507798 10.5125732421875)" opacity="1" d="M1.92 14.53C1.69 14.69 1.46 15.03 1.26 15.52C1.07 16.02 0.91 16.63 0.79 17.28C0.55 18.59 0.45 20.05 0.45 21.03L0 21.03C0 20.03 0.1 18.54 0.35 17.2C0.47 16.53 0.63 15.89 0.84 15.36C1.05 14.84 1.32 14.39 1.67 14.16C3.56 12.89 17.93 4.19 24.87 0L25.11 0.38C18.16 4.58 3.8 13.27 1.92 14.53Z" /><path id="Path 46" fill-rule="evenodd" style="fill:#E7E6E6" transform="translate(9.081439954191723 418.35445973278365)  rotate(0 35.30274607987796 4.303714575065328)" opacity="1" d="M70.55 3.22L70.55 7.15C55.61 8.33 23.06 9.9 1.36 6.76C-1 5.97 0.18 2.44 1.36 0.47C3.72 1.26 4.19 1.73 20.23 2.05C40.28 2.44 68.58 1.26 70.15 0.08C70.672 -0.311507 70.6283 0.823283 70.5798 2.08197C70.5651 2.46293 70.55 2.85523 70.55 3.22Z" /><path id="Path 47" fill-rule="evenodd" style="fill:#4CA0AB" transform="translate(28.912361145019588 420.5977328665158)  rotate(0 25.4140625 1.1242970139811632)" opacity="1" d="M48.12 1.13C46.85 1.34 45.24 1.51 43.37 1.65C39.63 1.93 34.84 2.09 29.7 2.18C19.4 2.35 7.67 2.19 0 1.99L0.01 1.54C7.68 1.74 19.41 1.9 29.69 1.73C34.83 1.64 39.61 1.48 43.34 1.2C45.2 1.06 46.8 0.89 48.05 0.69C49.3 0.48 50.17 0.25 50.6 0L50.83 0.39C50.32 0.68 49.37 0.93 48.12 1.13Z" /><path id="Path 48" fill-rule="evenodd" style="fill:#0EAD69" transform="translate(9.065760971177454 420.39961274932784)  rotate(0 9.92622262186368 3.14404296875)" opacity="1" d="M19.85 1.57L19.85 6.29C14.74 6.29 7.27 6.29 1.38 4.72C-0.59 4.19 -0.06 1.57 0.59 0C6.88 1.57 12.38 1.57 19.85 1.57Z" /><path id="Path 49" fill-rule="evenodd" style="fill:#FFFFFF" transform="translate(46.445930480956974 403.7316745169055)  rotate(0 15.661293029785199 3.978558264412186)" opacity="1" d="M31.11 3.89L31.32 4.29C23.61 8.44 16.86 8.58 11.5 7.1C6.15 5.64 2.18 2.56 0 0.32L0.32 0C2.46 2.21 6.36 5.23 11.62 6.67C16.87 8.12 23.5 7.99 31.11 3.89Z" /><path id="Path 50" fill-rule="evenodd" style="fill:#D33041" transform="translate(26.93242065499362 411.317137251383)  rotate(0 0.7970878934729626 1.1990594042460998)" opacity="1" d="M0.41 2.4C0.41 2.4 -0.11 0.56 0.02 0.43C0.15 0.3 1.2 -0.13 1.2 0.04C1.2 0.83 1.59 1.22 1.59 2.01L0.41 2.4Z" /><path id="Path 51" fill-rule="evenodd" style="fill:#D33041" transform="translate(30.883325361253128 409.00507879607403)  rotate(0 0.8687188172829678 1.3715986416661963)" opacity="1" d="M0.39 2.74C0.39 2.74 -0.11 0.56 0.02 0.43C0.15 0.29 1.12 -0.12 1.2 0.03C1.20685 0.04389 1.21372 0.0577903 1.22058 0.0717007C1.58454 0.808895 1.96259 1.57463 1.57 2.35L0.39 2.74Z" /><path id="Path 52" fill-rule="evenodd" style="fill:#D33041" transform="translate(33.87530632749991 406.6404099564611)  rotate(0 1.060069461982451 1.3745965136208724)" opacity="1" d="M0.02 0.43C0.15 0.3 1.16 -0.13 1.2 0.04C1.33 0.79 1.73 1.57 2.12 2.36L0.55 2.75C0.55 2.75 -0.11 0.56 0.02 0.43Z" /><path id="Path 53" fill-rule="evenodd" style="fill:#D33041" transform="translate(37.8066991632536 404.2818229178413)  rotate(0 0.9173859956256081 1.3746145202356956)" opacity="1" d="M0.55 2.75C0.55 2.75 -0.11 0.56 0.02 0.43C0.15 0.3 1.16 -0.13 1.2 0.04C1.24586 0.30456 1.37384 0.572854 1.50318 0.844002C1.74051 1.34153 1.98243 1.84867 1.73 2.36L0.55 2.75Z" /><path id="Path 54" fill-rule="evenodd" style="fill:#D33041" transform="translate(41.110573846651135 401.49886012408183)  rotate(0 1.373580416762323 1.5867441104745694)" opacity="1" d="M1.17 3.17C1.17 3.17 -0.12 0.72 0.01 0.54C0.14 0.37 1.01 -0.13 1.17 0.03C1.57 0.42 2.35 1.72 2.75 2.78L1.17 3.17Z" /><path id="Path 55" fill-rule="evenodd" style="fill:#D33041" transform="translate(45.03482619463753 399.5194853301458)  rotate(0 0.9834986153277043 1.4128725474817543)" opacity="1" d="M1.19 2.83C1.19 2.83 -0.12 0.76 0.01 0.59C0.14 0.42 1.08 -0.16 1.18 0.04C1.42 0.56 1.97 1.61 1.97 2.01L1.19 2.83Z" /><path id="Path 56" fill-rule="evenodd" style="fill:#FFFFFF" transform="translate(26.6785163357915 412.3199923879997)  rotate(0 1.247118468471001 0.9183070977346688)" opacity="1" d="M1.92 0C2.03 0.04 2.17 0.1 2.27 0.19C2.38 0.29 2.48 0.42 2.49 0.61C2.5 0.79 2.41 0.96 2.26 1.12C2.11 1.27 1.88 1.43 1.55 1.6C1.22 1.76 0.95 1.84 0.72 1.84C0.47 1.83 0.28 1.73 0.16 1.57C0.05 1.41 0.01 1.22 0 1.05C-0.01 0.88 0.02 0.7 0.06 0.55L0.49 0.66C0.46 0.78 0.45 0.91 0.45 1.03C0.46 1.16 0.48 1.25 0.52 1.3C0.56 1.35 0.61 1.38 0.72 1.39C0.85 1.39 1.05 1.34 1.35 1.19C1.66 1.04 1.84 0.91 1.94 0.81C2.04 0.7 2.04 0.64 2.04 0.63C2.04 0.61 2.03 0.58 1.98 0.54C1.93 0.5 1.86 0.45 1.78 0.43L1.92 0Z" /><path id="Path 57" fill-rule="evenodd" style="fill:#FFFFFF" transform="translate(30.658475375878737 410.3574679739377)  rotate(0 1.247102598922197 0.916105016226993)" opacity="1" d="M0.72 1.38C0.85 1.39 1.05 1.34 1.35 1.19C1.66 1.04 1.84 0.91 1.94 0.81C2.04 0.7 2.04 0.64 2.04 0.63C2.04 0.61 2.03 0.58 1.98 0.54C1.93 0.49 1.86 0.45 1.78 0.43L1.92 0C2.03 0.04 2.17 0.1 2.27 0.19C2.38 0.28 2.48 0.42 2.49 0.6C2.5 0.79 2.41 0.96 2.26 1.12C2.11 1.27 1.88 1.43 1.55 1.59C1.22 1.76 0.95 1.84 0.72 1.83C0.47 1.83 0.28 1.73 0.16 1.57C0.05 1.41 0.01 1.22 0 1.05C-0.01 0.87 0.02 0.7 0.06 0.55L0.49 0.66C0.46 0.77 0.45 0.91 0.45 1.03C0.46 1.15 0.48 1.24 0.52 1.3C0.56 1.34 0.61 1.38 0.72 1.38Z" /><path id="Path 58" fill-rule="evenodd" style="fill:#FFFFFF" transform="translate(33.80302514858718 407.99882539581176)  rotate(0 1.2473284224948742 0.9161097692691555)" opacity="1" d="M0.52 1.3C0.56 1.34 0.61 1.38 0.72 1.38C0.85 1.39 1.05 1.34 1.35 1.19C1.66 1.04 1.84 0.91 1.94 0.81C2.04 0.7 2.04 0.64 2.04 0.63C2.04 0.61 2.03 0.58 1.98 0.54C1.93 0.49 1.86 0.45 1.78 0.43L1.92 0C2.03 0.04 2.17 0.1 2.27 0.19C2.38 0.28 2.49 0.42 2.49 0.6C2.5 0.79 2.41 0.96 2.26 1.12C2.11 1.27 1.88 1.43 1.55 1.59C1.22 1.76 0.95 1.84 0.72 1.83C0.47 1.83 0.28 1.73 0.16 1.57C0.05 1.41 0.01 1.22 0 1.05C-0.01 0.87 0.02 0.7 0.06 0.55L0.49 0.66C0.46 0.77 0.45 0.91 0.45 1.03C0.46 1.15 0.48 1.24 0.52 1.3Z" /><path id="Path 59" fill-rule="evenodd" style="fill:#FFFFFF" transform="translate(37.73441038478637 405.6401828176877)  rotate(0 1.24731695843532 0.916105016226993)" opacity="1" d="M0.06 0.55L0.49 0.66C0.46 0.77 0.45 0.91 0.45 1.03C0.46 1.15 0.48 1.24 0.52 1.3C0.56 1.34 0.61 1.38 0.72 1.38C0.85 1.39 1.05 1.34 1.35 1.19C1.66 1.04 1.84 0.91 1.94 0.81C2.04 0.7 2.05 0.64 2.04 0.63C2.04 0.61 2.03 0.58 1.98 0.54C1.93 0.49 1.86 0.45 1.78 0.43L1.92 0C2.03 0.04 2.17 0.1 2.27 0.19C2.38 0.28 2.48 0.42 2.49 0.6C2.5 0.79 2.41 0.96 2.26 1.12C2.11 1.27 1.88 1.43 1.55 1.59C1.22 1.76 0.95 1.84 0.72 1.83C0.47 1.83 0.28 1.73 0.16 1.57C0.05 1.41 0.01 1.22 0 1.05C-0.01 0.87 0.02 0.7 0.06 0.55Z" /><path id="Path 60" fill-rule="evenodd" style="fill:#FFFFFF" transform="translate(41.6652945706702 403.2815402395622)  rotate(0 1.2471271071614893 0.916081811352683)" opacity="1" d="M0.16 1.57C0.05 1.41 0.01 1.22 0 1.05C-0.01 0.87 0.02 0.7 0.06 0.55L0.49 0.66C0.46 0.77 0.45 0.91 0.45 1.03C0.46 1.15 0.48 1.24 0.52 1.3C0.56 1.34 0.61 1.38 0.72 1.38C0.85 1.39 1.05 1.34 1.35 1.19C1.66 1.04 1.84 0.91 1.94 0.81C2.04 0.7 2.04 0.64 2.04 0.63C2.04 0.61 2.03 0.58 1.98 0.54C1.93 0.49 1.86 0.45 1.78 0.43L1.92 0C2.03 0.04 2.17 0.1 2.27 0.19C2.38 0.28 2.48 0.42 2.49 0.6C2.5 0.79 2.41 0.96 2.26 1.12C2.11 1.27 1.88 1.43 1.55 1.59C1.22 1.76 0.95 1.84 0.72 1.83C0.47 1.83 0.28 1.73 0.16 1.57Z" /><path id="Path 61" fill-rule="evenodd" style="fill:#FFFFFF" transform="translate(45.47630351381491 400.92292817901534)  rotate(0 1.0864791348162868 0.9500318788309414)" opacity="1" d="M1.24 1.59Z M1.02 1.2L1.01 1.21C0.72 1.4 0.56 1.45 0.49 1.45C0.48 1.45 0.47 1.45 0.47 1.45C0.47 1.44 0.47 1.44 0.46 1.43C0.44 1.36 0.45 1.25 0.47 1.09C0.49 0.95 0.53 0.79 0.56 0.66L0.13 0.55L0.13 0.55C0.09 0.68 0.05 0.86 0.02 1.03C0 1.19 -0.02 1.39 0.03 1.55C0.05 1.64 0.1 1.73 0.19 1.8C0.28 1.88 0.39 1.9 0.5 1.9C0.7 1.9 0.95 1.78 1.24 1.59C1.56 1.43 1.79 1.27 1.94 1.12C2.09 0.96 2.18 0.79 2.17 0.6C2.16 0.42 2.06 0.28 1.95 0.19C1.84 0.1 1.71 0.04 1.6 0L1.45 0.43C1.53 0.45 1.61 0.49 1.66 0.54C1.71 0.58 1.72 0.61 1.72 0.63C1.72 0.64 1.72 0.7 1.62 0.81C1.52 0.91 1.33 1.04 1.03 1.19L1.02 1.2Z M0.464399 1.4494Z M0.464399 1.4494C0.464399 1.4494 0.464399 1.4494 0.464399 1.4494 M0.464399 1.4494C0.464399 1.4494 0.464399 1.4494 0.464399 1.4494 " /><path id="Path 62" fill-rule="evenodd" style="fill:#F13B4D" transform="translate(71.79449462890628 198.55342134307782)  rotate(0 176.49812268259404 97.2261962890625)" opacity="1" d="M0 168.35C10.35 151.69 51.99 98.8 96.55 61.89C132.2 32.36 192.28 24.38 217.86 24.08C291.45 16.65 344.34 5.18 349.74 0C351.24 7.28 353.93 24.49 352.67 35.11C351.09 48.39 348.17 79 292.8 93.85C284.7 95.65 197.15 108.7 180.27 111.18C154.84 114.91 138.41 126.26 113.88 140.44C85.07 157.09 34.21 188.6 25.66 194.45C18.91 193.1 4.28 184.1 0 168.35Z" /><path id="Path 63" fill-rule="evenodd" style="fill:#16965E" transform="translate(209.08142852783203 214.85679658721844)  rotate(0 58.8670654296875 11.902912992729739)" opacity="1" d="M80.57 7.78L117.73 0C102.9 23.82 33.16 25.3 0 23.05C30.51 11.66 63.35 7.98 80.57 7.78Z" /><path id="Path 64" fill-rule="evenodd" style="fill:#C4374B" transform="translate(209.08142852783203 214.85679658721844)  rotate(0 58.8670654296875 11.902912992729739)" opacity="1" d="M80.57 7.78L117.73 0C102.9 23.82 33.16 25.3 0 23.05C30.51 11.66 63.35 7.98 80.57 7.78Z" /><path id="Path 65" fill-rule="evenodd" style="fill:#B52D3E" transform="translate(78.99642944335938 291.3069445150819)  rotate(0 101.95242309570315 50.84938892669328)" opacity="1" d="M0 89.24C17.78 45.16 84.89 -31 203.9 13.48C193.63 14.83 173.07 17.71 173.07 18.43C147.64 22.16 131.21 33.5 106.68 47.68C77.87 64.34 27.01 95.85 18.45 101.7C13.99 100.81 6.08 96.57 0 89.24Z" /><path id="Path 66" fill-rule="evenodd" style="fill:#9B1828" transform="translate(377.88451385498047 240.16847261260907)  rotate(0 23.001617431640625 21.32672119140625)" opacity="1" d="M46 0Z M0 34.3L0.75 34.79C1.88 35.54 3.38 36.67 5.01 37.91C5.24 38.08 5.47 38.26 5.7 38.43C7.59 39.86 9.6 41.36 11.33 42.45L11.65 42.65L11.99 42.49C26.06 35.68 33.87 27.26 38.44 19.64C42.1 13.52 43.68 7.91 44.73 4.17C44.98 3.27 45.21 2.47 45.42 1.8L46 0L44.41 1.03C42.63 2.18 39.16 3.12 35.27 3.63C31.4 4.13 27.25 4.18 24.19 3.63L23.56 3.52L23.42 4.14C22.28 9.02 18.31 14.95 13.7 20.44C9.12 25.91 3.99 30.85 0.68 33.72L0 34.3Z M24.5795 5.05921Z M14.7395 21.3092C10.3895 26.4992 5.57954 31.1992 2.21954 34.1592C3.26954 34.8992 4.51954 35.8492 5.82954 36.8292C6.05954 37.0092 6.28954 37.1792 6.51954 37.3592C8.28954 38.6992 10.1295 40.0692 11.7395 41.1092C25.3595 34.4492 32.8795 26.2792 37.2795 18.9492C40.8395 12.9992 42.3595 7.60921 43.4095 3.86921C43.4995 3.54921 43.5895 3.23921 43.6695 2.93921C41.5495 3.86921 38.5495 4.55921 35.4395 4.96921C31.7395 5.44921 27.7295 5.52921 24.5795 5.05921C23.1995 10.1392 19.1795 16.0192 14.7395 21.3092Z " /><path id="Path 67" fill-rule="evenodd" style="fill:#9B1828" transform="translate(87.42900085449219 211.58216890167157)  rotate(0 143.08538818359375 88.60610961914062)" opacity="1" d="M280.42 20.86C283.07 15.76 284.77 9.07 285.27 0L286.17 0.05C285.66 9.21 283.95 16.03 281.22 21.28C278.49 26.54 274.75 30.18 270.23 33C265.73 35.8 260.44 37.78 254.62 39.71C253.07 40.23 251.47 40.74 249.84 41.26C245.37 42.7 240.63 44.22 235.7 46.13C222.95 51.07 195.41 58.79 170.38 65.54C161.89 67.84 153.68 70.02 146.43 71.95C142.99 72.86 139.77 73.72 136.84 74.5C132.28 75.72 128.41 76.76 125.52 77.57C122.6 78.38 120.69 78.94 120.02 79.21L120.01 79.22L120 79.22C99.02 86.66 74.77 104.52 52.95 123.87C31.15 143.21 11.82 163.99 0.69 177.21L0 176.63C11.15 163.38 30.51 142.57 52.36 123.2C74.19 103.84 98.54 85.88 119.69 78.37C120.43 78.08 122.39 77.5 125.27 76.7C128.18 75.89 132.05 74.85 136.61 73.63C139.54 72.84 142.76 71.99 146.2 71.07C153.45 69.15 161.66 66.97 170.15 64.67C195.2 57.91 222.68 50.21 235.37 45.29C240.33 43.37 245.11 41.84 249.58 40.4C251.21 39.88 252.8 39.37 254.34 38.86C260.15 36.93 265.35 34.98 269.76 32.23C274.16 29.49 277.78 25.96 280.42 20.86Z" /><path id="Path 68" fill-rule="evenodd" style="fill:#9B1828" transform="translate(91.71550750732416 210.41273530792157)  rotate(0 144.31579589843753 90.5469970703125)" opacity="1" d="M288.627 0.14Z M287.747 0C287.667 0.47 287.597 0.99 287.517 1.55L288.407 1.67C288.487 1.12 288.557 0.61 288.627 0.14L287.747 0Z M288.096 3.90014Z M287.206 3.77014C287.076 4.73014 286.926 5.77014 286.746 6.86014L287.636 7.00014C287.816 5.90014 287.966 4.86014 288.096 3.90014L287.206 3.77014Z M287.253 9.2164Z M286.363 9.0564C286.183 10.0464 285.983 11.0664 285.743 12.1064L286.623 12.3064C286.863 11.2464 287.063 10.2164 287.253 9.2164L286.363 9.0564Z M286.09 14.5019Z M285.219 14.2719C284.96 15.2619 284.68 16.2619 284.359 17.2619L285.219 17.5319C285.539 16.5119 285.829 15.5019 286.09 14.5019L285.219 14.2719Z M284.487 19.671Z M283.647 19.361C283.297 20.321 282.907 21.291 282.487 22.241L283.307 22.601C283.737 21.631 284.137 20.651 284.487 19.671L283.647 19.361Z M282.34 24.6503Z M281.54 24.2403C281.07 25.1603 280.57 26.0603 280.02 26.9403L280.79 27.4103C281.35 26.5103 281.86 25.5803 282.34 24.6503L281.54 24.2403Z M279.522 29.2953Z M278.792 28.7753C278.202 29.6053 277.562 30.4153 276.872 31.1853L277.542 31.7853C278.252 30.9853 278.912 30.1553 279.522 29.2953L278.792 28.7753Z M275.98 33.4332Z M275.35 32.7832C274.621 33.4932 273.85 34.1632 273.021 34.8032L273.57 35.5132C274.421 34.8532 275.221 34.1632 275.98 33.4332L275.35 32.7832Z M271.713 36.8282Z M271.223 36.0682C270.383 36.6182 269.483 37.1282 268.543 37.5882L268.943 38.3982C269.913 37.9182 270.843 37.3882 271.713 36.8282L271.223 36.0682Z M266.872 39.3298Z M266.532 38.4898C266.062 38.6798 265.582 38.8598 265.082 39.0298C264.632 39.1798 264.142 39.3498 263.622 39.5298L263.912 40.3798C264.432 40.1998 264.922 40.0398 265.372 39.8798C265.882 39.7098 266.382 39.5198 266.872 39.3298L266.532 38.4898Z M261.783 41.0988Z M261.493 40.2488C260.573 40.5588 259.583 40.8988 258.523 41.2488L258.813 42.1088C259.873 41.7488 260.863 41.4088 261.783 41.0988L261.493 40.2488Z M256.685 42.8193Z M256.395 41.9693C255.445 42.2893 254.455 42.6193 253.415 42.9693L253.705 43.8193C254.735 43.4793 255.735 43.1393 256.685 42.8193L256.395 41.9693Z M251.599 44.5203Z M251.309 43.6703C250.349 43.9903 249.359 44.3203 248.339 44.6603L248.619 45.5103C249.649 45.1703 250.639 44.8403 251.599 44.5203L251.309 43.6703Z M246.483 46.2213Z M246.203 45.3713C245.233 45.6913 244.233 46.0213 243.213 46.3613L243.493 47.2213C244.513 46.8813 245.513 46.5513 246.483 46.2213L246.203 45.3713Z M241.387 47.9088Z M241.107 47.0588C240.137 47.3788 239.137 47.7088 238.127 48.0388L238.407 48.8988C239.417 48.5588 240.417 48.2388 241.387 47.9088L241.107 47.0588Z M236.267 49.6071Z M235.987 48.7471C235.007 49.0671 234.017 49.3871 233.017 49.7171L233.297 50.5771C234.307 50.2471 235.287 49.9271 236.267 49.6071L235.987 48.7471Z M231.158 51.282Z M230.878 50.422C229.898 50.742 228.908 51.072 227.898 51.392L228.178 52.252C229.188 51.922 230.178 51.602 231.158 51.282L230.878 50.422Z M226.055 52.9489Z M225.775 52.0889C224.785 52.4089 223.785 52.7389 222.775 53.0689L223.055 53.9189C224.065 53.5889 225.065 53.2689 226.055 52.9489L225.775 52.0889Z M220.936 54.6107Z M220.666 53.7507C219.676 54.0707 218.676 54.3907 217.666 54.7207L217.946 55.5807C218.956 55.2507 219.946 54.9307 220.936 54.6107L220.666 53.7507Z M215.822 56.2667Z M215.542 55.4067C214.552 55.7267 213.562 56.0467 212.552 56.3767L212.832 57.2267C213.832 56.9067 214.832 56.5867 215.822 56.2667L215.542 55.4067Z M210.704 57.9164Z M210.424 57.0564C209.434 57.3764 208.434 57.6964 207.434 58.0164L207.704 58.8764C208.714 58.5564 209.714 58.2364 210.704 57.9164L210.424 57.0564Z M205.583 59.5589Z M205.303 58.6989C204.313 59.0189 203.313 59.3389 202.313 59.6589L202.583 60.5089C203.593 60.1889 204.583 59.8689 205.583 59.5589L205.303 58.6989Z M200.459 61.1942Z M200.179 60.3342C199.189 60.6542 198.189 60.9642 197.189 61.2842L197.459 62.1442C198.469 61.8242 199.459 61.5042 200.459 61.1942L200.179 60.3342Z M195.332 62.8223Z M195.052 61.9623C194.062 62.2823 193.062 62.5923 192.062 62.9123L192.332 63.7723C193.332 63.4523 194.332 63.1323 195.332 62.8223L195.052 61.9623Z M190.203 64.4432Z M189.933 63.5832C188.933 63.8932 187.933 64.2132 186.933 64.5232L187.203 65.3832C188.203 65.0732 189.203 64.7532 190.203 64.4432L189.933 63.5832Z M185.071 66.0564Z M184.801 65.1964C183.801 65.5064 182.801 65.8264 181.801 66.1364L182.071 66.9964C183.071 66.6764 184.071 66.3664 185.071 66.0564L184.801 65.1964Z M179.936 67.6619Z M179.666 66.8019C178.666 67.1119 177.666 67.4219 176.666 67.7319L176.936 68.5919C177.936 68.2819 178.936 67.9719 179.936 67.6619L179.666 66.8019Z M174.799 69.2594Z M174.529 68.3994C173.529 68.7094 172.529 69.0194 171.529 69.3294L171.799 70.1894C172.799 69.8794 173.799 69.5694 174.799 69.2594L174.529 68.3994Z M169.663 70.8488Z M169.393 69.9888C168.393 70.2988 167.393 70.6088 166.393 70.9088L166.653 71.7688C167.663 71.4688 168.663 71.1588 169.663 70.8488L169.393 69.9888Z M164.512 72.4287Z M164.252 71.5687C163.252 71.8787 162.252 72.1787 161.252 72.4887L161.512 73.3487C162.512 73.0387 163.522 72.7387 164.512 72.4287L164.252 71.5687Z M159.369 73.9997Z M159.109 73.1397C158.109 73.4397 157.109 73.7497 156.109 74.0497L156.369 74.9097C157.369 74.6097 158.369 74.3097 159.369 73.9997L159.109 73.1397Z M154.221 75.5612Z M153.961 74.7012C152.961 75.0012 151.961 75.3012 150.961 75.6112L151.221 76.4712C152.221 76.1712 153.221 75.8612 154.221 75.5612L153.961 74.7012Z M149.07 77.1118Z M148.82 76.2518C147.81 76.5518 146.81 76.8518 145.81 77.1518L146.07 78.0118C147.07 77.7118 148.07 77.4118 149.07 77.1118L148.82 76.2518Z M143.926 78.6517Z M143.666 77.7917C142.666 78.0917 141.656 78.3917 140.656 78.6817L140.916 79.5517C141.916 79.2517 142.916 78.9517 143.926 78.6517L143.666 77.7917Z M138.769 80.1803Z M138.509 79.3203C137.509 79.6203 136.499 79.9103 135.499 80.2103L135.749 81.0703C136.759 80.7803 137.759 80.4803 138.769 80.1803L138.509 79.3203Z M133.607 81.6963Z M133.347 80.8363C132.347 81.1263 131.337 81.4263 130.337 81.7163L130.587 82.5763C131.587 82.2863 132.597 81.9963 133.607 81.6963L133.347 80.8363Z M128.443 83.1997Z M128.183 82.3397C127.183 82.6297 126.173 82.9197 125.173 83.2097L125.423 84.0797C126.423 83.7897 127.433 83.4997 128.443 83.1997L128.183 82.3397Z M121.796 85.1192Z M120.386 85.7092C120.906 85.4992 121.376 85.3092 121.796 85.1192C122.286 84.9792 122.776 84.8392 123.266 84.6992L123.016 83.8292C122.516 83.9692 122.016 84.1192 121.516 84.2592L121.486 84.2692L121.456 84.2792C121.046 84.4692 120.576 84.6692 120.046 84.8792L120.386 85.7092Z M118.282 86.5475Z M117.952 85.7075C117.072 86.0475 116.102 86.4375 115.022 86.8675L115.362 87.7075C116.432 87.2675 117.402 86.8875 118.282 86.5475L117.952 85.7075Z M113.304 88.5567Z M112.954 87.7267C112.044 88.1067 111.094 88.5167 110.074 88.9767L110.444 89.7967C111.454 89.3467 112.404 88.9367 113.304 88.5567L112.954 87.7267Z M108.409 90.7343Z M108.029 89.9143C107.119 90.3343 106.179 90.7943 105.189 91.2843L105.589 92.0843C106.569 91.6043 107.509 91.1543 108.409 90.7343L108.029 89.9143Z M103.592 93.0936Z M103.182 92.2936C102.282 92.7536 101.352 93.2436 100.392 93.7636L100.822 94.5536C101.772 94.0336 102.702 93.5536 103.592 93.0936L103.182 92.2936Z M98.8398 95.6413Z M98.3998 94.8513C97.5098 95.3413 96.5998 95.8613 95.6598 96.4113L96.1098 97.1913C97.0498 96.6413 97.9498 96.1313 98.8398 95.6413L98.3998 94.8513Z M94.2023 98.3053Z M93.7423 97.5353C92.8623 98.0553 91.9723 98.6053 91.0523 99.1653L91.5223 99.9353C92.4423 99.3753 93.3323 98.8253 94.2023 98.3053L93.7423 97.5353Z M89.6093 101.135Z M89.1293 100.375C88.2693 100.915 87.3893 101.485 86.4993 102.065L86.9893 102.825C87.8793 102.235 88.7493 101.675 89.6093 101.135L89.1293 100.375Z M85.1167 104.063Z M84.6167 103.313C83.7567 103.883 82.8867 104.473 82.0067 105.083L82.5167 105.823C83.3967 105.213 84.2667 104.633 85.1167 104.063L84.6167 103.313Z M80.6824 107.092Z M80.1724 106.352C79.3224 106.942 78.4624 107.562 77.5824 108.182L78.1024 108.922C78.9824 108.292 79.8424 107.682 80.6824 107.092L80.1724 106.352Z M76.317 110.217Z M75.787 109.487C74.9471 110.097 74.0871 110.727 73.2271 111.377L73.7671 112.097C74.6271 111.457 75.4771 110.827 76.317 110.217L75.787 109.487Z M72.0083 113.428Z M71.4583 112.708C70.6283 113.338 69.7883 113.978 68.9383 114.638L69.4883 115.358C70.3383 114.698 71.1783 114.058 72.0083 113.428L71.4583 112.708Z M67.7512 116.714Z M67.1912 116.004C66.3712 116.644 65.5512 117.304 64.7112 117.974L65.2712 118.674C66.1112 118.004 66.9312 117.354 67.7512 116.714L67.1912 116.004Z M63.5386 120.072Z M62.9786 119.372C62.1686 120.022 61.3586 120.692 60.5386 121.362L61.1086 122.062C61.9286 121.382 62.7386 120.722 63.5386 120.072L62.9786 119.372Z M59.3737 123.498Z M58.8037 122.808C58.0137 123.468 57.2137 124.138 56.4137 124.818L56.9937 125.508C57.7937 124.828 58.5937 124.158 59.3737 123.498L58.8037 122.808Z M55.2675 126.979Z M54.6775 126.299C53.9075 126.969 53.1175 127.649 52.3275 128.329L52.9175 129.009C53.7075 128.329 54.4875 127.649 55.2675 126.979L54.6775 126.299Z M51.2323 130.499Z M50.6323 129.819C49.8523 130.509 49.0623 131.199 48.2723 131.909L48.8723 132.579C49.6623 131.879 50.4523 131.179 51.2323 130.499L50.6323 129.819Z M47.214 134.069Z M46.614 133.399C45.834 134.099 45.054 134.809 44.264 135.539L44.874 136.199C45.664 135.479 46.444 134.769 47.214 134.069L46.614 133.399Z M43.2368 137.702Z M42.6168 137.042C41.8668 137.742 41.0968 138.452 40.3268 139.172L40.9368 139.832C41.7068 139.112 42.4768 138.402 43.2368 137.702L42.6168 137.042Z M39.2831 141.388Z M38.6631 140.728C37.9131 141.438 37.1631 142.148 36.4031 142.868L37.0231 143.528C37.7831 142.798 38.5331 142.088 39.2831 141.388L38.6631 140.728Z M35.4115 145.069Z M34.7815 144.419C34.0215 145.149 33.2615 145.889 32.4915 146.629L33.1215 147.279C33.8915 146.529 34.6515 145.799 35.4115 145.069L34.7815 144.419Z M31.5336 148.819Z M30.9036 148.179C30.1636 148.899 29.4236 149.639 28.6736 150.379L29.3036 151.019C30.0536 150.279 30.7936 149.549 31.5336 148.819L30.9036 148.179Z M27.6999 152.616Z M27.0599 151.976C26.3299 152.706 25.5899 153.446 24.8499 154.186L25.4899 154.826C26.2299 154.076 26.9699 153.346 27.6999 152.616L27.0599 151.976Z M23.9198 156.403Z M23.2798 155.773C22.5398 156.523 21.7998 157.273 21.0598 158.033L21.6998 158.663C22.4498 157.903 23.1898 157.153 23.9198 156.403L23.2798 155.773Z M20.1343 160.279Z M19.4843 159.649C18.7643 160.389 18.0443 161.129 17.3243 161.879L17.9743 162.509C18.6943 161.759 19.4143 161.009 20.1343 160.279L19.4843 159.649Z M16.4149 164.126Z M15.7648 163.506C15.0349 164.266 14.3048 165.036 13.5648 165.816L14.2148 166.436C14.9549 165.656 15.6848 164.886 16.4149 164.126L15.7648 163.506Z M12.7081 168.04Z M12.0481 167.42C11.3381 168.17 10.6281 168.93 9.90808 169.7L10.5681 170.32C11.2781 169.55 11.9981 168.79 12.7081 168.04L12.0481 167.42Z M9.02753 171.965Z M8.36753 171.355C7.65753 172.125 6.93753 172.895 6.21753 173.675L6.87753 174.285C7.59753 173.505 8.31753 172.735 9.02753 171.965L8.36753 171.355Z M5.37946 175.915Z M4.71946 175.305C4.01946 176.075 3.30946 176.845 2.59946 177.625L3.26946 178.225C3.96946 177.445 4.67946 176.675 5.37946 175.915L4.71946 175.305Z M1.74 179.903Z M1.07 179.303C0.72 179.693 0.36 180.093 0 180.493L0.67 181.093C1.03 180.693 1.38 180.303 1.74 179.903L1.07 179.303Z " /><path id="Path 69" fill-rule="evenodd" style="fill:#9B1828" transform="translate(342.89125056585067 225.3356173879997)  rotate(0 5.227008841830525 10.802886962890625)" opacity="1" d="M6.85 21.61C2.05 18.76 -4.99 10.44 5.28 0L10.45 0C5.73 3.98 -0.89 13.46 10.45 19.58C8.83 20.3 7.38 21.23 6.85 21.61Z" /><path id="Path 70" fill-rule="evenodd" style="fill:#FBA83F" transform="translate(329.7138900756836 195.40257295440594)  rotate(0 46.812408447265625 15.079071044921875)" opacity="1" d="M23.41 25.66C47.04 20.26 79.9 7.88 93.17 0C93.3296 0.881781 93.3075 2.92723 93.2816 5.33678C93.2457 8.66568 93.2023 12.6895 93.62 15.3C81.25 25.21 39.84 29.03 21.38 30.16L0 30.16C6.53 28.88 20.35 26.2 23.41 25.66Z" /><path id="Path 71" fill-rule="evenodd" style="fill:#D17D13" transform="translate(329.7138900756836 221.04123022236885)  rotate(0 12.744550337010423 2.2599560339872937)" opacity="1" d="M23.41 0.02C25.36 -0.13 27.68 0.56 21.38 4.52L0 4.52C6.53 3.24 20.35 0.56 23.41 0.02Z" /><path id="Path 72" fill-rule="evenodd" style="fill:#9B1828" transform="translate(377.42671966552734 218.80885347198407)  rotate(0 0.90020751953125 0.9002685546875)" opacity="1" d="M0 0.9C0 0.4 0.4 0 0.9 0C1.4 0 1.8 0.4 1.8 0.9C1.8 1.4 1.4 1.8 0.9 1.8C0.4 1.8 0 1.4 0 0.9Z" /><path id="Path 73" fill-rule="evenodd" style="fill:#9B1828" transform="translate(385.0787887573242 217.00837739776532)  rotate(0 0.900238037109375 0.9002685546875)" opacity="1" d="M0 0.9C0 0.4 0.4 0 0.9 0C1.4 0 1.8 0.4 1.8 0.9C1.8 1.4 1.4 1.8 0.9 1.8C0.4 1.8 0 1.4 0 0.9Z" /><path id="Path 74" fill-rule="evenodd" style="fill:#9B1828" transform="translate(391.8305892944336 215.20790132354657)  rotate(0 0.900238037109375 0.9002685546875)" opacity="1" d="M0 0.9C0 0.4 0.4 0 0.9 0C1.4 0 1.8 0.4 1.8 0.9C1.8 1.4 1.4 1.8 0.9 1.8C0.4 1.8 0 1.4 0 0.9Z" /><path id="Path 75" fill-rule="evenodd" style="fill:#9B1828" transform="translate(405.33422088623047 210.70668062042157)  rotate(0 0.900238037109375 0.9002685546875)" opacity="1" d="M0 0.9C0 0.4 0.4 0 0.9 0C1.4 0 1.8 0.4 1.8 0.9C1.8 1.4 1.4 1.8 0.9 1.8C0.4 1.8 0 1.4 0 0.9Z" /><path id="Path 76" fill-rule="evenodd" style="fill:#9B1828" transform="translate(414.7863388061528 207.105713213195)  rotate(0 0.9002075195310226 0.900238037109375)" opacity="1" d="M0 0.9C0 0.4 0.41 0 0.9 0C1.4 0 1.8 0.4 1.8 0.9C1.8 1.4 1.4 1.8 0.9 1.8C0.41 1.8 0 1.4 0 0.9Z" /><path id="Path 77" fill-rule="evenodd" style="fill:#9B1828" transform="translate(421.76320648193405 195.62762483428875)  rotate(0 2.8494803600265186 8.1021728515625)" opacity="1" d="M5.63 6.3C6.21 9.68 3.15 14.4 0 16.2L0 14.4C5.18 8.1 1.8 3.38 0 2.25L1.13 0C2.48 0.68 5.12 3.38 5.63 6.3Z" /><path id="Path 78" fill-rule="evenodd" style="fill:#9B1828" transform="translate(397.0069808959961 207.55584749053875)  rotate(0 2.182525359312308 5.964111328125)" opacity="1" d="M3.15 11.48C2.25 11.7 1.43 11.85 1.13 11.93C1.65 9.83 2.16 4.01 0 1.13L2.93 0C3.9 2.33 5.49 8.42 3.15 11.48Z" /><path id="Path 79" fill-rule="evenodd" style="fill:#9B1828" transform="translate(369.233963179374 216.33320649932782)  rotate(0 2.407733833896998 3.7314446180432697)" opacity="1" d="M4.82 0C2.83 0.9 2.94 4.8 3.24 7.2C3.24 7.43 1.07 7.52 0.99 7.43C-0.45 5.63 -0.06 2.85 0.54 1.13C1.14 0.98 3.2 0.36 4.82 0Z" /><path id="Path 80" fill-rule="evenodd" style="fill:#EDDBCD" transform="translate(137.06204986572266 96.60096772979657)  rotate(0 35.22196960449219 35.32619905906586)" opacity="1" d="M60.77 0C68.33 6.84 70.37 36.46 70.44 50.41C60.54 64.74 32.59 85.61 0 54.46C6.6 52.96 23.68 50.64 39.16 53.34C40.06 49.06 50.19 11.25 60.77 0Z" /><path id="Path 81" fill-rule="evenodd" style="fill:#EDBE99" transform="translate(155.06688690185547 96.60096772979657)  rotate(0 26.219558715820312 35.326269058762676)" opacity="1" d="M52.44 50.41C44.42 62.02 24.57 77.91 0 67C37.09 66.22 43.96 22.01 42.76 0C50.32 6.84 52.36 36.46 52.44 50.41Z" /><path id="Path 82" fill-rule="evenodd" style="fill:#FDFDFD" transform="translate(199.41418410930362 69.59747695664802)  rotate(0 108.92390083475249 76.64271514034888)" opacity="1" d="M83.49 152.81C77.41 150.79 -9.69 114.33 0.89 30.38C2.69 27.9 8.77 18.68 11.47 3.82C32.77 -1.35 87 -5.31 133.45 20.25C191.52 52.21 216.72 105.1 217.85 110.95C212.45 115.68 120.4 158.21 83.49 152.81Z" /><path id="Path 83" fill-rule="evenodd" style="fill:#EDDBCD" transform="translate(199.41418410930362 70.14871248077313)  rotate(0 65.71250557108061 76.36705209526141)" opacity="1" d="M85.74 64.49C72.83 95.97 63.91 156.24 131.43 145.47C112.89 150.78 95.34 154 83.49 152.26C77.41 150.24 -9.69 113.78 0.89 29.83C2.69 27.35 8.77 18.13 11.47 3.27C16.95 1.94 24.61 0.69 33.75 0C25.87 16.69 13.54 52.15 27.22 60.44C40.91 68.72 71.93 66.59 85.74 64.49Z" /><path id="Path 84" fill-rule="evenodd" style="fill:#FB8F6A" transform="translate(187.25055694580078 61.0414050466911)  rotate(0 12.15325927734375 20.480514526367188)" opacity="1" d="M13.05 40.96C12.83 38.26 4.5 24.08 0 18.45L7.88 0C8.33 0.45 10.8 13.28 24.31 14.18C24.31 17.1 16.2 38.71 13.05 40.96Z" /><path id="Path 85" fill-rule="evenodd" style="fill:#E1512B" transform="translate(190.17635345458984 79.49636873077313)  rotate(0 1.9318409545782629 5.063858032226591)" opacity="1" d="M0.68 0C1.88 2.63 4.19 8.33 3.83 10.13C3.29 9.23 1.05 5.63 0 4.05L0.68 0Z" /><path id="Path 86" fill-rule="evenodd" style="fill:#E1512B" transform="translate(190.40140533447266 65.09249147247235)  rotate(0 4.163604736328125 1.8467378206930505)" opacity="1" d="M6.53 0C7.07 1.08 7.95 2.78 8.33 3.38C6 3.68 1.08 4.14 0 2.7C2.03 2.4 6.17 1.08 6.53 0Z" /><path id="Path 87" fill-rule="evenodd" style="fill:#FDAA28" transform="translate(195.22425803313683 95.70072969268719)  rotate(0 2.5401346247890046 11.590621948242188)" opacity="1" d="M5.08 4.05L4.4 14.85C1.93 15.3 2.15 20.48 1.48 23.18C-2.12 11.03 1.93 0.9 2.38 0C2.9 0.9 4.72 3.69 5.08 4.05Z" /><path id="Path 88" fill-rule="evenodd" style="fill:#FABA56" transform="translate(199.4038314819336 71.84430726837078)  rotate(0 9.114959716796875 22.393524169921875)" opacity="1" d="M11.48 1.58C12.9 1.28 16.25 0.54 18.23 0C17.15 18.73 10.58 37.66 7.43 44.79C5.93 42.61 1.98 38.35 0 38.71L0.9 27.91C7.56 19.27 10.73 6.75 11.48 1.58Z" /><path id="Path 89" fill-rule="evenodd" style="fill:#FFE8B8" transform="translate(201.71746063232422 73.85546144317547)  rotate(0 5.507203979848441 14.714218139648438)" opacity="1" d="M10.96 0C11.34 5.74 9.75 19.64 0.32 29.43L0 29.12C9.3 19.46 10.89 5.69 10.52 0.03L10.96 0Z" /><path id="Path 90" fill-rule="evenodd" style="fill:#FFE8B8" transform="translate(203.9311294555664 73.37471803497235)  rotate(0 5.725177958485915 18.530792236328097)" opacity="1" d="M0.4 37.06L0 36.85C5.3 26.96 8.2 18.77 9.67 12.54C11.15 6.31 11.18 2.07 10.78 0.09L11.22 0C11.64 2.07 11.59 6.38 10.11 12.64C8.63 18.91 5.72 27.14 0.4 37.06Z" /><path id="Path 91" fill-rule="evenodd" style="fill:#FB8F6A" transform="translate(99.6455354964969 126.6952082846669)  rotate(0 10.043199048626548 9.259413536041393)" opacity="1" d="M0.28 9.52C-0.78 6.14 1.41 6.14 2.98 6.37C2.31 5.47 2.68 4.57 2.98 4.11C3.49674 3.34249 4.52743 3.61442 5.19002 3.78923C5.39936 3.84446 5.57196 3.89 5.68 3.89C5.01 2.76 5.46 1.64 5.91 1.41C7.03 0.85 9.13 1.49 9.96 1.86C9.81 1.49 10 0.6 11.08 0.06C14.01 -0.84 18.51 7.94 20.09 12.67C19.11 14.02 16.89 16.9 15.81 18.52C9.51 18.52 8.38 16.72 6.58 15.82C5.46 15.26 5.23 15.82 6.13 17.39C2.98 17.39 1.63 13.79 0.28 9.52Z" /><path id="Path 92" fill-rule="evenodd" style="fill:#FDFDFD" transform="translate(114.74551697389774 106.58094171529834)  rotate(0 87.4537834136859 54.9813308885596)" opacity="1" d="M71.6775 52.5569C71.8037 52.4143 71.9272 52.2748 72.05 52.14C79.98 44.03 98.46 14.85 106.71 1.27C139.35 -5.48 171.76 16.58 174.91 21.75C145.42 66.32 108.96 102.33 86.68 109.3C68.86 114.88 36.2 83.72 22.09 67.44C15.41 58.81 1.7 41.02 0.26 38.86C-1.18 31.66 3.71 31.51 6.34 32.33C16.46 38.11 39.78 50.56 52.02 54.16C66.4943 58.4144 69.4921 55.0267 71.6775 52.5569Z" /><path id="Path 93" fill-rule="evenodd" style="fill:#F88144" transform="translate(114.74551697389774 138.57057961247162)  rotate(0 6.094408413685898 6.2472878696976295)" opacity="1" d="M12.19 3.61C6.79 4.24 4.78 9.79 4.45 12.49C2.28 9.64 0.7 7.53 0.26 6.87C-1.18 -0.33 3.71 -0.48 6.34 0.34C7.98 1.28 9.96 2.39 12.19 3.61Z" /><path id="Path 94" fill-rule="evenodd" style="fill:#FCBF70" transform="translate(114.74551697389774 138.57057961247162)  rotate(0 4.856554409779648 5.1219826939163795)" opacity="1" d="M9.71 2.24C4.67 3.4 2.97 8.06 2.75 10.24C1.47 8.55 0.57 7.34 0.26 6.87C-1.18 -0.33 3.71 -0.48 6.34 0.34C7.34 0.91 8.47 1.55 9.71 2.24Z" /><path id="Path 95" fill-rule="evenodd" style="fill:#FAB956" transform="translate(221.82164764404297 99.62008651891844)  rotate(0 33.463165283203125 13.593357322968387)" opacity="1" d="M0 6.68C9.51 2.62 24.27 -1.25 37.64 0.38C44.33 1.19 50.68 3.38 55.84 7.62C61.01 11.86 64.98 18.14 66.93 27.09L66.49 27.19C64.56 18.32 60.64 12.14 55.56 7.97C50.47 3.8 44.21 1.63 37.58 0.83C24.32 -0.79 9.65 3.05 0.18 7.09L0 6.68Z" /><path id="Path 96" fill-rule="evenodd" style="fill:#FAB956" transform="translate(226.34044647216797 102.75907930206219)  rotate(0 29.624053955078125 10.462173461914062)" opacity="1" d="M27.97 0.56Z M28 0.11C27.25 0.06 26.49 0.02 25.73 0L25.72 0.45C26.47 0.47 27.22 0.51 27.97 0.56L28 0.11Z M21.21 0.472034Z M21.19 0.0220337C20.43 0.0520337 19.67 0.0920337 18.92 0.142034L18.95 0.592034C19.7 0.542034 20.45 0.502034 21.21 0.472034L21.19 0.0220337Z M14.4565 1.03469Z M14.3965 0.584686C13.6365 0.684686 12.8865 0.784686 12.1465 0.904686L12.2165 1.34469C12.9465 1.23469 13.6965 1.12469 14.4565 1.03469L14.3965 0.584686Z M34.6805 1.41783Z M34.7705 0.97783C34.0305 0.82783 33.2805 0.69783 32.5305 0.58783L32.4605 1.03783C33.2005 1.14783 33.9505 1.26783 34.6805 1.41783L34.7705 0.97783Z M7.76953 2.15899Z M7.67953 1.71899C6.91953 1.87899 6.17953 2.04899 5.45953 2.21899L5.56953 2.65899C6.27953 2.48899 7.01953 2.31899 7.76953 2.15899L7.67953 1.71899Z M41.1839 3.22684Z M41.3439 2.80684C40.6339 2.54684 39.9139 2.29684 39.1839 2.07684L39.0539 2.50684C39.7739 2.72684 40.4839 2.96684 41.1839 3.22684L41.3439 2.80684Z M1.21 3.8455Z M1.07 3.4155C0.71 3.5255 0.35 3.6455 0 3.7555L0.14 4.1855C0.49 4.0655 0.84 3.9555 1.21 3.8455L1.07 3.4155Z M47.229 6.20361Z M47.469 5.81361C46.829 5.41361 46.169 5.03361 45.499 4.67361L45.289 5.07361C45.949 5.42361 46.599 5.80361 47.229 6.20361L47.469 5.81361Z M52.4513 10.4342Z M52.7813 10.1242C52.2513 9.56416 51.7013 9.04416 51.1313 8.54416L50.8313 8.88416C51.3913 9.37416 51.9313 9.89416 52.4513 10.4342L52.7813 10.1242Z M56.4902 15.8053Z M56.8802 15.5853C56.4902 14.9153 56.0902 14.2753 55.6602 13.6553L55.2902 13.9053C55.7102 14.5153 56.1102 15.1553 56.4902 15.8053L56.8802 15.5853Z M58.8257 20.9232Z M59.2457 20.7732C59.1157 20.4032 58.9857 20.0432 58.8457 19.6932L58.4257 19.8532C58.5657 20.2032 58.6957 20.5632 58.8257 20.9232L59.2457 20.7732Z " /><path id="Path 97" fill-rule="evenodd" style="fill:#FAB956" transform="translate(289.66344451904297 129.8419650442497)  rotate(0 28.351776123046875 39.0943603515625)" opacity="1" d="M22.8 21.8C24.99 24.17 27.01 26.58 28.59 28.63C30.16 30.66 31.3 32.36 31.7 33.29C31.89 33.71 32.38 34.44 33.12 35.45C33.8 36.38 34.67 37.51 35.68 38.83C35.77 38.95 35.87 39.07 35.96 39.19C38.22 42.14 41.1 45.92 44.01 50.16C49.8 58.63 55.68 68.96 56.7 78.14L56.26 78.19C55.25 69.13 49.43 58.88 43.63 50.41C40.74 46.18 37.86 42.41 35.6 39.47C35.51 39.34 35.42 39.22 35.32 39.1C34.31 37.79 33.44 36.65 32.76 35.72C32.02 34.72 31.5 33.94 31.29 33.47C30.91 32.6 29.8 30.94 28.23 28.9C26.66 26.87 24.65 24.47 22.47 22.11C20.29 19.75 17.96 17.43 15.75 15.57C13.53 13.7 11.47 12.31 9.82 11.76C7.06 10.84 4.85 8.7 3.21 6.42C1.57 4.14 0.49 1.69 0 0.14L0.43 0C0.91 1.52 1.97 3.92 3.58 6.15C5.18 8.4 7.33 10.45 9.96 11.33C11.69 11.91 13.82 13.35 16.04 15.23C18.27 17.11 20.62 19.43 22.8 21.8Z" /><path id="Path 98" fill-rule="evenodd" style="fill:#FAB956" transform="translate(287.2458724975586 132.2240146047965)  rotate(0 28.098114013671875 37.89973449707034)" opacity="1" d="M0.8 1.1Z M1.11 0.78C0.84 0.51 0.58 0.25 0.31 0L0 0.32C0.26 0.58 0.53 0.84 0.8 1.1L1.11 0.78Z M5.61593 5.89963Z M5.93593 5.57964C5.39593 5.02963 4.85593 4.49963 4.33593 3.96964L4.01593 4.28964C4.53593 4.80964 5.07593 5.34964 5.61593 5.89963L5.93593 5.57964Z M10.3397 10.7574Z M10.6697 10.4474C10.1397 9.89741 9.60965 9.35741 9.08965 8.81741L8.76965 9.12741C9.28965 9.66741 9.80965 10.2074 10.3397 10.7574L10.6697 10.4474Z M14.9954 15.7018Z M15.3254 15.3918C14.8054 14.8418 14.2954 14.2818 13.7854 13.7418L13.4554 14.0518C13.9654 14.5918 14.4854 15.1418 14.9954 15.7018L15.3254 15.3918Z M19.5873 20.7109Z M19.9173 20.4109C19.4073 19.8409 18.9073 19.2809 18.3973 18.7309L18.0673 19.0309C18.5673 19.5909 19.0773 20.1409 19.5873 20.7109L19.9173 20.4109Z M24.0928 25.7871Z M24.4328 25.4871C23.9328 24.9171 23.4428 24.3471 22.9428 23.7871L22.6028 24.0871C23.1028 24.6471 23.6028 25.2171 24.0928 25.7871L24.4328 25.4871Z M28.5268 30.9353Z M28.8668 30.6453C28.3768 30.0653 27.8868 29.4853 27.3968 28.9153L27.0568 29.2053C27.5468 29.7853 28.0368 30.3553 28.5268 30.9353L28.8668 30.6453Z M32.8493 36.1628Z M33.1992 35.8828C32.7293 35.2928 32.2493 34.7028 31.7693 34.1228L31.4193 34.4128C31.8993 34.9928 32.3792 35.5728 32.8493 36.1628L33.1992 35.8828Z M37.0638 41.4794Z M37.4238 41.2094C36.9638 40.6094 36.4938 40.0194 36.0238 39.4194L35.6738 39.6994C36.1438 40.2894 36.6038 40.8894 37.0638 41.4794L37.4238 41.2094Z M41.1379 46.9095Z M41.5079 46.6495C41.0578 46.0395 40.6179 45.4295 40.1579 44.8195L39.7979 45.0895C40.2479 45.6995 40.6979 46.3095 41.1379 46.9095L41.5079 46.6495Z M45.034 52.472Z M45.404 52.222C44.984 51.592 44.564 50.972 44.124 50.342L43.754 50.602C44.184 51.222 44.614 51.852 45.034 52.472L45.404 52.222Z M48.6636 58.1844Z M49.0536 57.9544C48.6736 57.3144 48.2736 56.6644 47.8636 56.0144L47.4836 56.2544C47.8936 56.9044 48.2836 57.5444 48.6636 58.1844L49.0536 57.9544Z M51.9301 64.1283Z M52.3401 63.9283C52.0101 63.2583 51.6601 62.5883 51.3001 61.9083L50.9001 62.1183C51.2601 62.7983 51.6101 63.4683 51.9301 64.1283L52.3401 63.9283Z M54.5482 70.3437Z M54.9782 70.2037C54.7482 69.5037 54.4882 68.7937 54.1982 68.0637L53.7782 68.2337C54.0682 68.9537 54.3282 69.6537 54.5482 70.3437L54.9782 70.2037Z M55.7455 75.8018Z M56.1955 75.7618C56.1655 75.4018 56.1255 75.0218 56.0755 74.6418L55.6255 74.7018C55.6755 75.0818 55.7155 75.4418 55.7455 75.8018L56.1955 75.7618Z " /><path id="Path 99" fill-rule="evenodd" style="fill:#FAB956" transform="translate(294.6044235229492 106.72869905303875)  rotate(0 5.62652587890625 5.6265106201171875)" opacity="1" d="M0 5.63C0 2.52 2.52 0 5.63 0C8.73 0 11.25 2.52 11.25 5.63C11.25 8.73 8.73 11.25 5.63 11.25C2.52 11.25 0 8.73 0 5.63Z" /><path id="Path 100" fill-rule="evenodd" style="fill:#FAB956" transform="translate(218.98409271240234 136.43667634796063)  rotate(0 5.62652587890625 5.6265106201171875)" opacity="1" d="M0 5.63C0 2.52 2.52 0 5.63 0C8.73 0 11.25 2.52 11.25 5.63C11.25 8.73 8.73 11.25 5.63 11.25C2.52 11.25 0 8.73 0 5.63Z" /><path id="Path 101" fill-rule="evenodd" style="fill:#FAB956" transform="translate(336.01558685302734 142.2882541067497)  rotate(0 6.97686767578125 6.976882934570284)" opacity="1" d="M0 6.98C0 3.12 3.12 0 6.98 0C10.83 0 13.95 3.12 13.95 6.98C13.95 10.83 10.83 13.95 6.98 13.95C3.12 13.95 0 10.83 0 6.98Z" /><path id="Path 102" fill-rule="evenodd" style="fill:#FAB956" transform="translate(359.85507337901254 108.5291751272575)  rotate(0 7.6600449450152155 6.97686767578125)" opacity="1" d="M0.92 0L15.32 12.6C13.9 13.54 11.75 13.95 9.92 13.95C4.95 13.95 1.67 9 0.47 5.4C-0.51 2.48 0.24 0.23 0.92 0Z" /><path id="Path 103" fill-rule="evenodd" style="fill:#FAB956" transform="translate(304.5071029663086 184.5996554739372)  rotate(0 9.002410888671875 9.002410888671875)" opacity="1" d="M0 9C0 4.03 4.03 0 9 0C13.97 0 18 4.03 18 9C18 13.97 13.97 18 9 18C4.03 18 0 13.97 0 9Z" /><path id="Path 104" fill-rule="evenodd" style="fill:#FAB956" transform="translate(203.67998504638672 173.79673799346844)  rotate(0 9.002410888671875 9.002426147460938)" opacity="1" d="M0 9C0 4.03 4.03 0 9 0C13.97 0 18 4.03 18 9C18 13.97 13.97 18 9 18C4.03 18 0 13.97 0 9Z" /><path id="Path 105" fill-rule="evenodd" style="fill:#FAB956" transform="translate(262.64586639404297 70.3383766105633)  rotate(0 15.07904052734375 9.642869351120538)" opacity="1" d="M0 4.21L0 0.16C6.84 -0.74 22.96 2.48 30.16 4.21C30.16 12.53 23.41 19.29 15.08 19.29C6.75 19.29 0 12.53 0 4.21Z" /><path id="Path 106" fill-rule="evenodd" style="fill:#FAB956" transform="translate(382.37804412841797 149.28089937042157)  rotate(0 17.441986083984375 20.221694946289062)" opacity="1" d="M34.88 31.27C33.76 31.94 18.45 40.17 17.1 40.44C7.4 38.83 0 30.4 0 20.24C0 10 7.51 1.52 17.33 0C22.88 8.02 34.16 25.51 34.88 31.27Z" /><path id="Path 107" fill-rule="evenodd" style="fill:#FBA83F" transform="translate(284.2516403198242 172.44638093780438)  rotate(0 69.36165273081531 27.42345348002374)" opacity="1" d="M0 50.19C4.95 48.84 24.08 45.24 27.01 44.56C29.93 43.89 115.68 27.46 129.63 0C130.674 2.48901 131.985 5.14 133.284 7.76665C137.037 15.3553 140.689 22.7408 137.51 25.43C131.66 30.38 33.98 67.74 0 50.19Z" /><path id="Path 108" fill-rule="evenodd" style="fill:#FDFDFD" transform="translate(408.29781341552734 179.44216951202313)  rotate(0 5.213531494140739 10.187774658203125)" opacity="1" d="M10.02 20.38L0 0.33C0.11 0.22 0.23 0.11 0.34 0L10.43 20.18C10.3 20.24 10.16 20.31 10.02 20.38Z" /><path id="Path 109" fill-rule="evenodd" style="fill:#FDFDFD" transform="translate(400.32662200927734 185.88385042022625)  rotate(0 4.33172607421875 9.059356689453125)" opacity="1" d="M8.24 18.12L0 0.26C0.13 0.17 0.25 0.09 0.38 0L8.66 17.95C8.52 18.01 8.39 18.06 8.24 18.12Z" /><path id="Path 110" fill-rule="evenodd" style="fill:#FDFDFD" transform="translate(393.4042282104492 190.11903413604657)  rotate(0 4.52099609375 8.19805908203125)" opacity="1" d="M8.62 16.4L0 0.22C0.13 0.15 0.26 0.07 0.39 0L9.04 16.24C8.9 16.29 8.76 16.34 8.62 16.4Z" /><path id="Path 111" fill-rule="evenodd" style="fill:#FDFDFD" transform="translate(385.12874603271484 194.32720979522625)  rotate(0 3.8890380859375 7.794769287109375)" opacity="1" d="M7.35 15.59L0 0.19C0.14 0.13 0.27 0.06 0.41 0L7.78 15.44C7.64 15.49 7.49 15.54 7.35 15.59Z" /><path id="Path 112" fill-rule="evenodd" style="fill:#FDFDFD" transform="translate(377.25655364990234 197.77558931182782)  rotate(0 2.912078857421875 7.6876220703125)" opacity="1" d="M5.39 15.38L0 0.17C0.14 0.11 0.28 0.06 0.42 0L5.82 15.24C5.68 15.28 5.54 15.33 5.39 15.38Z" /><path id="Path 113" fill-rule="evenodd" style="fill:#FDFDFD" transform="translate(368.23751068115234 201.26268037628094)  rotate(0 2.9017333984375 7.3187255859375)" opacity="1" d="M5.37 14.64L0 0.15L0.42 0L5.8 14.51C5.66 14.55 5.51 14.6 5.37 14.64Z" /><path id="Path 114" fill-rule="evenodd" style="fill:#FDFDFD" transform="translate(360.8456344604492 203.83827241729657)  rotate(0 2.9815673828125 7.051849365234375)" opacity="1" d="M5.53 14.1L0 0.14C0.14 0.09 0.29 0.05 0.43 0L5.96 13.98C5.82 14.02 5.67 14.06 5.53 14.1Z" /><path id="Path 115" fill-rule="evenodd" style="fill:#FDFDFD" transform="translate(351.83419036865234 206.70553621124188)  rotate(0 2.719635009765625 6.8502197265625)" opacity="1" d="M5 13.7L0 0.13C0.14 0.09 0.29 0.04 0.43 0L5.44 13.59C5.29 13.63 5.15 13.66 5 13.7Z" /><path id="Path 116" fill-rule="evenodd" style="fill:#FDFDFD" transform="translate(342.84346771240234 209.31623872589032)  rotate(0 2.9591064453125 6.525634765625)" opacity="1" d="M5.47 13.05L0 0.12C0.15 0.08 0.29 0.04 0.44 0L5.92 12.95C5.77 12.99 5.62 13.02 5.47 13.05Z" /><path id="Path 117" fill-rule="evenodd" style="fill:#FDFDFD" transform="translate(335.4947738647461 211.29182466339032)  rotate(0 2.028900146484375 6.454742431640625)" opacity="1" d="M3.61 12.91L0 0.11C0.14 0.08 0.29 0.04 0.44 0L4.06 12.83C3.91 12.86 3.76 12.88 3.61 12.91Z" /><path id="Path 118" fill-rule="evenodd" style="fill:#FF930B" transform="translate(284.2516403198242 209.8064425833122)  rotate(0 28.69525146484375 8.743340542124656)" opacity="1" d="M57.39 0C54.76 1.07 48.61 6.19 45.91 15.84C27.54 18.44 10.65 18.33 0 12.83C4.95 11.48 24.08 7.88 27.01 7.2C28.16 6.94 41.07 4.33 57.39 0Z" /><path id="Path 119" fill-rule="evenodd" style="fill:#D17D13" transform="translate(284.2516403198242 215.46983369659344)  rotate(0 17.55474853515625 5.17657470703125)" opacity="1" d="M35.11 0C26.33 2.94 8.87 9.12 9.23 10.35C5.8 9.61 2.7 8.56 0 7.17C4.95 5.81 24.08 2.21 27.01 1.54C27.54 1.42 30.49 0.92 35.11 0Z" /><path id="Path 120" fill-rule="evenodd" style="fill:#FB8F6A" transform="translate(154.28258991702467 28.240340399343722)  rotate(0 22.785909173567745 33.71616659833059)" opacity="1" d="M45.57 30.1C45.57 36.85 43.77 36.85 37.69 39.33C39.05 44.05 38.1 50.58 36.12 55.53C33.27 62.66 21.94 71.91 14.74 64.98C-5.25 45.76 -0.87 14.1 4.61 0.57C17.59 -1.38 42.24 0.57 39.72 24.7C41.97 23.12 45.57 22.99 45.57 30.1Z" /><path id="Path 121" fill-rule="evenodd" style="fill:#E1512B" transform="translate(177.86103057861328 66.843017900695)  rotate(0 2.2505950927734375 2.4756622314453125)" opacity="1" d="M0 2.48C0 1.11 1.01 0 2.25 0C3.49 0 4.5 1.11 4.5 2.48C4.5 3.84 3.49 4.95 2.25 4.95C1.01 4.95 0 3.84 0 2.48Z" /><path id="Path 122" fill-rule="evenodd" style="fill:#5D1212" transform="translate(171.2474540690289 0.22502704092921988)  rotate(0 16.042184187105164 15.099570963988207)" opacity="1" d="M26.2745 9.75915C29.0541 11.6477 36.1138 16.444 29.01 30.2C21.98 27.82 7.09 24.37 0.52 22.94C0.22 21.62 -1.91 6.44 5.37 8.42C4.16 -0.16 20.83 -5.44 25.37 9.08C25.5305 9.25367 25.8534 9.47304 26.2745 9.75915Z" /><path id="Path 123" fill-rule="evenodd" style="fill:#000000" transform="translate(171.02226987863872 0)  rotate(0 16.26734694706576 15.349823159331862)" opacity="1" d="M7.7301 3.24013Z M20.2601 2.06013C18.1301 0.670125 15.7101 0.250125 13.4601 0.530125C11.2201 0.820125 9.1501 1.81013 7.7301 3.24013C6.3101 4.68013 5.5301 6.55013 5.8201 8.61013L5.8701 8.95013L5.5401 8.86013C4.6601 8.62013 3.9501 8.65013 3.3601 8.86013C2.7801 9.07013 2.3001 9.47013 1.9101 10.0201C1.1201 11.1401 0.720104 12.8401 0.550104 14.6901C0.230104 18.1701 0.750104 22.0201 0.940104 22.9701C7.5101 24.4101 22.0601 27.7901 29.1201 30.1501C33.1001 22.3701 32.4601 17.5601 30.7401 14.5301C29.8701 13.0001 28.7101 11.9001 27.6901 11.1101C27.2101 10.7301 26.7601 10.4301 26.3801 10.1701C26.3501 10.1601 26.3301 10.1401 26.3101 10.1301C25.9301 9.87013 25.6101 9.64013 25.4301 9.46013L25.4001 9.42013L25.3801 9.37013C24.2601 5.78013 22.3901 3.44013 20.2601 2.06013Z M25.8 9.18Z M26.63 9.8C26.61 9.78 26.59 9.77 26.56 9.75C26.2 9.5 25.94 9.32 25.8 9.18C24.65 5.54 22.73 3.12 20.51 1.68C18.27 0.23 15.75 -0.21 13.41 0.09C11.07 0.38 8.91 1.41 7.41 2.93C5.98 4.37 5.14 6.25 5.33 8.35C4.53 8.18 3.82 8.21 3.21 8.43C2.52 8.68 1.97 9.15 1.54 9.76C0.69 10.98 0.28 12.78 0.1 14.65C-0.24 18.39 0.37 22.54 0.53 23.21L0.56 23.35L0.7 23.38C7.27 24.81 22.15 28.27 29.16 30.64L29.35 30.7L29.44 30.53C33.55 22.56 32.97 17.53 31.14 14.31C30.23 12.7 29.02 11.57 27.97 10.75C27.47 10.37 27.01 10.06 26.63 9.8Z " /><path id="Path 124" fill-rule="evenodd" style="fill:#000000" transform="translate(176.88338470458984 8.320373292001705)  rotate(0 10.425460815429688 8.45897655163057)" opacity="1" d="M0 0.1C4.16 -0.58 14.03 1.88 20.85 16.73L20.44 16.92C13.68 2.2 3.99 -0.09 0.07 0.55L0 0.1Z" /><path id="Path 125" fill-rule="evenodd" style="fill:#000000" transform="translate(172.54779815673834 13.83694227360786)  rotate(0 8.955612182617159 5.536619547247184)" opacity="1" d="M17.91 10.88L17.5 11.07C14.49 4.64 10.97 1.81 7.83 0.86C4.68 -0.1 1.88 0.8 0.26 1.92L0 1.55C1.71 0.36 4.66 -0.58 7.96 0.42C11.26 1.43 14.86 4.38 17.91 10.88Z" /><path id="Path 126" fill-rule="evenodd" style="fill:#000000" transform="translate(185.25472259521484 7.762681297325685)  rotate(0 5.7428741455078125 1.513599412066739)" opacity="1" d="M11.49 1.35L11.25 1.73C9 0.32 6.72 0.24 4.77 0.71C2.81 1.19 1.19 2.22 0.3 3.03L0 2.69C0.93 1.85 2.62 0.77 4.66 0.27C6.71 -0.22 9.12 -0.14 11.49 1.35Z" /><path id="Path 127" fill-rule="evenodd" style="fill:#000000" transform="translate(181.8522567749023 2.004418699410053)  rotate(0 5.128677368164091 3.509822366755742)" opacity="1" d="M10.26 0.15L10.19 0.59C6.98 0.07 4.7 1.04 3.14 2.45C1.58 3.87 0.73 5.74 0.44 7.02L0 6.92C0.31 5.56 1.2 3.6 2.84 2.12C4.5 0.62 6.91 -0.39 10.26 0.15Z" /><path id="Path 128" fill-rule="evenodd" style="fill:#000000" transform="translate(195.1839370727539 11.283666933287748)  rotate(0 1.4490360070994939 6.108596801757841)" opacity="1" d="M0.46 0.87C0.41 0.8 0.37 0.74 0.32 0.67C0.26 0.58 0.2 0.49 0.15 0.41C0.08 0.29 0 0.15 0 0L0.45 0C0.45 0.01 0.46 0.06 0.53 0.18C0.57 0.24 0.62 0.32 0.68 0.4C0.73 0.47 0.78 0.54 0.83 0.62C1.09 1.01 1.43 1.57 1.76 2.44C2.42 4.16 3.03 7.08 2.87 12.22L2.42 12.2C2.58 7.11 1.97 4.25 1.34 2.6C1.03 1.77 0.7 1.24 0.46 0.87Z" /><path id="Path 129" fill-rule="evenodd" style="fill:#000000" transform="translate(197.95757293701172 12.136649454344877)  rotate(0 1.168086063772023 6.687225341796889)" opacity="1" d="M0.36 0C1.42 1.39 3.14 5.94 1.92 13.37L1.47 13.3C2.68 5.95 0.96 1.53 0 0.27L0.36 0Z" /><path id="Path 130" fill-rule="evenodd" style="fill:#5D1212" transform="translate(146.97443084494097 21.050339589880622)  rotate(0 31.355352234054095 26.272239423961878)" opacity="1" d="M51.3 31.61C50.4 30.26 47.56 30.76 46.35 32.74C43.73 30.65 37.22 23.96 37.22 21.59L37.22 9.04C36.82 14.32 32.73 24.62 19.64 23.57C6.07793 22.4764 6.90892 31.342 7.59302 38.6405C7.73466 40.1516 7.87 41.5955 7.87 42.87C3.14 37.69 -2.79 24.89 1.45 18.62C4.85 13.6 9.94 9.04 12.06 7.39C12.06 4.53 14.61 -0.92 24.79 0.13C37.52 1.45 54.12 5.28 56.92 13C65.37 36.29 63.38 50.42 58.51 52.54C51.3 49.39 50.18 44.44 50.18 44.44C53.1 42.87 53.78 35.66 51.3 31.61Z" /><path id="Path 131" fill-rule="evenodd" style="fill:#000000" transform="translate(146.74913421754974 20.825357727517115)  rotate(0 31.58042123447845 26.507616059184144)" opacity="1" d="M14.9801 2.69022Z M51.7201 31.7202C52.9901 33.8002 53.4401 36.6602 53.2201 39.2002C53.1001 40.4702 52.8201 41.6702 52.3701 42.6602C51.9501 43.5802 51.3801 44.3302 50.6701 44.7702C50.6701 44.7902 50.6801 44.8002 50.6801 44.8202C50.7201 44.9502 50.7901 45.1502 50.9001 45.4002C51.1101 45.9002 51.4701 46.6002 52.0501 47.4002C53.2001 48.9902 55.2201 50.9702 58.7301 52.5202C59.8301 52.0002 60.8001 50.8002 61.5201 48.8902C62.2401 46.9302 62.6801 44.2702 62.7101 40.9302C62.7601 34.2602 61.1501 24.9302 56.9301 13.3102C56.2501 11.4402 54.7301 9.78022 52.6101 8.33022C50.4801 6.88022 47.7601 5.65022 44.7301 4.61022C38.6601 2.53022 31.3501 1.24022 24.9901 0.580218C19.9401 0.0602182 16.8301 1.15022 14.9801 2.69022C13.1201 4.24022 12.5101 6.25022 12.5101 7.62022L12.5101 7.73022L12.4301 7.80022C10.3101 9.44022 5.24013 13.9802 1.87013 18.9702C0.840132 20.4802 0.420132 22.4102 0.450132 24.5402C0.480132 26.6802 0.970132 29.0002 1.74013 31.3102C3.18013 35.6502 5.62013 39.8702 7.86013 42.4902C7.83013 41.3802 7.71013 40.1702 7.59013 38.9002C7.53013 38.2102 7.46013 37.4902 7.41013 36.7702C7.23013 34.5102 7.16013 32.1802 7.62013 30.1102C8.08013 28.0402 9.07013 26.2202 11.0001 25.0102C12.9301 23.8102 15.7701 23.2302 19.8801 23.5702C26.3601 24.0902 30.5801 21.8102 33.2401 18.7602C35.9101 15.7002 37.0201 11.8602 37.2201 9.25022L37.6701 9.27022L37.6701 21.8102C37.6701 22.0602 37.7601 22.3902 37.9401 22.8002C38.1101 23.1902 38.3701 23.6502 38.6901 24.1402C39.3301 25.1202 40.2201 26.2402 41.2001 27.3502C43.0501 29.4602 45.2001 31.5502 46.5301 32.6302C47.1801 31.7102 48.1701 31.1302 49.1201 30.9302C50.1401 30.7202 51.1901 30.9302 51.7201 31.7102L51.7201 31.7202L51.7201 31.7202Z M50.4 44.67Z M50.19 44.74C50.19 44.75 50.2 44.76 50.2 44.78C50.21 44.82 50.23 44.88 50.25 44.95C50.3 45.1 50.37 45.31 50.48 45.58C50.71 46.11 51.08 46.84 51.68 47.67C52.89 49.33 55 51.38 58.64 52.98L58.73 53.02L58.82 52.98C60.12 52.41 61.19 51.06 61.94 49.05C62.69 47.03 63.13 44.31 63.16 40.93C63.21 34.19 61.59 24.81 57.36 13.15C56.63 11.16 55.03 9.44 52.86 7.96C50.69 6.48 47.93 5.23 44.88 4.18C38.76 2.09 31.42 0.8 25.04 0.14C19.91 -0.4 16.66 0.71 14.69 2.35C12.77 3.94 12.1 6.02 12.06 7.51C9.88 9.22 4.86 13.74 1.49 18.71C0.4 20.33 -0.03 22.36 0 24.55C0.04 26.74 0.53 29.12 1.31 31.45C2.86 36.11 5.54 40.63 7.93 43.24L8.32 43.67L8.32 43.09C8.32 41.81 8.18 40.35 8.04 38.83C7.97 38.14 7.91 37.44 7.85 36.74C7.68 34.48 7.62 32.21 8.06 30.21C8.5 28.22 9.43 26.52 11.24 25.4C13.05 24.26 15.78 23.69 19.85 24.01C26.46 24.55 30.83 22.21 33.58 19.05C35.51 16.85 36.64 14.25 37.22 11.97L37.22 21.81C37.22 22.15 37.34 22.55 37.52 22.98C37.71 23.41 37.98 23.88 38.31 24.39C38.97 25.39 39.88 26.52 40.86 27.64C42.82 29.88 45.11 32.08 46.44 33.14L46.64 33.3L46.77 33.08C47.34 32.15 48.3 31.56 49.22 31.37C50.14 31.18 50.96 31.4 51.34 31.96C52.54 33.93 52.99 36.69 52.77 39.16C52.66 40.39 52.38 41.54 51.96 42.48C51.53 43.41 50.97 44.11 50.3 44.47L50.15 44.55L50.18 44.72L50.4 44.67C50.18 44.72 50.18 44.72 50.18 44.72L50.18 44.72L50.18 44.72L50.19 44.72L50.19 44.74Z " /><path id="Path 132" fill-rule="evenodd" style="fill:#000000" transform="translate(159.4974594116211 24.37275772773117)  rotate(0 6.1781158447265625 2.1220805793408175)" opacity="1" d="M12.36 0.56L12.18 0.98C10.07 0.09 7.67 0.43 5.48 1.24C3.3 2.05 1.39 3.32 0.29 4.24L0 3.9C1.13 2.95 3.09 1.65 5.32 0.82C7.56 -0.01 10.1 -0.39 12.36 0.56Z" /><path id="Path 133" fill-rule="evenodd" style="fill:#000000" transform="translate(157.29724884033197 25.23996277329951)  rotate(0 10.875595092773466 9.69658714926905)" opacity="1" d="M0.45 19.39L0 19.36C0.61 11.36 4.36 6.46 8.82 3.59C13.26 0.73 18.38 -0.1 21.75 0.01L21.74 0.46C18.44 0.35 13.41 1.17 9.06 3.97C4.72 6.77 1.05 11.55 0.45 19.39Z" /><path id="Path 134" fill-rule="evenodd" style="fill:#000000" transform="translate(150.4160333030856 33.51020082305831)  rotate(0 5.253008586494303 11.528961181640597)" opacity="1" d="M1.86 22.92L1.44 23.06C-1.01 15.74 -0.05 10.37 2.18 6.62C4.39 2.88 7.85 0.78 10.37 0L10.51 0.43C8.08 1.19 4.72 3.22 2.56 6.85C0.42 10.47 -0.54 15.71 1.86 22.92Z" /><path id="Path 135" fill-rule="evenodd" style="fill:#000000" transform="translate(189.76810455322266 29.71252855132974)  rotate(0 3.6210280144638887 9.98953247070314)" opacity="1" d="M4.54 10.25C5.69 7.33 6.46 4.23 6.25 1.55C6.22 1.37 6.19 1.18 6.17 1C6.12 0.7 6.07 0.39 6.02 0.09L6.47 0C6.58 0.48 6.66 0.98 6.7 1.49C7.08 3.93 7.41 6.34 7.15 8.98C6.84 12.16 5.69 15.66 2.8 19.98L2.42 19.73C5.28 15.46 6.41 12.03 6.7 8.94C6.86 7.31 6.79 5.77 6.62 4.24C6.38 6.28 5.75 8.4 4.96 10.41C3.58 13.91 1.69 17.11 0.37 18.99L0 18.73C1.3 16.88 3.18 13.71 4.54 10.25Z" /><path id="Path 136" fill-rule="evenodd" style="fill:#0EAD69" transform="translate(558.0536056945059 255.33706032306313)  rotate(0 17.60282638900435 29.31337365133504)" opacity="1" d="M29.72 0.34C44.56 5.08 26.57 71.07 7.94 56.54C-15.05 29.76 18.04 -3.76 29.72 0.34Z" /><path id="Path 137" fill-rule="evenodd" style="fill:#145557" transform="translate(564.5865707397461 266.8043673879997)  rotate(0 7.6768798828125 27.5953369140625)" opacity="1" d="M15.35 0.49C10.66 7.79 1.15 29.01 0.9 55.19L0 55.18C0.25 28.82 9.82 7.43 14.6 0L15.35 0.49Z" /><path id="Path 138" fill-rule="evenodd" style="fill:#145557" transform="translate(563.3307723999019 272.6491855032341)  rotate(0 3.09228515625 10.90191650390625)" opacity="1" d="M0.89 0C1.46 3.1 2.43 7.89 3.43 12.19C3.93 14.34 4.45 16.36 4.93 17.99C5.17 18.8 5.4 19.5 5.61 20.07C5.83 20.65 6.03 21.06 6.18 21.3L5.44 21.8C5.22 21.48 5 20.98 4.77 20.39C4.55 19.79 4.31 19.06 4.06 18.24C3.58 16.6 3.06 14.55 2.56 12.4C1.54 8.08 0.58 3.27 0 0.16L0.89 0Z" /><path id="Path 139" fill-rule="evenodd" style="fill:#0EAD69" transform="translate(552.0119390009886 175.01325643468735)  rotate(0 23.994059273798825 37.92503412079492)" opacity="1" d="M8.93 71.83C-10.11 50.98 4.19 19.09 24.72 5.2C45.24 -8.69 52.19 6.78 45.56 33.62C32.17 81.61 15.56 79.09 8.93 71.83Z" /><path id="Path 140" fill-rule="evenodd" style="fill:#145557" transform="translate(551.92138093066 189.42762788604657)  rotate(0 16.059706720949066 68.179443359375)" opacity="1" d="M32.12 0.51C21.02 16.43 -0.07 65.69 0.94 136.35L0.03 136.36C-0.97 65.55 20.16 16.09 31.38 0L32.12 0.51Z" /><path id="Path 141" fill-rule="evenodd" style="fill:#145557" transform="translate(569.9025497436523 208.18238862823407)  rotate(0 14.165222167968977 4.849853515625)" opacity="1" d="M28.25 0L28.33 0.9C24.09 1.27 18.55 2.81 13.33 4.59C8.12 6.37 3.25 8.39 0.37 9.7L0 8.88C2.91 7.56 7.8 5.53 13.04 3.74C18.28 1.95 23.9 0.38 28.25 0Z" /><path id="Path 142" fill-rule="evenodd" style="fill:#3BCEAC" transform="translate(467.77663413549794 120.53261834387317)  rotate(0 23.994069108336475 37.92514254284583)" opacity="1" d="M2.43 33.62C-4.2 6.78 2.74 -8.7 23.27 5.2C43.79 19.09 58.1 50.99 39.06 71.83C32.43 79.09 15.82 81.61 2.43 33.62Z" /><path id="Path 143" fill-rule="evenodd" style="fill:#145557" transform="translate(482.95717620849564 143.56211885284344)  rotate(0 26.276320579144453 93.16471862792969)" opacity="1" d="M32.09 71.17C43.47 107.34 53.04 150.89 52.53 186.33L51.63 186.32C52.14 151.02 42.6 107.58 31.23 71.44C25.55 53.38 19.41 37.15 13.85 24.7C11.07 18.47 8.43 13.19 6.07 9.1C3.7 4.99 1.64 2.12 0 0.67L0.59 0C2.35 1.55 4.48 4.53 6.85 8.65C9.23 12.78 11.88 18.08 14.67 24.33C20.25 36.82 26.4 53.08 32.09 71.17Z" /><path id="Path 144" fill-rule="evenodd" style="fill:#145557" transform="translate(473.42812347412064 165.55458101104657)  rotate(0 13.215515136718977 4.3760833740234375)" opacity="1" d="M0.08 0C8.75 0.76 20.63 5.3 26.43 7.93L26.06 8.75C20.28 6.12 8.51 1.65 0 0.9L0.08 0Z" /><path id="Path 145" fill-rule="evenodd" style="fill:#0EAD69" transform="translate(487.45772551169057 203.97139764778646)  rotate(0 23.58370964729204 38.62252144837362)" opacity="1" d="M2.32 34.81C-4.31 7.97 3.37 -8.92 23.89 4.98C44.42 18.87 56.1 53.54 38.73 72.55C30.94 81.08 15.71 82.8 2.32 34.81Z" /><path id="Path 146" fill-rule="evenodd" style="fill:#145557" transform="translate(504.0363998413086 226.06166108917157)  rotate(0 15.679992675781023 68.34933471679688)" opacity="1" d="M16.78 45.83C11.15 23.03 5.01 7.86 0 0.51L0.75 0C5.84 7.49 12.02 22.79 17.65 45.62C23.29 68.46 28.41 98.87 31.36 136.63L30.46 136.7C27.51 98.99 22.41 68.62 16.78 45.83Z" /><path id="Path 147" fill-rule="evenodd" style="fill:#3BCEAC" transform="translate(517.5124461287719 201.10428209296944)  rotate(0 23.584705605871363 38.62263311272852)" opacity="1" d="M8.44 72.55C-8.93 53.54 2.75 18.87 23.28 4.98C43.8 -8.92 51.48 7.97 44.85 34.81C31.46 82.8 16.23 81.08 8.44 72.55Z" /><path id="Path 148" fill-rule="evenodd" style="fill:#145557" transform="translate(536.1536315425558 223.4478000051872)  rotate(0 6.013008905236006 68.07769775390625)" opacity="1" d="M12.03 0C12.03 4.82 10.89 10.96 9.37 18.61C9.18 19.56 8.98 20.53 8.78 21.53C7.36 28.58 5.69 36.84 4.26 46.49C0.99 68.5 -1.07 97.72 3.76 136.04L2.87 136.16C-1.98 97.74 0.09 68.44 3.37 46.35C4.81 36.69 6.48 28.4 7.89 21.35C8.1 20.35 8.29 19.38 8.48 18.43C10.01 10.76 11.13 4.71 11.13 0L12.03 0Z" /><path id="Path 149" fill-rule="evenodd" style="fill:#3BCEAC" transform="translate(446.5205731619419 214.52704924444615)  rotate(0 31.77807795985109 32.86011059827183)" opacity="1" d="M58.84 61.05C47.24 76.34 19.71 50.63 8.61 33.57C-5.58 11.79 -5.26 -12.21 32.95 7.05C53.47 20.95 72.73 42.74 58.84 61.05Z" /><path id="Path 150" fill-rule="evenodd" style="fill:#145557" transform="translate(468.9943466186519 232.06044038604657)  rotate(0 24.036014869656015 65.3175048828125)" opacity="1" d="M0 0.51L0.74 0C1.98 1.81 3.76 3.71 5.96 5.83C6.98 6.83 8.09 7.87 9.27 8.98L9.49 9.19C10.76 10.38 12.09 11.63 13.48 12.98C19.03 18.36 25.38 25.17 31.12 34.55C42.6 53.31 51.57 82.28 46.73 130.64L45.84 130.55C50.66 82.35 41.72 53.58 30.35 35.02C24.67 25.73 18.37 18.98 12.85 13.63C11.47 12.28 10.14 11.03 8.88 9.85L8.65 9.63C7.47 8.53 6.36 7.48 5.33 6.48C3.13 4.35 1.29 2.4 0 0.51Z" /><path id="Path 151" fill-rule="evenodd" style="fill:#145557" transform="translate(450.32338714599564 239.13587983917157)  rotate(0 15.468383789062955 2.9319842958775553)" opacity="1" d="M26.2 5.68C23.91 5.45 20.99 4.99 17.87 4.44C12.04 3.4 5.47 2.03 0.94 1.08C0.62 1.01 0.3 0.94 0 0.88L0.18 0C0.49 0.06 0.8 0.13 1.13 0.2C5.65 1.15 12.21 2.52 18.03 3.55C21.14 4.1 24.04 4.55 26.3 4.79C27.42 4.91 28.38 4.97 29.12 4.96C29.49 4.96 29.8 4.94 30.04 4.91C30.28 4.87 30.43 4.82 30.5 4.78L30.94 5.57C30.73 5.69 30.46 5.76 30.17 5.8C29.87 5.84 29.52 5.86 29.13 5.86C28.34 5.87 27.34 5.8 26.2 5.68Z" /><path id="Path 152" fill-rule="evenodd" style="fill:#F4B453" transform="translate(502.51497650146484 321.99058564971847)  rotate(0 41.05096435546898 52.2586669921875)" opacity="1" d="M11.37 104.52L0 0L82.1 0L68.21 104.52L11.37 104.52Z" /><path id="Path 153" fill-rule="evenodd" style="fill:#E38E26" transform="translate(542.3011703491211 321.99058564971847)  rotate(0 21.157958984375 52.2586669921875)" opacity="1" d="M0 104.52L1.26 0L42.32 0L28.42 104.52L0 104.52Z" /><path id="Path 154" fill-rule="evenodd" style="fill:#FFFFFF" transform="translate(504.7249984741211 338.5009921438591)  rotate(0 38.83868408203148 0.22503662109375)" opacity="1" d="M0 0L77.68 0L77.68 0.45L0 0.45L0 0Z" /><path id="Path 155" fill-rule="evenodd" style="fill:#FFFFFF" transform="translate(506.30495452880905 356.1840060598747)  rotate(0 36.62860107421852 0.22503662109375)" opacity="1" d="M0 0L73.26 0L73.26 0.45L0 0.45L0 0Z" /><path id="Path 156" fill-rule="evenodd" style="fill:#FFFFFF" transform="translate(505.73323822021484 338.39570649932784)  rotate(0 37.364501953125 9.182708740234375)" opacity="1" d="M56.47 17.07L66.56 0.04L74.73 13.11L74.19 13.44L66.57 1.25L56.46 18.32L46.68 1.29C45.98 2.55 45.11 4.1 44.18 5.72C43.41 7.06 42.62 8.46 41.87 9.8C40.97 11.4 40.12 12.94 39.46 14.23C38.79 15.53 38.31 16.56 38.13 17.16L37.92 17.87L37.56 17.22L37.27 16.72C37.09 16.4 36.83 15.93 36.5 15.35C35.86 14.2 34.96 12.61 33.97 10.87C32.1 7.59 29.9 3.77 28.38 1.27L18.88 18.37L10.01 1.25L0.51 14.72L0 14.36L10.09 0.04L18.9 17.03L28.34 0.02L28.63 0.48C30.16 2.96 32.53 7.07 34.52 10.56C35.51 12.3 36.41 13.89 37.06 15.04C37.35 15.56 37.59 15.99 37.77 16.31C38.03 15.68 38.42 14.87 38.9 13.94C39.57 12.64 40.42 11.1 41.32 9.49C42.07 8.14 42.87 6.74 43.63 5.4C44.68 3.56 45.66 1.84 46.4 0.5L46.67 0L56.47 17.07Z" /><path id="Path 157" fill-rule="evenodd" style="fill:#390B0B" transform="translate(0 426.6158603079216)  rotate(0 294.6041374206543 0.6751708984375)" opacity="1" d="M589.21 1.35L0 1.35L0 0L589.21 0L589.21 1.35Z" /></g></svg>