<svg xmlns="http://www.w3.org/2000/svg" xmlns:xlink="http://www.w3.org/1999/xlink" width="23" height="23" viewBox="0 0 23 23" fill="none"><g opacity="1" transform="translate(0 0)  rotate(0 11.5 11.5)"><path id="Path 3297" fill-rule="evenodd" style="fill:#FFFEFE" transform="translate(13.603733329404818 2.874822354527233)  rotate(0 3.2607209081626785 3.2607246755501045)" opacity="1" d="M6.5 5.62C6.6 6 6.37 6.39 5.99 6.5C5.93 6.51 5.86 6.52 5.8 6.52C5.48 6.52 5.19 6.31 5.11 5.99C4.51 3.76 2.76 2.01 0.53 1.41C0.15 1.31 -0.08 0.92 0.02 0.53C0.13 0.15 0.52 -0.08 0.91 0.02C3.62 0.76 5.77 2.9 6.5 5.62Z" /><path id="Path 3298" fill-rule="evenodd" style="fill:#FFFEFE" transform="translate(12.859435984963923 5.652544777125282)  rotate(0 2.24401046267163 2.244010070696394)" opacity="1" d="M4.46 3.58C4.57 3.97 4.34 4.36 3.96 4.46C3.89 4.48 3.83 4.49 3.77 4.49C3.45 4.49 3.16 4.28 3.07 3.96C2.74 2.72 1.77 1.75 0.53 1.41C0.15 1.31 -0.08 0.92 0.02 0.53C0.13 0.15 0.52 -0.08 0.91 0.02C2.63 0.49 4 1.85 4.46 3.58Z" /><path id="Path 3299" fill-rule="evenodd" style="fill:#FFFEFE" transform="translate(2.874995470046997 2.185262680053711)  rotate(0 8.969797735453433 8.96986961364746)" opacity="1" d="M12.94 17.94Z M4.39 0.01C1.89 0.33 0 2.48 0 5C0 8.46 1.35 11.71 3.79 14.15C6.23 16.59 9.48 17.94 12.94 17.94C12.94 17.94 12.94 17.94 12.94 17.94C15.46 17.94 17.61 16.05 17.93 13.54C18.01 12.91 17.65 12.3 17.07 12.05L12.86 10.24C12.68 10.17 12.49 10.13 12.29 10.13C12.01 10.13 11.73 10.21 11.5 10.37L9.25 11.87C7.88 11.21 6.75 10.09 6.08 8.72C6.08 8.72 6.08 8.72 6.08 8.72L7.58 6.44C7.84 6.03 7.89 5.53 7.7 5.08L5.89 0.87C5.67 0.34 5.15 0 4.57 0C4.51 0 4.46 0 4.39 0.01Z M4.5675 1.43775Z M8.6375 13.1677C8.6375 13.1677 8.6275 13.1677 8.6275 13.1677C6.9675 12.3678 5.5975 11.0077 4.7875 9.34775C4.7875 9.34775 4.7875 9.33775 4.7875 9.33775C4.5675 8.88775 4.6075 8.34775 4.8875 7.92775L6.3775 5.64775L4.5675 1.43775C2.7875 1.66775 1.4375 3.19775 1.4375 4.99775C1.4375 8.07775 2.6375 10.9578 4.8075 13.1378C6.9775 15.3078 9.8675 16.4978 12.9375 16.4978C14.7375 16.4978 16.2675 15.1578 16.4975 13.3678L12.2975 11.5678L10.0475 13.0678C9.8075 13.2278 9.5375 13.3078 9.2475 13.3078C9.2475 13.3078 9.2475 13.3078 9.2475 13.3078C9.0375 13.3078 8.8275 13.2577 8.6375 13.1677Z " /></g></svg>