<svg xmlns="http://www.w3.org/2000/svg" xmlns:xlink="http://www.w3.org/1999/xlink" width="80" height="80" viewBox="0 0 70 70" fill="none"><defs><filter id="filter_2" x="-60" y="-60" width="180" height="180" filterUnits="userSpaceOnUse" color-interpolation-filters="sRGB"><feFlood flood-opacity="0" result="BackgroundImageFix"/>
          <feColorMatrix in="SourceAlpha" type="matrix" values="0 0 0 0 0 0 0 0 0 0 0 0 0 0 0 0 0 0 127 0"/>
          <feOffset dx="0" dy="16"/>
          <feGaussianBlur stdDeviation="30"/>
          <feColorMatrix type="matrix" values="0 0 0 0 0.9921568627450981 0 0 0 0 0.3137254901960784 0 0 0 0 0.33725490196078434 0 0 0 0.06 0"/>
          <feBlend mode="normal" in2="BackgroundImageFix" result="effect1_Shadow"/>
          <feBlend mode="normal" in="SourceGraphic" in2="effect1_Shadow" result="shape"/></filter></defs><g opacity="1" transform="translate(5 5)  rotate(0 30 30)"><g id="Fill" filter="url(#filter_2)"><path id="Fill" fill-rule="evenodd" style="fill:#FFFFFF" transform="translate(0 0)  rotate(0 30 30)" opacity="1" d="M60 30C60 46.57 46.57 60 30 60C13.43 60 0 46.57 0 30C0 13.43 13.43 0 30 0C46.57 0 60 13.43 60 30Z" /><path  id="Fill" style="stroke:#0EAD69; stroke-width:1; stroke-opacity:1; stroke-dasharray:0 0" transform="translate(0 0)  rotate(0 30 30)" d="M0,30Z M30,60C46.57,60 60,46.57 60,30C60,13.43 46.57,0 30,0C13.43,0 0,13.43 0,30C0,46.57 13.43,60 30,60Z " /></g><path id="Icon" fill-rule="evenodd" style="fill:#0EAD69" transform="translate(27 23)  rotate(0 4.5 7)" opacity="1" d="M9 7L0 14L0 0L9 7Z" /></g></svg>