<svg xmlns="http://www.w3.org/2000/svg" xmlns:xlink="http://www.w3.org/1999/xlink" width="93" height="16" viewBox="0 0 93 16" fill="none"><g opacity="1" transform="translate(0 0)  rotate(0 46.400001525878906 8)"><path id="Star 11" fill-rule="evenodd" style="fill:#FAB33F" transform="translate(0 0)  rotate(0 8 8)" opacity="1" d="M11.24,9.95L16,6.11L10,5.95L8,0L6,5.95L0,6.11L4.76,9.95L3.06,16L8,12.42L12.94,16L11.24,9.95Z " /><path id="Star 12" fill-rule="evenodd" style="fill:#FAB33F" transform="translate(19.199996948242188 0)  rotate(0 8 8)" opacity="1" d="M3.06,16L8,12.42L12.94,16L11.24,9.95L16,6.11L10,5.95L8,0L6,5.95L0,6.11L4.76,9.95L3.06,16Z " /><path id="Star 13" fill-rule="evenodd" style="fill:#FAB33F" transform="translate(38.399993896484375 0)  rotate(0 8 8)" opacity="1" d="M8,0L6,5.95L0,6.11L4.76,9.95L3.06,16L8,12.42L12.94,16L11.24,9.95L16,6.11L10,5.95L8,0Z " /><path id="Star 14" fill-rule="evenodd" style="fill:#FAB33F" transform="translate(57.600006103515625 0)  rotate(0 8 8)" opacity="1" d="M11.24,9.95L16,6.11L10,5.95L8,0L6,5.95L0,6.11L4.76,9.95L3.06,16L8,12.42L12.94,16L11.24,9.95Z " /><path id="Star 15" fill-rule="evenodd" style="fill:#FAB33F" transform="translate(76.80000305175781 0)  rotate(0 8 8)" opacity="1" d="M6,5.95L0,6.11L4.76,9.95L3.06,16L8,12.42L12.94,16L11.24,9.95L16,6.11L10,5.95L8,0L6,5.95Z " /></g></svg>