<svg xmlns="http://www.w3.org/2000/svg" xmlns:xlink="http://www.w3.org/1999/xlink" width="60" height="60" viewBox="0 0 60 60" fill="none"><g opacity="1" transform="translate(0 0)  rotate(0 30 30)"><path id="Ellipse 1014" fill-rule="evenodd" style="fill:#FEF0C3" transform="translate(0 0)  rotate(0 30 30)" opacity="1" d="M30,0C13.43,0 0,13.43 0,30C0,46.57 13.43,60 30,60C46.57,60 60,46.57 60,30C60,13.43 46.57,0 30,0Z " /><g opacity="1" transform="translate(18 18)  rotate(0 12 12)"><path id="Path 3289" fill-rule="evenodd" style="fill:#073B4C" transform="translate(0.7591518914406947 3.7500038146972656)  rotate(0 11.24542405427965 8.25)" opacity="1" d="M14.24 16.5Z M22.49 8.25C22.49 3.7 18.79 0 14.24 0C11.02 0 8.22 1.86 6.86 4.56C4.81 4.27 2.71 5.06 1.37 6.68C-0.1 8.46 -0.42 10.96 0.57 13.05C1.55 15.14 3.68 16.5 5.99 16.5L14.24 16.5C18.79 16.5 22.49 12.8 22.49 8.25Z M6.00899 6Z M2.52899 7.63C1.41899 8.97 1.18899 10.85 1.91899 12.41C2.65899 13.98 4.25899 15 5.98899 15L14.239 15C17.959 15 20.989 11.97 20.989 8.25C20.989 4.53 17.959 1.5 14.239 1.5C10.519 1.5 7.48899 4.53 7.48899 8.25C7.48899 8.66 7.15899 9 6.73899 9C6.32899 9 5.98899 8.66 5.98899 8.25C5.98899 7.47 6.09899 6.72 6.29899 6.01C6.19899 6 6.09899 6 6.00899 6C4.67899 6 3.38899 6.59 2.52899 7.63Z " /><path id="Path 3290" fill-rule="evenodd" style="fill:#073B4C" transform="translate(10.499996185302763 10.124998092651339)  rotate(0 4.125003814697216 3.000000953674345)" opacity="1" d="M3 4.19L6.97 0.22C7.26 -0.07 7.74 -0.07 8.03 0.22C8.32 0.51 8.32 0.99 8.03 1.28L3.53 5.78C3.38 5.93 3.19 6 3 6C2.81 6 2.62 5.93 2.47 5.78L0.22 3.53C-0.07 3.24 -0.07 2.76 0.22 2.47C0.51 2.18 0.99 2.18 1.28 2.47L3 4.19Z" /></g></g></svg>