<svg xmlns="http://www.w3.org/2000/svg" xmlns:xlink="http://www.w3.org/1999/xlink" width="60" height="60" viewBox="0 0 60 60" fill="none"><g opacity="1" transform="translate(0 0)  rotate(0 30 30)"><path id="Ellipse 1009" fill-rule="evenodd" style="fill:#FEE6DC" transform="translate(0 0)  rotate(0 30 30)" opacity="1" d="M30,0C13.43,0 0,13.43 0,30C0,46.57 13.43,60 30,60C46.57,60 60,46.57 60,30C60,13.43 46.57,0 30,0Z " /><g opacity="1" transform="translate(18 18)  rotate(0 12 12)"><path id="Ellipse 1011" fill-rule="evenodd" style="fill:#073B4C" transform="translate(7.125023803116013 0.37497816207780055)  rotate(-45 4.875 11.625)" opacity="1" d="M4.88 0Z M0 11.63C0 17.26 1.71 23.25 4.88 23.25C8.04 23.25 9.75 17.26 9.75 11.63C9.75 5.99 8.04 0 4.88 0C1.71 0 0 5.99 0 11.63Z M4.88 21.75Z M4.88 1.5C3.47 1.5 1.5 5.35 1.5 11.63C1.5 17.9 3.47 21.75 4.88 21.75C6.28 21.75 8.25 17.9 8.25 11.63C8.25 5.35 6.28 1.5 4.88 1.5Z " /><path id="Ellipse 1012" fill-rule="evenodd" style="fill:#073B4C" transform="translate(0.37502380311601335 7.125022314759359)  rotate(-45 11.625 4.875)" opacity="1" d="M11.63 0Z M0 4.88C0 8.04 5.99 9.75 11.63 9.75C17.26 9.75 23.25 8.04 23.25 4.88C23.25 1.71 17.26 0 11.63 0C5.99 0 0 1.71 0 4.88Z M11.63 8.25Z M11.63 1.5C5.35 1.5 1.5 3.47 1.5 4.88C1.5 6.28 5.35 8.25 11.63 8.25C17.9 8.25 21.75 6.28 21.75 4.88C21.75 3.47 17.9 1.5 11.63 1.5Z " /><path id="Ellipse 1013" fill-rule="evenodd" style="fill:#073B4C" transform="translate(10.875 10.875)  rotate(0 1.125 1.125)" opacity="1" d="M1.13,0C0.5,0 0,0.5 0,1.13C0,1.75 0.5,2.25 1.13,2.25C1.75,2.25 2.25,1.75 2.25,1.13C2.25,0.5 1.75,0 1.13,0Z " /></g></g></svg>