<svg xmlns="http://www.w3.org/2000/svg" xmlns:xlink="http://www.w3.org/1999/xlink" width="60" height="60" viewBox="0 0 60 60" fill="none"><g opacity="1" transform="translate(0 0)  rotate(0 30 30)"><path id="Ellipse 1015" fill-rule="evenodd" style="fill:#EDF3FF" transform="translate(0 0)  rotate(0 30 30)" opacity="1" d="M30,0C13.43,0 0,13.43 0,30C0,46.57 13.43,60 30,60C46.57,60 60,46.57 60,30C60,13.43 46.57,0 30,0Z " /><g opacity="1" transform="translate(18 18)  rotate(0 12 12)"><path id="Rectangle 34" fill-rule="evenodd" style="fill:#073B4C" transform="translate(2.25 3.7500000000000018)  rotate(180 9.75 7.5)" opacity="1" d="M2.25 0Z M19.5 12.75L19.5 2.25C19.5 1.01 18.49 0 17.25 0L2.25 0C1.01 0 0 1.01 0 2.25L0 12.75C0 13.99 1.01 15 2.25 15L17.25 15C18.49 15 19.5 13.99 19.5 12.75Z M17.25 13.5Z M17.25 1.5L2.25 1.5C1.84 1.5 1.5 1.84 1.5 2.25L1.5 12.75C1.5 13.16 1.84 13.5 2.25 13.5L17.25 13.5C17.66 13.5 18 13.16 18 12.75L18 2.25C18 1.84 17.66 1.5 17.25 1.5Z " /><path id="Line 1" fill-rule="evenodd" style="fill:#073B4C" transform="translate(8.25 20.25)  rotate(0 3.75 0.75)" opacity="1" d="M6.75 0C7.16 0 7.5 0.34 7.5 0.75C7.5 1.16 7.16 1.5 6.75 1.5L0.75 1.5C0.34 1.5 0 1.16 0 0.75C0 0.34 0.34 0 0.75 0L6.75 0Z" /><path id="Line 2" fill-rule="evenodd" style="fill:#073B4C" transform="translate(2.25 13.5)  rotate(0 9.75 0.75)" opacity="1" d="M18.75 0C19.16 0 19.5 0.34 19.5 0.75C19.5 1.16 19.16 1.5 18.75 1.5L0.75 1.5C0.34 1.5 0 1.16 0 0.75C0 0.34 0.34 0 0.75 0L18.75 0Z" /><path id="Line 3" fill-rule="evenodd" style="fill:#073B4C" transform="translate(11.25 17.25)  rotate(0 0.75 2.25)" opacity="1" d="M1.5 0.75L1.5 3.75C1.5 4.16 1.16 4.5 0.75 4.5C0.34 4.5 0 4.16 0 3.75L0 0.75C0 0.34 0.34 0 0.75 0C1.16 0 1.5 0.34 1.5 0.75Z" /></g></g></svg>