<svg xmlns="http://www.w3.org/2000/svg" xmlns:xlink="http://www.w3.org/1999/xlink" width="60" height="60" viewBox="0 0 60 60" fill="none"><g opacity="1" transform="translate(0 0)  rotate(0 30 30)"><path id="Ellipse 1016" fill-rule="evenodd" style="fill:#DFF7EA" transform="translate(0 0)  rotate(0 30 30)" opacity="1" d="M30,0C13.43,0 0,13.43 0,30C0,46.57 13.43,60 30,60C46.57,60 60,46.57 60,30C60,13.43 46.57,0 30,0Z " /><g opacity="1" transform="translate(18 18)  rotate(0 12 12)"><path id="Line 4" fill-rule="evenodd" style="fill:#073B4C" transform="translate(3.75 6)  rotate(0 0.75 6)" opacity="1" d="M1.5 0.75L1.5 11.25C1.5 11.66 1.16 12 0.75 12C0.34 12 0 11.66 0 11.25L0 0.75C0 0.34 0.34 0 0.75 0C1.16 0 1.5 0.34 1.5 0.75Z" /><path id="Line 5" fill-rule="evenodd" style="fill:#073B4C" transform="translate(18.75 6)  rotate(0 0.75 6)" opacity="1" d="M1.5 0.75L1.5 11.25C1.5 11.66 1.16 12 0.75 12C0.34 12 0 11.66 0 11.25L0 0.75C0 0.34 0.34 0 0.75 0C1.16 0 1.5 0.34 1.5 0.75Z" /><path id="Rectangle 37" fill-rule="evenodd" style="fill:#073B4C" transform="translate(2.25 3)  rotate(0 9.75 2.25)" opacity="1" d="M1.5 0Z M18 0L1.5 0C0.67 0 0 0.67 0 1.5L0 3C0 3.83 0.67 4.5 1.5 4.5L18 4.5C18.83 4.5 19.5 3.83 19.5 3L19.5 1.5C19.5 0.67 18.83 0 18 0Z M17.9991 3Z M1.49905 1.5L1.49905 3L17.9991 3L17.9991 1.5L1.49905 1.5Z " /><path id="Line 6" fill-rule="evenodd" style="fill:#073B4C" transform="translate(11.25 16.5)  rotate(0 0.75 2.25)" opacity="1" d="M1.5 0.75L1.5 3.75C1.5 4.16 1.16 4.5 0.75 4.5C0.34 4.5 0 4.16 0 3.75L0 0.75C0 0.34 0.34 0 0.75 0C1.16 0 1.5 0.34 1.5 0.75Z" /><path id="Ellipse 1010" fill-rule="evenodd" style="fill:#073B4C" transform="translate(9.75 19.5)  rotate(0 2.25 2.25)" opacity="1" d="M2.25 0Z M0 2.25C0 3.49 1.01 4.5 2.25 4.5C3.49 4.5 4.5 3.49 4.5 2.25C4.5 1.01 3.49 0 2.25 0C1.01 0 0 1.01 0 2.25Z M2.25 3Z M2.25 1.5C1.84 1.5 1.5 1.84 1.5 2.25C1.5 2.66 1.84 3 2.25 3C2.66 3 3 2.66 3 2.25C3 1.84 2.66 1.5 2.25 1.5Z " /><path id="Line 7" fill-rule="evenodd" style="fill:#073B4C" transform="translate(2.25 16.5)  rotate(0 9.75 0.75)" opacity="1" d="M18.75 0C19.16 0 19.5 0.34 19.5 0.75C19.5 1.16 19.16 1.5 18.75 1.5L0.75 1.5C0.34 1.5 0 1.16 0 0.75C0 0.34 0.34 0 0.75 0L18.75 0Z" /></g></g></svg>